<?xml version="1.0" encoding="UTF-8"?>
<svg id="Logos" xmlns="http://www.w3.org/2000/svg" viewBox="0 0 150 150">
  <defs>
    <style>
      .cls-1 {
        fill: none;
        stroke: #50595e;
        stroke-width: 1.25px;
      }

      .cls-1, .cls-2, .cls-3 {
        stroke-miterlimit: 10;
      }

      .cls-4 {
        fill: #50595e;
      }

      .cls-2 {
        fill: #fff;
      }

      .cls-2, .cls-3 {
        stroke: #ba4f00;
        stroke-width: 2px;
      }

      .cls-5 {
        fill: #20282f;
      }

      .cls-3 {
        fill: #ba4f00;
      }

      .cls-6 {
        fill: #c8102e;
      }
    </style>
  </defs>
  <g id="Non-Cert_COMPCERT_Large_Text" data-name="Non-Cert / COMPCERT / Large Text">
    <path class="cls-3" d="M75,11.75C38.17,11.75,8.32,41.61,8.32,78.43c0,18.37,7.43,35,19.45,47.06,1.71-1.56,3.5-3.03,5.36-4.42-11.05-10.84-17.91-25.94-17.91-42.64,0-33.01,26.76-59.78,59.78-59.78s59.78,26.76,59.78,59.78c0,16.71-6.86,31.8-17.91,42.64,1.86,1.39,3.65,2.86,5.36,4.42,12.02-12.06,19.45-28.69,19.45-47.06,0-36.83-29.85-66.68-66.68-66.68Z"/>
    <circle class="cls-2" cx="75" cy="78.58" r="59.67"/>
    <g>
      <path class="cls-4" d="M54.55,119.93c-.35,0-.66-.06-.93-.19-.28-.12-.49-.31-.65-.55-.16-.24-.24-.54-.24-.9,0-.31.06-.56.17-.76s.27-.36.47-.48c.2-.12.42-.21.67-.28.25-.06.5-.11.77-.14.32-.03.58-.06.78-.09s.34-.07.44-.13c.09-.06.14-.15.14-.27v-.02c0-.27-.08-.47-.24-.62-.16-.15-.39-.22-.69-.22-.31,0-.56.07-.75.21-.18.14-.31.3-.37.49l-1.2-.17c.09-.33.25-.61.47-.83.22-.22.48-.39.8-.5s.66-.17,1.04-.17c.26,0,.52.03.79.09.26.06.5.16.71.3.22.14.39.33.52.57s.2.54.2.91v3.65h-1.24v-.75h-.04c-.08.15-.19.29-.33.42-.14.13-.32.24-.53.32-.21.08-.46.12-.74.12ZM54.88,118.99c.26,0,.48-.05.67-.15.19-.1.34-.24.44-.41.1-.17.15-.36.15-.56v-.64s-.11.06-.2.09c-.1.03-.2.05-.32.08-.12.02-.24.04-.35.06-.12.02-.22.03-.3.04-.19.03-.36.07-.51.13-.15.06-.27.14-.36.25-.09.11-.13.24-.13.41,0,.24.09.42.26.54.17.12.39.18.66.18Z"/>
      <path class="cls-4" d="M58.97,117.49v-1.12h4.91v1.12h-4.91ZM60.87,119.39v-4.91h1.12v4.91h-1.12Z"/>
      <path class="cls-4" d="M71.94,114.55c-.03-.31-.17-.55-.42-.72-.25-.17-.56-.26-.95-.26-.27,0-.51.04-.71.12-.2.08-.35.2-.45.34-.1.14-.16.3-.16.49,0,.15.04.28.1.39s.17.21.29.28.25.14.4.19.29.1.44.13l.68.17c.27.06.54.15.79.26.25.11.48.25.69.41.2.17.36.37.48.6s.18.51.18.82c0,.43-.11.8-.33,1.12-.22.32-.53.58-.94.76-.41.18-.91.27-1.49.27s-1.06-.09-1.47-.26c-.42-.17-.74-.43-.97-.77-.23-.34-.36-.75-.38-1.23h1.3c.02.25.1.46.23.63.14.17.32.29.54.38.22.08.47.12.74.12s.54-.04.75-.13c.22-.09.39-.21.51-.36s.19-.34.19-.55c0-.19-.06-.35-.17-.47s-.26-.23-.46-.31-.42-.16-.68-.23l-.83-.21c-.6-.15-1.07-.39-1.42-.7-.35-.31-.52-.73-.52-1.25,0-.43.12-.8.35-1.13.23-.32.55-.57.95-.75.4-.18.86-.27,1.37-.27s.97.09,1.36.27c.39.18.7.43.92.74.22.32.34.68.34,1.09h-1.27Z"/>
      <path class="cls-4" d="M76.84,119.93c-.55,0-1.02-.12-1.42-.34-.4-.23-.7-.55-.91-.97-.21-.42-.32-.92-.32-1.49s.11-1.05.32-1.48.51-.76.9-.99c.39-.24.84-.36,1.36-.36.34,0,.65.05.95.16.3.11.56.27.8.5.23.23.41.51.54.86.13.35.2.76.2,1.24v.39h-4.47v-.87h3.24c0-.25-.06-.46-.16-.66-.1-.19-.25-.35-.44-.46-.19-.11-.4-.17-.65-.17-.26,0-.49.06-.69.19s-.35.29-.46.5c-.11.2-.17.43-.17.67v.76c0,.32.06.59.17.82.12.23.28.4.49.52.21.12.45.18.73.18.19,0,.36-.03.51-.08.15-.05.28-.13.39-.24.11-.1.2-.23.25-.39l1.2.13c-.08.32-.22.59-.43.83-.21.23-.48.42-.81.55s-.71.19-1.13.19Z"/>
      <path class="cls-4" d="M80.35,119.82v-5.45h1.25v.91h.06c.1-.31.27-.56.51-.73.24-.17.52-.26.83-.26.07,0,.15,0,.24,0s.16.02.22.03v1.18c-.05-.02-.14-.04-.26-.05s-.23-.02-.34-.02c-.23,0-.44.05-.63.15-.19.1-.33.24-.44.42s-.16.38-.16.61v3.21h-1.29Z"/>
      <path class="cls-4" d="M84.96,113.59c-.2,0-.38-.07-.53-.2s-.22-.3-.22-.49.07-.36.22-.5c.15-.14.32-.2.53-.2s.38.07.53.2c.15.14.22.3.22.5s-.07.36-.22.49c-.15.14-.32.2-.53.2ZM84.32,119.82v-5.45h1.29v5.45h-1.29Z"/>
      <path class="cls-4" d="M89.34,119.93c-.55,0-1.02-.12-1.42-.34-.4-.23-.7-.55-.91-.97-.21-.42-.32-.92-.32-1.49s.11-1.05.32-1.48.51-.76.9-.99c.39-.24.84-.36,1.36-.36.34,0,.65.05.95.16.3.11.56.27.8.5.23.23.41.51.54.86.13.35.2.76.2,1.24v.39h-4.47v-.87h3.24c0-.25-.06-.46-.16-.66-.1-.19-.25-.35-.44-.46-.19-.11-.4-.17-.65-.17-.26,0-.49.06-.69.19s-.35.29-.46.5c-.11.2-.17.43-.17.67v.76c0,.32.06.59.17.82.12.23.28.4.49.52.21.12.45.18.73.18.19,0,.36-.03.51-.08.15-.05.28-.13.39-.24.11-.1.2-.23.25-.39l1.2.13c-.08.32-.22.59-.43.83-.21.23-.48.42-.81.55s-.71.19-1.13.19Z"/>
      <path class="cls-4" d="M97.16,115.81l-1.17.13c-.03-.12-.09-.23-.17-.33-.08-.1-.19-.19-.33-.25-.14-.06-.31-.1-.5-.1-.27,0-.49.06-.67.17-.18.12-.27.27-.27.45,0,.16.06.29.18.39s.32.18.6.25l.93.2c.52.11.9.29,1.15.53s.38.56.38.95c0,.34-.1.65-.3.91-.2.26-.47.47-.82.61s-.75.22-1.21.22c-.67,0-1.21-.14-1.61-.42-.41-.28-.65-.67-.73-1.17l1.25-.12c.06.25.18.43.36.56s.43.19.72.19.55-.06.74-.19c.19-.12.28-.28.28-.46,0-.16-.06-.29-.18-.39-.12-.1-.3-.18-.56-.23l-.93-.2c-.52-.11-.91-.29-1.16-.55-.25-.26-.38-.59-.37-.99,0-.34.09-.63.28-.88.19-.25.44-.44.78-.57.33-.14.72-.21,1.15-.21.64,0,1.14.14,1.51.41.37.27.6.64.68,1.11Z"/>
    </g>
    <g>
      <path class="cls-6" d="M56.5,42.96c-1.79,0-3.2,1.2-3.2,2.72s1.41,2.7,3.2,2.7c1.79,0,3.2-1.18,3.2-2.7,0-1.52-1.41-2.72-3.2-2.72M56.5,50.21c-2.82,0-5.03-1.98-5.03-4.53,0-2.55,2.21-4.55,5.03-4.55,2.82,0,5.03,2,5.03,4.55s-2.21,4.53-5.03,4.53"/>
      <path class="cls-6" d="M74.48,50.21c-1.01,0-1.83-.84-1.83-1.87v-3.77c0-.9-.78-1.62-1.75-1.62-.95,0-1.73.72-1.73,1.62v5.64c-1.01,0-1.83-.82-1.83-1.83v-3.81c0-.9-.78-1.62-1.75-1.62-.95,0-1.74.72-1.74,1.62v3.79c0,1.01-.82,1.85-1.83,1.85v-5.64c0-1.9,1.6-3.45,3.56-3.45,1.06,0,2.02.44,2.66,1.14.65-.71,1.6-1.14,2.65-1.14,1.98,0,3.58,1.54,3.58,3.45v5.64Z"/>
      <path class="cls-6" d="M80.42,50.2c-.48,0-.93-.04-1.35-.13-.95-.27-1.51-1.26-1.26-2.21.04-.11.07-.23.11-.32l.02-.02c.51.57,1.35.86,2.48.86,1.68,0,2.99-1.18,2.99-2.67s-1.31-2.76-2.99-2.76c-1.58,0-3.16.88-3.16,2.8v5.92c0,.99-.84,1.79-1.83,1.79v-7.71c0-2.67,2.1-4.63,4.99-4.63,1.28,0,2.47.48,3.39,1.31.92.86,1.43,2.02,1.43,3.28,0,2.52-2.11,4.49-4.82,4.49"/>
      <path class="cls-6" d="M93.46,39.4h-3.91s0,10.82,0,10.82h-.08c-.97,0-1.75-.84-1.75-1.83v-8.99s-3.91,0-3.91,0c-.99,0-1.79-.82-1.79-1.81h13.26c0,.99-.8,1.81-1.81,1.81"/>
      <path class="cls-6" d="M105.06,39.47l-2.6,5.71h4.9s-2.62-5.73-2.62-5.73l.31.02ZM109.11,49.07l-.97-2.09h-6.49s-.96,2.15-.96,2.15c-.45.86-1.66,1.12-2.58,1.12l5.29-11.61c.3-.67.83-1.05,1.45-1.05.62,0,1.16.38,1.47,1.05l5.23,11.47c-.98.09-2.06-.2-2.44-1.04"/>
      <path class="cls-6" d="M49.42,41c-.99-1.05-2.44-1.73-4.04-1.73-2.84,0-5.14,2.06-5.14,4.59,0,2.53,2.31,4.61,5.14,4.61,1.35,0,2.63-.51,3.6-1.33.67-.55,1.66-.51,2.31.04-.5.76-1.16,1.43-1.98,1.94-1.16.74-2.52,1.12-3.92,1.12-3.83,0-6.93-2.86-6.93-6.38,0-3.52,3.1-6.38,6.93-6.38,2.72,0,5.2,1.49,6.3,3.77-.7.46-1.68.4-2.27-.25"/>
      <path class="cls-6" d="M95.85,37.59v10.85c0,.97.84,1.77,1.83,1.77v-10.85c0-.97-.84-1.77-1.83-1.77"/>
    </g>
    <g>
      <rect class="cls-1" x="43.75" y="90.57" width="62.49" height="13.5" rx="6.75" ry="6.75"/>
      <g>
        <path class="cls-4" d="M54.77,96.25h-1.2c-.03-.2-.1-.37-.19-.52-.09-.15-.21-.28-.34-.39s-.29-.19-.47-.24c-.17-.05-.36-.08-.56-.08-.36,0-.67.09-.95.27s-.49.44-.65.78c-.16.34-.23.76-.23,1.25s.08.92.23,1.26c.16.34.37.6.65.77.27.17.59.26.94.26.2,0,.38-.03.55-.08.17-.05.33-.13.46-.23.14-.1.25-.23.35-.38s.16-.32.2-.51h1.2c-.04.32-.14.61-.29.88-.15.27-.34.51-.58.72-.24.21-.52.37-.84.49-.32.12-.67.17-1.06.17-.58,0-1.09-.13-1.54-.4-.45-.27-.81-.65-1.07-1.15-.26-.5-.39-1.11-.39-1.81s.13-1.31.39-1.81c.26-.5.62-.89,1.07-1.15.45-.27.96-.4,1.53-.4.36,0,.7.05,1.02.15.31.1.59.25.84.45.25.2.45.44.61.72s.26.61.31.97Z"/>
        <path class="cls-4" d="M61.89,97.31c0,.71-.13,1.31-.39,1.81-.26.5-.62.89-1.07,1.15-.45.27-.97.4-1.54.4s-1.09-.13-1.54-.4c-.45-.27-.81-.65-1.07-1.15s-.39-1.1-.39-1.81.13-1.31.39-1.81c.26-.5.62-.89,1.07-1.15.45-.27.97-.4,1.54-.4s1.09.13,1.54.4c.45.27.81.65,1.07,1.15.26.5.39,1.11.39,1.81ZM60.7,97.31c0-.5-.08-.92-.23-1.26-.15-.34-.37-.6-.64-.78s-.59-.26-.94-.26-.67.09-.94.26c-.27.18-.49.43-.64.78-.15.34-.23.76-.23,1.26s.08.92.23,1.26c.15.34.37.6.64.78.27.18.59.26.94.26s.67-.09.94-.26.49-.44.64-.78c.15-.34.23-.76.23-1.26Z"/>
        <path class="cls-4" d="M63.2,94.04h1.45l1.94,4.74h.08l1.94-4.74h1.45v6.55h-1.14v-4.5h-.06l-1.81,4.48h-.85l-1.81-4.49h-.06v4.51h-1.14v-6.55Z"/>
        <path class="cls-4" d="M71.53,100.59v-6.55h2.45c.5,0,.93.09,1.27.28.34.19.6.45.78.77s.26.7.26,1.11-.09.79-.27,1.12c-.18.33-.44.58-.78.77s-.77.28-1.28.28h-1.63v-.97h1.47c.29,0,.53-.05.72-.15.19-.1.33-.24.42-.42.09-.18.14-.38.14-.62s-.05-.44-.14-.61c-.09-.18-.23-.32-.42-.41-.19-.1-.43-.15-.73-.15h-1.09v5.55h-1.19Z"/>
        <path class="cls-4" d="M83.11,96.25h-1.2c-.03-.2-.1-.37-.19-.52-.09-.15-.21-.28-.34-.39s-.29-.19-.47-.24c-.17-.05-.36-.08-.56-.08-.36,0-.67.09-.95.27s-.49.44-.65.78c-.16.34-.23.76-.23,1.25s.08.92.23,1.26c.16.34.37.6.65.77.27.17.59.26.94.26.2,0,.38-.03.55-.08.17-.05.33-.13.46-.23.14-.1.25-.23.35-.38s.16-.32.2-.51h1.2c-.04.32-.14.61-.29.88-.15.27-.34.51-.58.72-.24.21-.52.37-.84.49-.32.12-.67.17-1.06.17-.58,0-1.09-.13-1.54-.4-.45-.27-.81-.65-1.07-1.15-.26-.5-.39-1.11-.39-1.81s.13-1.31.39-1.81c.26-.5.62-.89,1.07-1.15.45-.27.96-.4,1.53-.4.36,0,.7.05,1.02.15.31.1.59.25.84.45.25.2.45.44.61.72s.26.61.31.97Z"/>
        <path class="cls-4" d="M84.38,100.59v-6.55h4.26v.99h-3.07v1.78h2.85v.99h-2.85v1.79h3.1v.99h-4.28Z"/>
        <path class="cls-4" d="M90.03,100.59v-6.55h2.45c.5,0,.93.09,1.27.26.34.17.6.42.78.73s.26.68.26,1.1-.09.78-.27,1.09c-.18.31-.44.55-.78.71-.34.17-.77.25-1.27.25h-1.75v-.98h1.59c.29,0,.53-.04.72-.12s.33-.2.42-.36c.09-.16.14-.35.14-.59s-.05-.43-.14-.6c-.09-.17-.23-.29-.42-.38-.19-.09-.43-.13-.73-.13h-1.09v5.55h-1.19ZM93.41,97.62l1.62,2.97h-1.32l-1.59-2.97h1.29Z"/>
        <path class="cls-4" d="M95.77,95.03v-.99h5.22v.99h-2.02v5.55h-1.18v-5.55h-2.02Z"/>
      </g>
    </g>
    <g>
      <path class="cls-5" d="M52.48,66.31c-.63,0-1.19.12-1.68.37-.49.25-.91.61-1.24,1.07-.34.46-.59,1.02-.76,1.68-.17.66-.25,1.4-.25,2.22,0,1.11.14,2.06.41,2.85.27.79.7,1.38,1.29,1.79.59.41,1.33.62,2.24.62.64,0,1.29-.07,1.92-.22.64-.15,1.33-.35,2.08-.62v2.79c-.69.28-1.37.48-2.05.62-.67.13-1.43.2-2.27.2-1.61,0-2.94-.33-3.99-1-1.05-.67-1.82-1.61-2.32-2.82-.5-1.21-.75-2.62-.75-4.24,0-1.19.16-2.28.48-3.27s.8-1.84,1.42-2.56c.62-.72,1.39-1.28,2.31-1.67.92-.4,1.97-.59,3.16-.59.78,0,1.56.1,2.34.3.78.2,1.54.47,2.25.8l-1.08,2.71c-.59-.28-1.18-.52-1.77-.73-.59-.21-1.18-.31-1.75-.31Z"/>
      <path class="cls-5" d="M57.37,67.45h3.59l2.27,6.75c.07.22.14.44.19.66.05.22.09.45.13.68.04.24.06.48.08.75h.07c.04-.38.11-.74.19-1.09.08-.34.17-.68.28-1l2.22-6.75h3.52l-5.08,13.55c-.31.82-.71,1.51-1.2,2.07-.49.56-1.06.97-1.71,1.25-.65.28-1.35.42-2.11.42-.37,0-.69-.02-.96-.05-.27-.04-.51-.08-.71-.12v-2.6c.16.03.36.06.58.09.23.03.47.04.71.04.45,0,.85-.1,1.18-.29.33-.19.61-.45.83-.78s.4-.69.53-1.07l.2-.59-4.77-11.92Z"/>
      <path class="cls-5" d="M74.4,66.64c0,.46-.01.9-.04,1.34-.03.44-.06.78-.09,1.03h.13c.32-.5.75-.92,1.3-1.26.54-.34,1.25-.52,2.11-.52,1.35,0,2.44.52,3.28,1.57.84,1.05,1.25,2.59,1.25,4.63,0,1.36-.19,2.51-.58,3.44-.39.93-.93,1.63-1.62,2.1-.69.47-1.5.7-2.42.7s-1.57-.16-2.08-.47-.92-.67-1.24-1.07h-.22l-.55,1.32h-2.51v-16.72h3.28v3.89ZM76.75,69.85c-.57,0-1.03.12-1.36.35-.34.23-.58.59-.74,1.07s-.24,1.07-.25,1.79v.35c0,1.16.17,2.05.52,2.67.34.62.97.94,1.88.94.67,0,1.21-.31,1.61-.94.4-.62.59-1.52.59-2.69s-.2-2.06-.6-2.65c-.4-.59-.95-.89-1.64-.89Z"/>
      <path class="cls-5" d="M89.51,67.23c1.11,0,2.07.21,2.87.64.8.43,1.42,1.04,1.86,1.85.44.81.66,1.8.66,2.97v1.58h-7.74c.03.92.3,1.65.83,2.18s1.24.79,2.17.79c.78,0,1.48-.08,2.11-.23.63-.15,1.28-.39,1.96-.71v2.53c-.59.29-1.21.51-1.86.65-.65.14-1.44.21-2.36.21-1.2,0-2.27-.22-3.19-.67-.92-.45-1.65-1.12-2.18-2.03-.53-.91-.79-2.05-.79-3.43s.24-2.58.71-3.51,1.14-1.63,1.99-2.1c.85-.47,1.84-.7,2.97-.7ZM89.53,69.56c-.63,0-1.16.21-1.57.62-.42.41-.66,1.05-.74,1.91h4.6c0-.48-.08-.92-.25-1.3-.17-.38-.42-.68-.76-.9-.34-.22-.76-.33-1.28-.33Z"/>
      <path class="cls-5" d="M103.79,67.23c.16,0,.35,0,.57.02s.4.04.53.07l-.24,3.08c-.1-.03-.25-.06-.45-.08-.2-.02-.37-.03-.52-.03-.43,0-.84.05-1.23.17-.4.11-.75.28-1.07.52-.32.24-.56.55-.75.94s-.27.87-.27,1.44v6.12h-3.28v-12.01h2.49l.48,2.02h.15c.23-.41.53-.79.88-1.12.35-.34.76-.61,1.22-.81.46-.21.96-.31,1.48-.31Z"/>
    </g>
  </g>
</svg>