<?xml version="1.0" encoding="UTF-8"?>
<svg id="Logos" xmlns="http://www.w3.org/2000/svg" viewBox="0 0 150 150">
  <defs>
    <style>
      .cls-1 {
        fill: none;
        stroke: #50595e;
        stroke-width: 1.25px;
      }

      .cls-1, .cls-2, .cls-3 {
        stroke-miterlimit: 10;
      }

      .cls-4 {
        fill: #50595e;
      }

      .cls-2 {
        fill: #fff;
      }

      .cls-2, .cls-3 {
        stroke: #ba4f00;
        stroke-width: 2px;
      }

      .cls-5 {
        fill: #20282f;
      }

      .cls-3 {
        fill: #ba4f00;
      }

      .cls-6 {
        fill: #c8102e;
      }
    </style>
  </defs>
  <g id="Non-Cert_COMPCERT_Med-Large_Text" data-name="Non-Cert / COMPCERT / Med-Large Text">
    <path class="cls-3" d="M75,11.75C38.17,11.75,8.32,41.61,8.32,78.43c0,18.37,7.43,35,19.45,47.06,1.71-1.56,3.5-3.03,5.36-4.42-11.05-10.84-17.91-25.94-17.91-42.64,0-33.01,26.76-59.78,59.78-59.78s59.78,26.76,59.78,59.78c0,16.71-6.86,31.8-17.91,42.64,1.86,1.39,3.65,2.86,5.36,4.42,12.02-12.06,19.45-28.69,19.45-47.06,0-36.83-29.85-66.68-66.68-66.68Z"/>
    <circle class="cls-2" cx="75" cy="78.58" r="59.67"/>
    <g>
      <path class="cls-4" d="M54.55,119.93c-.35,0-.66-.06-.93-.19-.28-.12-.49-.31-.65-.55-.16-.24-.24-.54-.24-.9,0-.31.06-.56.17-.76.11-.2.27-.36.47-.48.2-.12.42-.21.67-.28.25-.06.5-.11.77-.14.32-.03.58-.06.78-.09.2-.03.34-.07.44-.13.09-.06.14-.15.14-.27v-.02c0-.27-.08-.47-.24-.62s-.39-.22-.69-.22c-.31,0-.56.07-.75.21-.18.14-.31.3-.37.49l-1.2-.17c.09-.33.25-.61.47-.83s.48-.39.8-.5c.31-.11.66-.17,1.04-.17.26,0,.52.03.79.09.26.06.5.16.71.3.22.14.39.33.52.57.13.24.2.54.2.91v3.65h-1.24v-.75h-.04c-.08.15-.19.29-.33.42-.14.13-.32.24-.53.32s-.46.12-.74.12ZM54.88,118.99c.26,0,.48-.05.67-.15.19-.1.34-.24.44-.41.1-.17.15-.36.15-.56v-.64s-.11.06-.2.09-.2.05-.32.07c-.12.02-.24.04-.35.06s-.22.03-.3.04c-.19.03-.36.07-.51.13s-.27.14-.36.25c-.09.11-.13.24-.13.41,0,.24.09.42.26.54.17.12.39.18.66.18Z"/>
      <path class="cls-4" d="M58.97,117.49v-1.12h4.92v1.12h-4.92ZM60.87,119.39v-4.91h1.12v4.91h-1.12Z"/>
      <path class="cls-4" d="M71.94,114.55c-.03-.31-.17-.55-.42-.72s-.56-.26-.95-.26c-.27,0-.51.04-.71.12s-.35.2-.45.34c-.1.14-.16.3-.16.49,0,.15.04.28.1.39.07.11.17.21.29.28.12.08.25.14.4.19.15.05.29.1.44.13l.68.17c.28.06.54.15.79.26.25.11.48.25.69.41s.36.37.48.6.18.51.18.82c0,.43-.11.8-.33,1.12s-.53.58-.94.76c-.41.18-.91.27-1.49.27s-1.06-.09-1.47-.26c-.42-.17-.74-.43-.97-.77-.23-.34-.36-.75-.38-1.23h1.3c.02.25.1.46.23.63.14.17.32.29.54.38.22.08.47.12.74.12s.54-.04.75-.13c.22-.09.39-.21.51-.36.12-.16.19-.34.19-.55,0-.19-.06-.35-.17-.47-.11-.12-.26-.23-.46-.31s-.42-.16-.68-.23l-.83-.21c-.6-.15-1.07-.39-1.42-.7-.35-.31-.52-.73-.52-1.25,0-.43.12-.8.35-1.13s.55-.57.95-.75.86-.27,1.37-.27.97.09,1.36.27.7.43.92.74c.22.32.34.68.34,1.09h-1.27Z"/>
      <path class="cls-4" d="M76.84,119.93c-.55,0-1.02-.11-1.42-.34-.4-.23-.7-.55-.92-.97-.21-.42-.32-.92-.32-1.49s.11-1.05.32-1.48c.21-.42.51-.76.9-.99.39-.24.84-.36,1.36-.36.34,0,.65.05.95.16.3.11.56.27.8.5.23.23.41.51.54.86.13.35.2.76.2,1.24v.39h-4.47v-.87h3.24c0-.25-.06-.47-.16-.66-.1-.19-.25-.35-.43-.46-.19-.11-.4-.17-.65-.17-.26,0-.49.06-.69.19-.2.13-.35.29-.46.5-.11.21-.17.43-.17.67v.76c0,.32.06.59.17.81.12.23.28.4.49.52.21.12.45.18.73.18.19,0,.36-.03.51-.08.15-.05.28-.13.39-.24.11-.1.2-.23.25-.39l1.2.13c-.08.32-.22.59-.43.83s-.48.42-.81.55-.71.19-1.13.19Z"/>
      <path class="cls-4" d="M80.35,119.82v-5.45h1.25v.91h.06c.1-.32.27-.56.51-.73.24-.17.52-.26.83-.26.07,0,.15,0,.24,0s.16.01.22.03v1.18c-.05-.02-.14-.04-.26-.05-.12-.01-.23-.02-.34-.02-.23,0-.45.05-.63.15s-.33.24-.44.42c-.11.18-.16.38-.16.61v3.21h-1.29Z"/>
      <path class="cls-4" d="M84.97,113.59c-.2,0-.38-.07-.53-.2-.15-.14-.22-.3-.22-.49s.07-.36.22-.5c.15-.14.32-.2.53-.2s.38.07.53.2.22.3.22.5-.07.36-.22.49-.32.2-.53.2ZM84.32,119.82v-5.45h1.29v5.45h-1.29Z"/>
      <path class="cls-4" d="M89.34,119.93c-.55,0-1.02-.11-1.42-.34-.4-.23-.7-.55-.92-.97-.21-.42-.32-.92-.32-1.49s.11-1.05.32-1.48c.21-.42.51-.76.9-.99.39-.24.84-.36,1.36-.36.34,0,.65.05.95.16.3.11.56.27.8.5.23.23.41.51.54.86.13.35.2.76.2,1.24v.39h-4.47v-.87h3.24c0-.25-.06-.47-.16-.66-.1-.19-.25-.35-.43-.46-.19-.11-.4-.17-.65-.17-.26,0-.49.06-.69.19-.2.13-.35.29-.46.5-.11.21-.17.43-.17.67v.76c0,.32.06.59.17.81.12.23.28.4.49.52.21.12.45.18.73.18.19,0,.36-.03.51-.08.15-.05.28-.13.39-.24.11-.1.2-.23.25-.39l1.2.13c-.08.32-.22.59-.43.83s-.48.42-.81.55-.71.19-1.13.19Z"/>
      <path class="cls-4" d="M97.16,115.81l-1.17.13c-.03-.12-.09-.23-.17-.33-.08-.1-.19-.19-.33-.25-.14-.06-.31-.1-.5-.1-.27,0-.49.06-.67.17-.18.12-.27.27-.27.45,0,.16.06.29.18.39.12.1.32.18.59.25l.93.2c.52.11.9.29,1.15.53.25.24.38.56.38.95,0,.34-.1.65-.3.91-.2.26-.47.47-.82.61s-.75.22-1.21.22c-.67,0-1.21-.14-1.61-.42-.41-.28-.65-.67-.73-1.17l1.25-.12c.06.25.18.43.36.56.18.12.43.19.72.19s.55-.06.74-.19c.19-.13.28-.28.28-.46,0-.16-.06-.29-.18-.39-.12-.1-.3-.18-.56-.23l-.93-.2c-.52-.11-.91-.29-1.16-.55-.25-.26-.38-.59-.37-.99,0-.34.09-.63.28-.88.19-.25.45-.44.78-.58.33-.14.72-.2,1.15-.2.64,0,1.14.14,1.51.41s.6.64.68,1.1Z"/>
    </g>
    <g>
      <path class="cls-6" d="M56.5,42.96c-1.79,0-3.2,1.2-3.2,2.72s1.41,2.7,3.2,2.7c1.79,0,3.2-1.18,3.2-2.7s-1.41-2.72-3.2-2.72M56.5,50.21c-2.82,0-5.03-1.98-5.03-4.53,0-2.55,2.21-4.55,5.03-4.55,2.82,0,5.03,2,5.03,4.55,0,2.55-2.21,4.53-5.03,4.53"/>
      <path class="cls-6" d="M74.48,50.21c-1.01,0-1.83-.84-1.83-1.87v-3.77c0-.9-.78-1.62-1.75-1.62-.95,0-1.73.72-1.73,1.62v5.64c-1.01,0-1.83-.82-1.83-1.83v-3.81c0-.9-.78-1.62-1.75-1.62s-1.74.72-1.74,1.62v3.79c0,1.01-.82,1.85-1.83,1.85v-5.64c0-1.9,1.6-3.45,3.56-3.45,1.06,0,2.02.44,2.66,1.14.65-.71,1.6-1.14,2.65-1.14,1.98,0,3.58,1.54,3.58,3.45v5.64Z"/>
      <path class="cls-6" d="M80.42,50.2c-.48,0-.93-.04-1.35-.13-.95-.27-1.51-1.26-1.26-2.21.04-.11.07-.23.11-.32l.02-.02c.51.57,1.35.86,2.48.86,1.68,0,2.99-1.18,2.99-2.67s-1.31-2.76-2.99-2.76c-1.58,0-3.16.88-3.16,2.8v5.92c0,.99-.84,1.79-1.83,1.79v-7.71c0-2.67,2.1-4.63,4.99-4.63,1.28,0,2.47.48,3.39,1.31.92.86,1.43,2.02,1.43,3.28,0,2.52-2.11,4.49-4.82,4.49"/>
      <path class="cls-6" d="M93.46,39.4h-3.91s0,10.82,0,10.82h-.08c-.97,0-1.75-.84-1.75-1.83v-8.99s-3.91,0-3.91,0c-.99,0-1.79-.82-1.79-1.81h13.26c0,.99-.8,1.81-1.81,1.81"/>
      <path class="cls-6" d="M105.06,39.47l-2.6,5.71h4.9s-2.62-5.73-2.62-5.73l.31.02ZM109.11,49.07l-.97-2.09h-6.49s-.96,2.15-.96,2.15c-.45.86-1.66,1.12-2.58,1.12l5.29-11.61c.3-.67.83-1.05,1.45-1.05.62,0,1.16.38,1.47,1.05l5.23,11.47c-.98.09-2.06-.2-2.44-1.04"/>
      <path class="cls-6" d="M49.42,41c-.99-1.05-2.44-1.73-4.04-1.73-2.84,0-5.14,2.06-5.14,4.59,0,2.53,2.31,4.61,5.14,4.61,1.35,0,2.63-.51,3.6-1.33.67-.55,1.66-.51,2.31.04-.5.76-1.16,1.43-1.98,1.94-1.16.74-2.52,1.12-3.92,1.12-3.83,0-6.93-2.86-6.93-6.38,0-3.52,3.1-6.38,6.93-6.38,2.72,0,5.2,1.49,6.3,3.77-.7.46-1.68.4-2.27-.25"/>
      <path class="cls-6" d="M95.85,37.59v10.85c0,.97.84,1.77,1.83,1.77v-10.85c0-.97-.84-1.77-1.83-1.77"/>
    </g>
    <g>
      <path class="cls-5" d="M43.75,79.46h-4.22l-6.84-11.88h-.09c.03.5.05,1,.08,1.5.02.5.04,1,.07,1.5.02.5.04,1,.06,1.5v7.39h-2.97v-15.71h4.2l6.82,11.77h.07c-.02-.48-.03-.97-.04-1.45-.02-.48-.03-.96-.06-1.44-.02-.48-.04-.96-.05-1.44v-7.44h2.99v15.71Z"/>
      <path class="cls-5" d="M51.91,67.23c1.11,0,2.07.21,2.87.64.8.43,1.42,1.04,1.86,1.85.44.81.66,1.8.66,2.97v1.58h-7.74c.03.92.3,1.65.83,2.18.52.53,1.24.79,2.17.79.78,0,1.48-.08,2.11-.23s1.28-.39,1.96-.71v2.53c-.59.29-1.21.51-1.86.65-.65.14-1.44.21-2.36.21-1.2,0-2.27-.22-3.19-.67s-1.65-1.12-2.18-2.04c-.53-.91-.79-2.05-.79-3.43s.24-2.58.71-3.51c.48-.93,1.14-1.63,1.99-2.1.85-.47,1.84-.71,2.97-.71ZM51.93,69.56c-.63,0-1.16.21-1.57.62-.42.41-.66,1.05-.74,1.91h4.6c0-.48-.08-.92-.25-1.3-.17-.38-.42-.68-.76-.9-.34-.22-.76-.33-1.28-.33Z"/>
      <path class="cls-5" d="M64.54,77.07c.37,0,.72-.04,1.06-.11.34-.07.67-.16,1.01-.26v2.44c-.35.15-.79.28-1.31.38-.52.11-1.09.17-1.71.17-.72,0-1.36-.12-1.92-.35-.57-.23-1.01-.64-1.34-1.22-.33-.58-.5-1.38-.5-2.41v-5.79h-1.56v-1.39l1.8-1.1.95-2.53h2.09v2.55h3.37v2.46h-3.37v5.79c0,.46.13.79.4,1.02.26.23.61.34,1.03.34Z"/>
      <path class="cls-5" d="M78.2,75.26c-.06-.25-.14-.62-.25-1.11-.11-.49-.23-1.02-.36-1.58s-.26-1.09-.37-1.56-.2-.83-.24-1.04h-.09c-.04.22-.12.57-.23,1.04-.11.48-.23,1-.36,1.56s-.26,1.1-.37,1.59-.21.88-.26,1.14l-.97,4.16h-3.52l-3.41-12.01h3.26l1.39,5.32c.1.37.19.81.27,1.32.08.51.16,1.01.23,1.49s.12.85.15,1.13h.09c.01-.21.04-.48.09-.83s.1-.7.17-1.07c.07-.37.12-.7.18-1,.05-.3.09-.5.12-.61l1.47-5.76h3.61l1.41,5.76c.06.21.13.54.21.99.08.46.15.92.22,1.39.07.47.1.84.1,1.12h.09c.03-.25.08-.61.15-1.09s.16-.98.25-1.51c.1-.53.19-.98.3-1.34l1.43-5.32h3.21l-3.45,12.01h-3.56l-.92-4.2Z"/>
      <path class="cls-5" d="M98.51,73.44c0,1-.14,1.88-.41,2.66-.27.78-.66,1.43-1.17,1.97s-1.12.94-1.84,1.21c-.72.27-1.53.41-2.44.41-.84,0-1.61-.14-2.32-.41-.71-.27-1.32-.67-1.84-1.21-.51-.54-.91-1.19-1.2-1.97-.29-.78-.43-1.66-.43-2.66,0-1.33.23-2.46.7-3.38.47-.92,1.14-1.62,2.02-2.1s1.92-.73,3.12-.73c1.13,0,2.13.24,2.99.73s1.55,1.18,2.05,2.1c.5.92.75,2.04.75,3.38ZM90.21,73.44c0,.79.08,1.46.25,1.99s.44.94.8,1.21c.37.27.84.41,1.43.41s1.06-.14,1.42-.41c.36-.27.62-.67.79-1.21.17-.54.25-1.2.25-1.99s-.08-1.45-.25-1.98c-.17-.53-.44-.92-.8-1.19-.37-.26-.84-.4-1.43-.4-.87,0-1.49.3-1.88.89s-.58,1.49-.58,2.67Z"/>
      <path class="cls-5" d="M107.44,67.23c.16,0,.35,0,.57.02s.4.04.53.07l-.24,3.08c-.1-.03-.25-.05-.45-.08-.2-.02-.37-.03-.52-.03-.43,0-.84.05-1.23.17-.4.11-.75.28-1.07.52s-.56.55-.75.94-.27.87-.27,1.44v6.12h-3.28v-12.01h2.49l.48,2.02h.15c.23-.41.53-.78.88-1.12.35-.34.76-.61,1.22-.81.46-.21.96-.31,1.48-.31Z"/>
      <path class="cls-5" d="M113.51,70.22c0,.46-.02.91-.05,1.35-.04.45-.08.9-.12,1.35h.04c.15-.21.3-.41.45-.62.15-.21.31-.41.47-.62.16-.21.33-.4.51-.59l3.37-3.65h3.7l-4.77,5.21,5.06,6.8h-3.78l-3.45-4.86-1.41,1.12v3.74h-3.28v-16.72h3.28v7.48Z"/>
    </g>
    <g>
      <rect class="cls-1" x="43.75" y="90.57" width="62.49" height="13.5" rx="6.75" ry="6.75"/>
      <g>
        <path class="cls-4" d="M54.77,96.25h-1.2c-.03-.2-.1-.37-.19-.52-.09-.15-.21-.28-.34-.39-.14-.11-.29-.19-.46-.24-.17-.05-.36-.08-.56-.08-.36,0-.67.09-.95.27-.28.18-.49.44-.65.78s-.23.76-.23,1.25.08.92.23,1.26c.16.34.37.6.65.77.27.17.59.26.94.26.2,0,.38-.03.55-.08.17-.05.33-.13.46-.23.14-.1.25-.23.35-.38.09-.15.16-.32.2-.51h1.2c-.04.32-.14.61-.29.88-.15.27-.34.51-.58.72-.24.21-.52.37-.84.49-.32.12-.67.17-1.06.17-.58,0-1.09-.13-1.54-.4-.45-.27-.81-.65-1.07-1.15-.26-.5-.39-1.11-.39-1.81s.13-1.31.39-1.81c.26-.5.62-.89,1.07-1.15.45-.27.96-.4,1.53-.4.36,0,.7.05,1.02.15.31.1.59.25.84.45.25.2.45.44.61.72.16.28.26.61.31.97Z"/>
        <path class="cls-4" d="M61.89,97.31c0,.71-.13,1.31-.39,1.81-.26.5-.62.89-1.07,1.15s-.97.4-1.54.4-1.09-.13-1.54-.4c-.45-.27-.81-.65-1.07-1.15-.26-.5-.39-1.1-.39-1.81s.13-1.31.39-1.81c.26-.5.62-.89,1.07-1.15.45-.27.97-.4,1.54-.4s1.09.13,1.54.4c.45.27.81.65,1.07,1.15.26.5.39,1.11.39,1.81ZM60.7,97.31c0-.5-.08-.92-.23-1.26-.15-.34-.37-.6-.64-.78-.27-.18-.59-.26-.94-.26s-.67.09-.94.26-.49.43-.64.78c-.16.34-.23.76-.23,1.26s.08.92.23,1.26c.15.34.37.6.64.78s.59.26.94.26.67-.09.94-.26c.27-.18.49-.43.64-.78s.23-.76.23-1.26Z"/>
        <path class="cls-4" d="M63.2,94.04h1.45l1.94,4.74h.08l1.94-4.74h1.45v6.54h-1.14v-4.5h-.06l-1.81,4.48h-.85l-1.81-4.49h-.06v4.51h-1.14v-6.54Z"/>
        <path class="cls-4" d="M71.53,100.58v-6.54h2.46c.5,0,.92.09,1.27.28.34.19.6.45.78.77.18.33.26.7.26,1.11s-.09.79-.27,1.12-.44.58-.78.77c-.34.19-.77.28-1.28.28h-1.63v-.97h1.47c.29,0,.53-.05.72-.15.19-.1.33-.24.42-.42.09-.18.14-.38.14-.62s-.05-.44-.14-.61c-.09-.18-.23-.31-.42-.41-.19-.1-.43-.15-.73-.15h-1.09v5.55h-1.19Z"/>
        <path class="cls-4" d="M83.11,96.25h-1.2c-.03-.2-.1-.37-.19-.52s-.21-.28-.34-.39c-.14-.11-.29-.19-.47-.24-.17-.05-.36-.08-.56-.08-.36,0-.67.09-.95.27-.27.18-.49.44-.65.78-.16.34-.23.76-.23,1.25s.08.92.24,1.26.37.6.65.77.59.26.94.26c.2,0,.38-.03.55-.08.17-.05.33-.13.46-.23s.25-.23.35-.38c.09-.15.16-.32.2-.51h1.2c-.04.32-.14.61-.29.88-.15.27-.34.51-.58.72-.24.21-.52.37-.84.49-.32.12-.67.17-1.06.17-.58,0-1.09-.13-1.54-.4s-.81-.65-1.07-1.15c-.26-.5-.39-1.11-.39-1.81s.13-1.31.39-1.81c.26-.5.62-.89,1.07-1.15.45-.27.96-.4,1.53-.4.37,0,.7.05,1.02.15.31.1.59.25.84.45.25.2.45.44.61.72.16.28.26.61.31.97Z"/>
        <path class="cls-4" d="M84.38,100.58v-6.54h4.26v.99h-3.07v1.78h2.85v.99h-2.85v1.79h3.1v.99h-4.28Z"/>
        <path class="cls-4" d="M90.03,100.58v-6.54h2.46c.5,0,.92.09,1.27.26.34.17.6.42.78.73s.26.68.26,1.1-.09.78-.27,1.09c-.18.31-.44.55-.78.71s-.77.25-1.27.25h-1.75v-.98h1.59c.29,0,.53-.04.72-.12s.33-.2.42-.36c.09-.16.14-.35.14-.59s-.05-.43-.14-.6-.23-.29-.42-.38-.43-.13-.73-.13h-1.09v5.55h-1.19ZM93.41,97.62l1.62,2.96h-1.32l-1.59-2.96h1.29Z"/>
        <path class="cls-4" d="M95.77,95.03v-.99h5.22v.99h-2.02v5.55h-1.18v-5.55h-2.02Z"/>
      </g>
    </g>
  </g>
</svg>