<?xml version="1.0" encoding="UTF-8"?>
<svg id="Layer_1" xmlns="http://www.w3.org/2000/svg" version="1.1" viewBox="0 0 140 30">
  <!-- Generator: Adobe Illustrator 29.5.1, SVG Export Plug-In . SVG Version: 2.1.0 Build 141)  -->
  <defs>
    <style>
      .st0 {
        fill: #fff;
      }
    </style>
  </defs>
  <path class="st0" d="M107.5.2v20.3c0,1.8,1.6,3.3,3.4,3.3V3.6c0-1.8-1.6-3.3-3.4-3.3Z"/>
  <path class="st0" d="M138.9,21.1s-.1,0-.2,0c0,0,.1.1.4.5h0c-.1.2-.4.1-.5,0-.4-.5-.4-.5-.4-.5h-.4c0-.3.2-.4.3-.4h.2c.1,0,.3,0,.3,0,0,0,0,0,0-.1s0-.2-.4-.2h-.6v1.1c0,.2-.2.3-.4.3h0v-1.6c0-.2.2-.3.3-.3h.7c.8,0,.8.4.8.6s-.1.4-.3.5ZM138.2,19.7c-.8,0-1.4.6-1.4,1.2s.7,1.2,1.4,1.2,1.4-.6,1.4-1.2-.7-1.2-1.4-1.2ZM138.2,22.6c-1,0-1.8-.7-1.8-1.6s.8-1.6,1.8-1.6,1.8.7,1.8,1.6-.8,1.6-1.8,1.6Z"/>
  <path class="st0" d="M20.5,6.6c-1.9-2-4.6-3.3-7.6-3.3C7.7,3.4,3.3,7.2,3.3,12s4.3,8.6,9.6,8.6,4.9-1,6.7-2.5c1.3-1,3.1-1,4.3,0-.9,1.4-2.2,2.7-3.7,3.6-2.2,1.4-4.7,2.1-7.3,2.1C5.8,23.9,0,18.5,0,12S5.8,0,13,0s9.7,2.8,11.8,7.1c-1.3.9-3.1.7-4.2-.5Z"/>
  <path class="st0" d="M103,3.6h-7.3v20.3h-.1c-1.8,0-3.3-1.6-3.3-3.4V3.6h-7.3c-1.9,0-3.3-1.5-3.3-3.4h24.8c0,1.9-1.5,3.4-3.4,3.4Z"/>
  <path class="st0" d="M33.8,10.3c-3.4,0-6,2.2-6,5.1s2.6,5.1,6,5.1,6-2.2,6-5.1-2.7-5.1-6-5.1ZM33.8,23.9c-5.3,0-9.4-3.7-9.4-8.5s4.2-8.5,9.4-8.5,9.4,3.7,9.4,8.5-4.1,8.5-9.4,8.5Z"/>
  <path class="st0" d="M67.5,23.9c-1.9,0-3.4-1.6-3.4-3.5v-7.1c0-1.7-1.5-3-3.3-3s-3.2,1.3-3.2,3v10.5c-1.9,0-3.4-1.5-3.4-3.4v-7.1c0-1.7-1.5-3-3.3-3s-3.3,1.3-3.3,3v7.1c0,1.9-1.5,3.5-3.4,3.5v-10.5c0-3.6,3-6.5,6.7-6.5s3.8.8,5,2.1c1.2-1.3,3-2.1,5-2.1,3.7,0,6.7,2.9,6.7,6.5v10.5Z"/>
  <path class="st0" d="M78.6,23.8c-.9,0-1.8,0-2.5-.2-1.8-.5-2.8-2.4-2.4-4.1,0-.2.1-.4.2-.6h0c1,1,2.5,1.6,4.7,1.6,3.1,0,5.6-2.2,5.6-5s-2.5-5.2-5.6-5.2-5.9,1.6-5.9,5.2v11.1c0,1.9-1.6,3.4-3.4,3.4v-14.4c0-5,3.9-8.7,9.4-8.7s4.6.9,6.3,2.5c1.7,1.6,2.7,3.8,2.7,6.1,0,4.7-4,8.4-9,8.4Z"/>
  <path class="st0" d="M124.7,3.8l-4.9,10.7h9.2l-4.9-10.7h.6ZM132.3,21.7l-1.8-3.9h-12.2l-1.8,4c-.9,1.6-3.1,2.1-4.8,2.1l9.9-21.7c.6-1.2,1.6-2,2.7-2s2.2.7,2.7,2l9.8,21.5c-1.8.2-3.8-.4-4.6-1.9Z"/>
</svg>