<?xml version="1.0" encoding="UTF-8"?>
<svg id="Logos" xmlns="http://www.w3.org/2000/svg" viewBox="0 0 150 150">
  <defs>
    <style>
      .cls-1 {
        fill: #fff;
      }

      .cls-1, .cls-2, .cls-3 {
        stroke-miterlimit: 10;
      }

      .cls-1, .cls-3 {
        stroke: #1e4a00;
        stroke-width: 2px;
      }

      .cls-2 {
        fill: none;
        stroke: #50595e;
        stroke-width: 1.25px;
      }

      .cls-4 {
        fill: #50595e;
      }

      .cls-5 {
        fill: #20282f;
      }

      .cls-3 {
        fill: #1e4a00;
      }

      .cls-6 {
        fill: #c8102e;
      }
    </style>
  </defs>
  <g id="Non-Cert_COMPCERT_Medium_Text" data-name="Non-Cert / COMPCERT / Medium Text">
    <path class="cls-3" d="M75,11.75C38.17,11.75,8.32,41.61,8.32,78.43c0,18.37,7.43,35,19.45,47.06,1.71-1.56,3.5-3.03,5.36-4.42-11.05-10.84-17.91-25.94-17.91-42.64,0-33.01,26.76-59.78,59.78-59.78s59.78,26.76,59.78,59.78c0,16.71-6.86,31.8-17.91,42.64,1.86,1.39,3.65,2.86,5.36,4.42,12.02-12.06,19.45-28.69,19.45-47.06,0-36.83-29.85-66.68-66.68-66.68Z"/>
    <circle class="cls-1" cx="75" cy="78.58" r="59.67"/>
    <g>
      <path class="cls-6" d="M56.5,42.96c-1.79,0-3.2,1.2-3.2,2.72s1.41,2.7,3.2,2.7c1.79,0,3.2-1.18,3.2-2.7s-1.41-2.72-3.2-2.72M56.5,50.21c-2.82,0-5.03-1.98-5.03-4.53,0-2.55,2.21-4.55,5.03-4.55,2.82,0,5.03,2,5.03,4.55,0,2.55-2.21,4.53-5.03,4.53"/>
      <path class="cls-6" d="M74.48,50.21c-1.01,0-1.83-.84-1.83-1.87v-3.77c0-.9-.78-1.62-1.75-1.62-.95,0-1.73.72-1.73,1.62v5.64c-1.01,0-1.83-.82-1.83-1.83v-3.81c0-.9-.78-1.62-1.75-1.62-.95,0-1.74.72-1.74,1.62v3.79c0,1.01-.82,1.85-1.83,1.85v-5.64c0-1.9,1.6-3.45,3.56-3.45,1.06,0,2.02.44,2.66,1.14.65-.71,1.6-1.14,2.65-1.14,1.98,0,3.58,1.54,3.58,3.45v5.64Z"/>
      <path class="cls-6" d="M80.42,50.2c-.48,0-.93-.04-1.35-.13-.95-.27-1.51-1.26-1.26-2.21.04-.11.07-.23.11-.32l.02-.02c.51.57,1.35.86,2.48.86,1.68,0,2.99-1.18,2.99-2.67s-1.31-2.76-2.99-2.76c-1.58,0-3.16.88-3.16,2.8v5.92c0,.99-.84,1.79-1.83,1.79v-7.71c0-2.67,2.1-4.63,4.99-4.63,1.28,0,2.47.48,3.39,1.31.92.86,1.43,2.02,1.43,3.28,0,2.52-2.11,4.49-4.82,4.49"/>
      <path class="cls-6" d="M93.46,39.4h-3.91s0,10.82,0,10.82h-.08c-.97,0-1.75-.84-1.75-1.83v-8.99s-3.91,0-3.91,0c-.99,0-1.79-.82-1.79-1.81h13.26c0,.99-.8,1.81-1.81,1.81"/>
      <path class="cls-6" d="M105.06,39.47l-2.6,5.71h4.9s-2.62-5.73-2.62-5.73l.31.02ZM109.11,49.07l-.97-2.09h-6.49s-.96,2.15-.96,2.15c-.45.86-1.66,1.12-2.58,1.12l5.29-11.61c.3-.67.83-1.05,1.45-1.05.62,0,1.16.38,1.47,1.05l5.23,11.47c-.98.09-2.06-.2-2.44-1.04"/>
      <path class="cls-6" d="M49.42,41c-.99-1.05-2.44-1.73-4.04-1.73-2.84,0-5.14,2.06-5.14,4.59,0,2.53,2.31,4.61,5.14,4.61,1.35,0,2.63-.51,3.6-1.33.67-.55,1.66-.51,2.31.04-.5.76-1.16,1.43-1.98,1.94-1.16.74-2.52,1.12-3.92,1.12-3.83,0-6.93-2.86-6.93-6.38,0-3.52,3.1-6.38,6.93-6.38,2.72,0,5.2,1.49,6.3,3.77-.7.46-1.68.4-2.27-.25"/>
      <path class="cls-6" d="M95.85,37.59v10.85c0,.97.84,1.77,1.83,1.77v-10.85c0-.97-.84-1.77-1.83-1.77"/>
    </g>
    <g>
      <rect class="cls-2" x="43.75" y="90.57" width="62.49" height="13.5" rx="6.75" ry="6.75"/>
      <g>
        <path class="cls-4" d="M54.77,96.25h-1.2c-.03-.2-.1-.37-.19-.52-.09-.15-.21-.28-.34-.39s-.29-.19-.47-.24c-.17-.05-.36-.08-.56-.08-.36,0-.67.09-.95.27s-.49.44-.65.78c-.16.34-.23.76-.23,1.25s.08.92.23,1.26c.16.34.37.6.65.77.27.17.59.26.94.26.2,0,.38-.03.55-.08.17-.05.33-.13.46-.23.14-.1.25-.23.35-.38s.16-.32.2-.51h1.2c-.04.32-.14.61-.29.88-.15.27-.34.51-.58.72-.24.21-.52.37-.84.49-.32.12-.67.17-1.06.17-.58,0-1.09-.13-1.54-.4-.45-.27-.81-.65-1.07-1.15-.26-.5-.39-1.11-.39-1.81s.13-1.31.39-1.81c.26-.5.62-.89,1.07-1.15.45-.27.96-.4,1.53-.4.36,0,.7.05,1.02.15.31.1.59.25.84.45.25.2.45.44.61.72s.26.61.31.97Z"/>
        <path class="cls-4" d="M61.89,97.32c0,.71-.13,1.31-.39,1.81-.26.5-.62.89-1.07,1.15-.45.27-.97.4-1.54.4s-1.09-.13-1.54-.4c-.45-.27-.81-.65-1.07-1.15s-.39-1.1-.39-1.81.13-1.31.39-1.81c.26-.5.62-.89,1.07-1.15.45-.27.97-.4,1.54-.4s1.09.13,1.54.4c.45.27.81.65,1.07,1.15.26.5.39,1.11.39,1.81ZM60.7,97.32c0-.5-.08-.92-.23-1.26-.15-.34-.37-.6-.64-.78s-.59-.26-.94-.26-.67.09-.94.26c-.27.18-.49.43-.64.78-.15.34-.23.76-.23,1.26s.08.92.23,1.26c.15.34.37.6.64.78.27.18.59.26.94.26s.67-.09.94-.26.49-.44.64-.78c.15-.34.23-.76.23-1.26Z"/>
        <path class="cls-4" d="M63.2,94.04h1.45l1.94,4.74h.08l1.94-4.74h1.45v6.55h-1.14v-4.5h-.06l-1.81,4.48h-.85l-1.81-4.49h-.06v4.51h-1.14v-6.55Z"/>
        <path class="cls-4" d="M71.53,100.59v-6.55h2.45c.5,0,.93.09,1.27.28.34.19.6.45.78.77s.26.7.26,1.11-.09.79-.27,1.12c-.18.33-.44.58-.78.77s-.77.28-1.28.28h-1.63v-.97h1.47c.29,0,.53-.05.72-.15.19-.1.33-.24.42-.42.09-.18.14-.38.14-.62s-.05-.44-.14-.61c-.09-.18-.23-.32-.42-.41-.19-.1-.43-.15-.73-.15h-1.09v5.55h-1.19Z"/>
        <path class="cls-4" d="M83.11,96.25h-1.2c-.03-.2-.1-.37-.19-.52-.09-.15-.21-.28-.34-.39s-.29-.19-.47-.24c-.17-.05-.36-.08-.56-.08-.36,0-.67.09-.95.27s-.49.44-.65.78c-.16.34-.23.76-.23,1.25s.08.92.23,1.26c.16.34.37.6.65.77.27.17.59.26.94.26.2,0,.38-.03.55-.08.17-.05.33-.13.46-.23.14-.1.25-.23.35-.38s.16-.32.2-.51h1.2c-.04.32-.14.61-.29.88-.15.27-.34.51-.58.72-.24.21-.52.37-.84.49-.32.12-.67.17-1.06.17-.58,0-1.09-.13-1.54-.4-.45-.27-.81-.65-1.07-1.15-.26-.5-.39-1.11-.39-1.81s.13-1.31.39-1.81c.26-.5.62-.89,1.07-1.15.45-.27.96-.4,1.53-.4.36,0,.7.05,1.02.15.31.1.59.25.84.45.25.2.45.44.61.72s.26.61.31.97Z"/>
        <path class="cls-4" d="M84.38,100.59v-6.55h4.26v.99h-3.07v1.78h2.85v.99h-2.85v1.79h3.1v.99h-4.28Z"/>
        <path class="cls-4" d="M90.03,100.59v-6.55h2.45c.5,0,.93.09,1.27.26.34.17.6.42.78.73s.26.68.26,1.1-.09.78-.27,1.09c-.18.31-.44.55-.78.71-.34.17-.77.25-1.27.25h-1.75v-.98h1.59c.29,0,.53-.04.72-.12s.33-.2.42-.36c.09-.16.14-.35.14-.59s-.05-.43-.14-.6c-.09-.17-.23-.29-.42-.38-.19-.09-.43-.13-.73-.13h-1.09v5.55h-1.19ZM93.41,97.62l1.62,2.97h-1.32l-1.59-2.97h1.29Z"/>
        <path class="cls-4" d="M95.77,95.04v-.99h5.22v.99h-2.02v5.55h-1.18v-5.55h-2.02Z"/>
      </g>
    </g>
    <g>
      <path class="cls-4" d="M51.05,119.83v-7.27h4.73v1.1h-3.41v1.97h3.17v1.1h-3.17v1.99h3.44v1.1h-4.76Z"/>
      <path class="cls-4" d="M61.38,115.81l-1.17.13c-.03-.12-.09-.23-.17-.33-.08-.1-.19-.19-.33-.25-.14-.06-.31-.1-.5-.1-.27,0-.49.06-.67.17-.18.12-.27.27-.27.45,0,.16.06.29.18.39s.32.18.6.25l.93.2c.52.11.9.29,1.15.53s.38.56.38.95c0,.34-.1.65-.3.91s-.47.47-.82.61c-.35.15-.75.22-1.21.22-.67,0-1.21-.14-1.61-.42s-.65-.67-.73-1.17l1.25-.12c.06.25.18.43.36.56.18.13.43.19.72.19s.55-.06.74-.19c.19-.12.28-.28.28-.46,0-.16-.06-.29-.18-.39-.12-.1-.3-.18-.56-.23l-.93-.2c-.52-.11-.91-.29-1.16-.55-.25-.26-.38-.59-.37-.99,0-.34.09-.63.28-.88.19-.25.44-.44.78-.58.33-.14.72-.2,1.15-.2.64,0,1.14.14,1.51.41s.6.64.68,1.1Z"/>
      <path class="cls-4" d="M66.87,115.81l-1.17.13c-.03-.12-.09-.23-.17-.33-.08-.1-.19-.19-.33-.25-.14-.06-.31-.1-.5-.1-.27,0-.49.06-.67.17-.18.12-.27.27-.27.45,0,.16.06.29.18.39s.32.18.6.25l.93.2c.52.11.9.29,1.15.53s.38.56.38.95c0,.34-.1.65-.3.91s-.47.47-.82.61c-.35.15-.75.22-1.21.22-.67,0-1.21-.14-1.61-.42s-.65-.67-.73-1.17l1.25-.12c.06.25.18.43.36.56.18.13.43.19.72.19s.55-.06.74-.19c.19-.12.28-.28.28-.46,0-.16-.06-.29-.18-.39-.12-.1-.3-.18-.56-.23l-.93-.2c-.52-.11-.91-.29-1.16-.55-.25-.26-.38-.59-.37-.99,0-.34.09-.63.28-.88.19-.25.44-.44.78-.58.33-.14.72-.2,1.15-.2.64,0,1.14.14,1.51.41s.6.64.68,1.1Z"/>
      <path class="cls-4" d="M70.47,119.93c-.55,0-1.02-.11-1.42-.34s-.7-.55-.91-.97c-.21-.42-.32-.92-.32-1.49s.11-1.05.32-1.48.51-.76.9-.99c.39-.24.84-.36,1.36-.36.34,0,.65.05.95.16.3.11.56.27.8.5s.41.51.54.86c.13.35.2.76.2,1.24v.39h-4.47v-.87h3.24c0-.25-.06-.47-.16-.66-.1-.19-.25-.34-.44-.46-.19-.11-.4-.17-.65-.17-.26,0-.49.06-.69.19-.2.13-.35.29-.46.5-.11.2-.17.43-.17.67v.76c0,.32.06.59.17.82.12.23.28.4.49.52.21.12.45.18.73.18.19,0,.36-.03.51-.08.15-.05.28-.13.39-.24.11-.1.2-.23.25-.39l1.2.14c-.08.32-.22.59-.43.83-.21.24-.48.42-.81.55s-.71.19-1.13.19Z"/>
      <path class="cls-4" d="M75.26,116.63v3.2h-1.29v-5.46h1.23v.93h.06c.13-.3.33-.55.6-.73s.62-.27,1.02-.27c.38,0,.71.08.99.24.28.16.5.39.65.7.16.31.23.68.23,1.11v3.47h-1.29v-3.27c0-.36-.09-.65-.28-.86-.19-.21-.45-.31-.78-.31-.23,0-.42.05-.6.15-.17.1-.31.24-.41.42s-.15.41-.15.67Z"/>
      <path class="cls-4" d="M82.8,114.37v.99h-3.14v-.99h3.14ZM80.44,113.07h1.29v5.12c0,.17.03.3.08.4.05.09.12.15.21.19.09.03.18.05.29.05.08,0,.15,0,.22-.02.07-.01.12-.02.15-.03l.22,1c-.07.02-.17.05-.29.08-.13.03-.28.04-.46.05-.32,0-.61-.04-.87-.15-.26-.11-.46-.28-.61-.5-.15-.23-.22-.51-.22-.85v-5.33Z"/>
      <path class="cls-4" d="M84.52,113.6c-.2,0-.38-.07-.53-.21-.15-.14-.22-.3-.22-.49s.07-.36.22-.5c.15-.14.32-.21.53-.21s.38.07.53.21c.15.14.22.3.22.5s-.07.36-.22.49c-.15.14-.32.21-.53.21ZM83.88,119.83v-5.46h1.29v5.46h-1.29Z"/>
      <path class="cls-4" d="M88.05,119.94c-.35,0-.66-.06-.93-.19-.28-.12-.49-.31-.65-.55s-.24-.54-.24-.9c0-.31.06-.56.17-.76s.27-.36.47-.48c.2-.12.42-.21.67-.28.25-.06.5-.11.77-.14.32-.03.58-.06.78-.09.2-.03.34-.07.44-.13.09-.06.14-.15.14-.27v-.02c0-.27-.08-.47-.24-.62-.16-.15-.39-.22-.69-.22-.31,0-.56.07-.75.21-.18.14-.31.3-.37.49l-1.2-.17c.09-.33.25-.61.47-.83s.48-.39.8-.5.66-.17,1.04-.17c.26,0,.52.03.79.09.26.06.5.16.71.3.22.14.39.33.52.57.13.24.2.54.2.91v3.65h-1.24v-.75h-.04c-.08.15-.19.29-.33.42-.14.13-.32.24-.53.32-.21.08-.46.12-.74.12ZM88.39,118.99c.26,0,.48-.05.67-.15.19-.1.34-.24.44-.41s.15-.36.15-.56v-.64s-.11.06-.2.09c-.1.03-.2.05-.32.08-.12.02-.24.04-.35.06-.12.02-.22.03-.3.04-.19.03-.36.07-.51.13-.15.06-.27.14-.36.25-.09.11-.13.24-.13.41,0,.24.09.42.26.54.17.12.39.18.66.18Z"/>
      <path class="cls-4" d="M93.51,112.55v7.27h-1.29v-7.27h1.29Z"/>
      <path class="cls-4" d="M99.15,115.81l-1.17.13c-.03-.12-.09-.23-.17-.33-.08-.1-.19-.19-.33-.25-.14-.06-.31-.1-.5-.1-.27,0-.49.06-.67.17-.18.12-.27.27-.27.45,0,.16.06.29.18.39s.32.18.59.25l.93.2c.52.11.9.29,1.15.53s.38.56.38.95c0,.34-.1.65-.3.91-.2.26-.47.47-.82.61-.35.15-.75.22-1.21.22-.67,0-1.2-.14-1.61-.42s-.65-.67-.73-1.17l1.25-.12c.06.25.18.43.36.56.18.13.42.19.72.19s.55-.06.74-.19c.19-.12.28-.28.28-.46,0-.16-.06-.29-.18-.39-.12-.1-.3-.18-.56-.23l-.93-.2c-.52-.11-.91-.29-1.16-.55-.25-.26-.38-.59-.37-.99,0-.34.09-.63.28-.88.19-.25.44-.44.78-.58.33-.14.72-.2,1.15-.2.64,0,1.14.14,1.51.41s.6.64.68,1.1Z"/>
      <path class="cls-4" d="M64.47,124.55c-.03-.31-.17-.55-.42-.72s-.56-.26-.95-.26c-.27,0-.51.04-.71.12s-.35.2-.45.34c-.1.14-.16.3-.16.49,0,.15.04.28.1.39s.17.21.29.28.25.14.4.19c.15.05.29.1.44.13l.68.17c.27.06.54.15.79.26.25.11.48.25.69.41.2.17.36.37.48.6s.18.51.18.82c0,.43-.11.8-.33,1.12-.22.32-.53.58-.94.76-.41.18-.91.27-1.49.27s-1.06-.09-1.47-.26c-.42-.17-.74-.43-.97-.77-.23-.34-.36-.75-.38-1.23h1.3c.02.25.1.46.23.63.14.17.32.29.54.38.22.08.47.12.74.12s.54-.04.75-.13c.22-.09.39-.21.51-.36s.19-.34.19-.54c0-.19-.06-.35-.17-.47s-.26-.23-.46-.31-.42-.16-.68-.23l-.83-.21c-.6-.15-1.07-.39-1.42-.7s-.52-.73-.52-1.25c0-.43.12-.8.35-1.13.23-.32.55-.57.95-.75.4-.18.86-.27,1.37-.27s.97.09,1.36.27c.39.18.7.43.92.74.22.32.34.68.34,1.09h-1.27Z"/>
      <path class="cls-4" d="M69.36,129.93c-.55,0-1.02-.11-1.42-.34s-.7-.55-.91-.97c-.21-.42-.32-.92-.32-1.49s.11-1.05.32-1.48.51-.76.9-.99c.39-.24.84-.36,1.36-.36.34,0,.65.05.95.16.3.11.56.27.8.5s.41.51.54.86c.13.35.2.76.2,1.24v.39h-4.47v-.87h3.24c0-.25-.06-.47-.16-.66-.1-.19-.25-.34-.44-.46-.19-.11-.4-.17-.65-.17-.26,0-.49.06-.69.19-.2.13-.35.29-.46.5-.11.2-.17.43-.17.67v.76c0,.32.06.59.17.82.12.23.28.4.49.52.21.12.45.18.73.18.19,0,.36-.03.51-.08.15-.05.28-.13.39-.24.11-.1.2-.23.25-.39l1.2.14c-.08.32-.22.59-.43.83-.21.24-.48.42-.81.55s-.71.19-1.13.19Z"/>
      <path class="cls-4" d="M72.87,129.83v-5.46h1.25v.91h.06c.1-.31.27-.56.51-.73s.52-.26.83-.26c.07,0,.15,0,.24,0s.16.02.22.03v1.18c-.05-.02-.14-.04-.26-.05s-.23-.02-.34-.02c-.23,0-.44.05-.63.15-.19.1-.33.24-.44.42s-.16.38-.16.61v3.21h-1.29Z"/>
      <path class="cls-4" d="M77.49,123.6c-.2,0-.38-.07-.53-.21-.15-.14-.22-.3-.22-.49s.07-.36.22-.5c.15-.14.32-.21.53-.21s.38.07.53.21c.15.14.22.3.22.5s-.07.36-.22.49c-.15.14-.32.21-.53.21ZM76.84,129.83v-5.46h1.29v5.46h-1.29Z"/>
      <path class="cls-4" d="M81.86,129.93c-.55,0-1.02-.11-1.42-.34s-.7-.55-.91-.97c-.21-.42-.32-.92-.32-1.49s.11-1.05.32-1.48.51-.76.9-.99c.39-.24.84-.36,1.36-.36.34,0,.65.05.95.16.3.11.56.27.8.5s.41.51.54.86c.13.35.2.76.2,1.24v.39h-4.47v-.87h3.24c0-.25-.06-.47-.16-.66-.1-.19-.25-.34-.44-.46-.19-.11-.4-.17-.65-.17-.26,0-.49.06-.69.19-.2.13-.35.29-.46.5-.11.2-.17.43-.17.67v.76c0,.32.06.59.17.82.12.23.28.4.49.52.21.12.45.18.73.18.19,0,.36-.03.51-.08.15-.05.28-.13.39-.24.11-.1.2-.23.25-.39l1.2.14c-.08.32-.22.59-.43.83-.21.24-.48.42-.81.55s-.71.19-1.13.19Z"/>
      <path class="cls-4" d="M89.69,125.81l-1.17.13c-.03-.12-.09-.23-.17-.33-.08-.1-.19-.19-.33-.25-.14-.06-.31-.1-.5-.1-.27,0-.49.06-.67.17-.18.12-.27.27-.27.45,0,.16.06.29.18.39s.32.18.6.25l.93.2c.52.11.9.29,1.15.53s.38.56.38.95c0,.34-.1.65-.3.91s-.47.47-.82.61c-.35.15-.75.22-1.21.22-.67,0-1.21-.14-1.61-.42s-.65-.67-.73-1.17l1.25-.12c.06.25.18.43.36.56.18.13.43.19.72.19s.55-.06.74-.19c.19-.12.28-.28.28-.46,0-.16-.06-.29-.18-.39-.12-.1-.3-.18-.56-.23l-.93-.2c-.52-.11-.91-.29-1.16-.55-.25-.26-.38-.59-.37-.99,0-.34.09-.63.28-.88.19-.25.44-.44.78-.58.33-.14.72-.2,1.15-.2.64,0,1.14.14,1.51.41s.6.64.68,1.1Z"/>
    </g>
    <g>
      <path class="cls-5" d="M36.58,63.76c2.1,0,3.68.29,4.75.88,1.07.59,1.61,1.62,1.61,3.1,0,.59-.1,1.12-.29,1.61s-.46.88-.82,1.19c-.36.31-.8.51-1.31.59v.11c.53.1,1,.29,1.43.55.42.26.76.65,1.01,1.14.25.5.37,1.16.37,1.98,0,.95-.23,1.77-.69,2.45s-1.13,1.2-1.99,1.56c-.87.36-1.89.54-3.08.54h-5.87v-15.71h4.88ZM36.95,69.98c.97,0,1.64-.15,2.01-.46.37-.31.56-.76.56-1.34s-.22-1.03-.66-1.3c-.44-.26-1.14-.4-2.09-.4h-1.76v3.5h1.94ZM35.01,72.62v4.09h2.18c1,0,1.69-.19,2.09-.58.4-.39.59-.91.59-1.55,0-.4-.08-.74-.25-1.03-.17-.29-.46-.52-.87-.68-.41-.16-.97-.24-1.67-.24h-2.07Z"/>
      <path class="cls-5" d="M56.36,67.45v12.01h-2.51l-.44-1.54h-.18c-.25.41-.57.74-.96,1-.39.26-.82.45-1.29.57-.47.12-.95.19-1.45.19-.85,0-1.6-.15-2.24-.46-.65-.31-1.14-.78-1.5-1.43-.35-.65-.53-1.48-.53-2.51v-7.83h3.28v7.02c0,.85.15,1.5.46,1.94.31.44.8.66,1.47.66s1.2-.15,1.57-.46c.37-.31.64-.76.79-1.34.15-.59.23-1.31.23-2.16v-5.65h3.28Z"/>
      <path class="cls-5" d="M67.29,75.9c0,.81-.19,1.49-.57,2.06-.38.56-.95.99-1.72,1.29-.76.29-1.71.44-2.84.44-.84,0-1.55-.06-2.16-.17-.6-.11-1.2-.29-1.8-.54v-2.71c.65.29,1.34.54,2.09.73s1.41.29,1.98.29c.65,0,1.1-.1,1.38-.29s.41-.44.41-.75c0-.21-.06-.39-.17-.55-.11-.16-.35-.34-.71-.55-.37-.21-.94-.47-1.72-.79-.75-.32-1.36-.64-1.85-.96-.48-.31-.84-.7-1.08-1.14-.23-.45-.35-1.01-.35-1.68,0-1.11.43-1.95,1.3-2.51.87-.56,2.02-.84,3.45-.84.75,0,1.46.07,2.13.22.67.15,1.37.39,2.09.73l-.99,2.35c-.59-.25-1.14-.46-1.67-.63-.53-.17-1.06-.25-1.61-.25-.48,0-.85.07-1.09.2-.24.13-.36.33-.36.59,0,.19.06.36.19.52.12.15.37.32.73.5.36.18.89.41,1.59.7.69.28,1.28.57,1.78.87.5.3.88.67,1.16,1.12.27.45.41,1.03.41,1.75Z"/>
      <path class="cls-5" d="M70.83,62.75c.48,0,.9.11,1.25.34.35.23.53.65.53,1.27s-.18,1.02-.53,1.25c-.35.23-.77.35-1.25.35s-.92-.12-1.27-.35c-.34-.23-.52-.65-.52-1.25s.17-1.04.52-1.27.77-.34,1.27-.34ZM72.46,67.45v12.01h-3.28v-12.01h3.28Z"/>
      <path class="cls-5" d="M81.83,67.23c1.29,0,2.32.35,3.1,1.04.78.7,1.17,1.81,1.17,3.35v7.83h-3.28v-7.02c0-.87-.15-1.51-.46-1.95-.31-.43-.8-.65-1.47-.65-1,0-1.68.34-2.05,1.02-.37.68-.55,1.66-.55,2.94v5.65h-3.28v-12.01h2.51l.44,1.54h.18c.26-.41.59-.74.97-1,.38-.26.81-.45,1.28-.57.47-.12.95-.19,1.45-.19Z"/>
      <path class="cls-5" d="M93.54,67.23c1.11,0,2.07.21,2.87.64.8.43,1.42,1.04,1.86,1.85.44.81.66,1.8.66,2.97v1.58h-7.74c.03.92.3,1.65.83,2.18.52.53,1.24.79,2.17.79.78,0,1.48-.08,2.11-.23.63-.15,1.28-.39,1.96-.71v2.53c-.59.29-1.21.51-1.86.65-.65.14-1.44.21-2.36.21-1.2,0-2.27-.22-3.19-.67-.92-.45-1.65-1.13-2.18-2.03-.53-.91-.79-2.05-.79-3.43s.24-2.58.71-3.51c.48-.93,1.14-1.63,1.99-2.1s1.84-.7,2.97-.7ZM93.56,69.57c-.63,0-1.16.21-1.57.62-.42.41-.66,1.05-.74,1.91h4.6c0-.48-.08-.92-.25-1.3-.17-.38-.42-.68-.76-.9-.34-.22-.76-.33-1.28-.33Z"/>
      <path class="cls-5" d="M109.48,75.9c0,.81-.19,1.49-.57,2.06-.38.56-.95.99-1.72,1.29-.76.29-1.71.44-2.84.44-.84,0-1.55-.06-2.16-.17-.6-.11-1.2-.29-1.8-.54v-2.71c.65.29,1.34.54,2.09.73s1.41.29,1.98.29c.65,0,1.1-.1,1.38-.29s.41-.44.41-.75c0-.21-.06-.39-.17-.55-.11-.16-.35-.34-.71-.55-.37-.21-.94-.47-1.72-.79-.75-.32-1.36-.64-1.85-.96-.48-.31-.84-.7-1.08-1.14-.23-.45-.35-1.01-.35-1.68,0-1.11.43-1.95,1.3-2.51.87-.56,2.02-.84,3.45-.84.75,0,1.46.07,2.13.22.67.15,1.37.39,2.09.73l-.99,2.35c-.59-.25-1.14-.46-1.67-.63-.53-.17-1.06-.25-1.61-.25-.48,0-.85.07-1.09.2-.24.13-.36.33-.36.59,0,.19.06.36.19.52.12.15.37.32.73.5.36.18.89.41,1.59.7.69.28,1.28.57,1.78.87.5.3.88.67,1.16,1.12.27.45.41,1.03.41,1.75Z"/>
      <path class="cls-5" d="M119.93,75.9c0,.81-.19,1.49-.57,2.06-.38.56-.95.99-1.72,1.29-.76.29-1.71.44-2.84.44-.84,0-1.55-.06-2.16-.17-.6-.11-1.2-.29-1.8-.54v-2.71c.65.29,1.34.54,2.09.73s1.41.29,1.98.29c.65,0,1.1-.1,1.38-.29s.41-.44.41-.75c0-.21-.06-.39-.17-.55-.11-.16-.35-.34-.71-.55-.37-.21-.94-.47-1.72-.79-.75-.32-1.36-.64-1.85-.96-.48-.31-.84-.7-1.08-1.14-.23-.45-.35-1.01-.35-1.68,0-1.11.43-1.95,1.3-2.51.87-.56,2.02-.84,3.45-.84.75,0,1.46.07,2.13.22.67.15,1.37.39,2.09.73l-.99,2.35c-.59-.25-1.14-.46-1.67-.63-.53-.17-1.06-.25-1.61-.25-.48,0-.85.07-1.09.2-.24.13-.36.33-.36.59,0,.19.06.36.19.52.12.15.37.32.73.5.36.18.89.41,1.59.7.69.28,1.28.57,1.78.87.5.3.88.67,1.16,1.12.27.45.41,1.03.41,1.75Z"/>
    </g>
  </g>
</svg>