<?xml version="1.0" encoding="UTF-8"?>
<svg id="Logos" xmlns="http://www.w3.org/2000/svg" viewBox="0 0 150 150">
  <defs>
    <style>
      .cls-1 {
        fill: #fff;
      }

      .cls-1, .cls-2, .cls-3 {
        stroke-miterlimit: 10;
      }

      .cls-1, .cls-3 {
        stroke: #1e4a00;
        stroke-width: 2px;
      }

      .cls-2 {
        fill: none;
        stroke: #50595e;
        stroke-width: 1.25px;
      }

      .cls-4 {
        fill: #50595e;
      }

      .cls-5 {
        fill: #20282f;
      }

      .cls-3 {
        fill: #1e4a00;
      }

      .cls-6 {
        fill: #c8102e;
      }
    </style>
  </defs>
  <g id="Non-Cert_COMPCERT_Medium_Text" data-name="Non-Cert / COMPCERT / Medium Text">
    <path class="cls-3" d="M75,11.75C38.17,11.75,8.32,41.61,8.32,78.43c0,18.37,7.43,35,19.45,47.06,1.71-1.56,3.5-3.03,5.36-4.42-11.05-10.84-17.91-25.94-17.91-42.64,0-33.01,26.76-59.78,59.78-59.78s59.78,26.76,59.78,59.78c0,16.71-6.86,31.8-17.91,42.64,1.86,1.39,3.65,2.86,5.36,4.42,12.02-12.06,19.45-28.69,19.45-47.06,0-36.83-29.85-66.68-66.68-66.68Z"/>
    <circle class="cls-1" cx="75" cy="78.58" r="59.67"/>
    <g>
      <path class="cls-6" d="M56.5,42.96c-1.79,0-3.2,1.2-3.2,2.72s1.41,2.7,3.2,2.7c1.79,0,3.2-1.18,3.2-2.7,0-1.52-1.41-2.72-3.2-2.72M56.5,50.21c-2.82,0-5.03-1.98-5.03-4.53,0-2.55,2.21-4.55,5.03-4.55,2.82,0,5.03,2,5.03,4.55s-2.21,4.53-5.03,4.53"/>
      <path class="cls-6" d="M74.48,50.21c-1.01,0-1.83-.84-1.83-1.87v-3.77c0-.9-.78-1.62-1.75-1.62-.95,0-1.73.72-1.73,1.62v5.64c-1.01,0-1.83-.82-1.83-1.83v-3.81c0-.9-.78-1.62-1.75-1.62-.95,0-1.74.72-1.74,1.62v3.79c0,1.01-.82,1.85-1.83,1.85v-5.64c0-1.9,1.6-3.45,3.56-3.45,1.06,0,2.02.44,2.66,1.14.65-.71,1.6-1.14,2.65-1.14,1.98,0,3.58,1.54,3.58,3.45v5.64Z"/>
      <path class="cls-6" d="M80.42,50.2c-.48,0-.93-.04-1.35-.13-.95-.27-1.51-1.26-1.26-2.21.04-.11.07-.23.11-.32l.02-.02c.51.57,1.35.86,2.48.86,1.68,0,2.99-1.18,2.99-2.67s-1.31-2.76-2.99-2.76c-1.58,0-3.16.88-3.16,2.8v5.92c0,.99-.84,1.79-1.83,1.79v-7.71c0-2.67,2.1-4.63,4.99-4.63,1.28,0,2.47.48,3.39,1.31.92.86,1.43,2.02,1.43,3.28,0,2.52-2.11,4.49-4.82,4.49"/>
      <path class="cls-6" d="M93.46,39.4h-3.91s0,10.82,0,10.82h-.08c-.97,0-1.75-.84-1.75-1.83v-8.99s-3.91,0-3.91,0c-.99,0-1.79-.82-1.79-1.81h13.26c0,.99-.8,1.81-1.81,1.81"/>
      <path class="cls-6" d="M105.06,39.47l-2.6,5.71h4.9s-2.62-5.73-2.62-5.73l.31.02ZM109.11,49.07l-.97-2.09h-6.49s-.96,2.15-.96,2.15c-.45.86-1.66,1.12-2.58,1.12l5.29-11.61c.3-.67.83-1.05,1.45-1.05.62,0,1.16.38,1.47,1.05l5.23,11.47c-.98.09-2.06-.2-2.44-1.04"/>
      <path class="cls-6" d="M49.42,41c-.99-1.05-2.44-1.73-4.04-1.73-2.84,0-5.14,2.06-5.14,4.59,0,2.53,2.31,4.61,5.14,4.61,1.35,0,2.63-.51,3.6-1.33.67-.55,1.66-.51,2.31.04-.5.76-1.16,1.43-1.98,1.94-1.16.74-2.52,1.12-3.92,1.12-3.83,0-6.93-2.86-6.93-6.38,0-3.52,3.1-6.38,6.93-6.38,2.72,0,5.2,1.49,6.3,3.77-.7.46-1.68.4-2.27-.25"/>
      <path class="cls-6" d="M95.85,37.59v10.85c0,.97.84,1.77,1.83,1.77v-10.85c0-.97-.84-1.77-1.83-1.77"/>
    </g>
    <g>
      <rect class="cls-2" x="43.75" y="90.57" width="62.49" height="13.5" rx="6.75" ry="6.75"/>
      <g>
        <path class="cls-4" d="M54.77,96.25h-1.2c-.03-.2-.1-.37-.19-.52s-.21-.28-.34-.39c-.14-.11-.29-.19-.47-.24-.17-.05-.36-.08-.56-.08-.36,0-.67.09-.95.27-.27.18-.49.44-.65.78-.16.34-.23.76-.23,1.25s.08.92.24,1.26.37.6.65.77.59.26.94.26c.2,0,.38-.03.55-.08.17-.05.33-.13.46-.23.14-.1.25-.23.35-.38s.16-.32.2-.51h1.2c-.04.32-.14.61-.29.88-.15.27-.34.51-.58.72-.24.21-.52.37-.84.49-.32.12-.67.17-1.06.17-.58,0-1.09-.13-1.54-.4-.45-.27-.81-.65-1.07-1.15s-.39-1.11-.39-1.81.13-1.31.39-1.81c.26-.5.62-.89,1.07-1.15.45-.27.96-.4,1.53-.4.37,0,.7.05,1.02.15.31.1.59.25.84.45s.45.44.61.72c.16.28.26.61.31.97Z"/>
        <path class="cls-4" d="M61.89,97.31c0,.71-.13,1.31-.39,1.81-.26.5-.62.89-1.07,1.15-.45.27-.97.4-1.54.4s-1.09-.13-1.54-.4-.81-.65-1.07-1.15c-.26-.5-.39-1.1-.39-1.81s.13-1.31.39-1.81c.26-.5.62-.89,1.07-1.15.45-.27.97-.4,1.54-.4s1.09.13,1.54.4c.45.27.81.65,1.07,1.15.26.5.39,1.11.39,1.81ZM60.7,97.31c0-.5-.08-.92-.23-1.26-.15-.34-.37-.6-.64-.78-.27-.18-.59-.26-.94-.26s-.67.09-.94.26c-.27.18-.49.44-.64.78s-.23.76-.23,1.26.08.92.23,1.26.37.6.64.78c.27.18.59.26.94.26s.67-.09.94-.26c.27-.18.49-.43.64-.78.16-.34.23-.76.23-1.26Z"/>
        <path class="cls-4" d="M63.2,94.04h1.45l1.94,4.74h.08l1.94-4.74h1.45v6.55h-1.14v-4.5h-.06l-1.81,4.48h-.85l-1.81-4.49h-.06v4.51h-1.14v-6.55Z"/>
        <path class="cls-4" d="M71.53,100.59v-6.55h2.45c.5,0,.93.09,1.27.28s.6.45.78.77.26.7.26,1.11-.09.79-.26,1.12c-.18.33-.44.58-.78.77-.35.19-.77.28-1.28.28h-1.63v-.97h1.47c.29,0,.54-.05.72-.15s.33-.24.42-.42.14-.38.14-.62-.04-.44-.14-.61-.23-.32-.42-.41-.43-.15-.73-.15h-1.09v5.55h-1.19Z"/>
        <path class="cls-4" d="M83.11,96.25h-1.2c-.03-.2-.1-.37-.19-.52-.09-.15-.21-.28-.34-.39-.14-.11-.29-.19-.46-.24s-.36-.08-.56-.08c-.36,0-.67.09-.95.27-.28.18-.49.44-.65.78s-.23.76-.23,1.25.08.92.23,1.26c.16.34.37.6.65.77.27.17.59.26.94.26.2,0,.38-.03.55-.08.17-.05.33-.13.46-.23.14-.1.25-.23.35-.38s.16-.32.2-.51h1.2c-.04.32-.14.61-.29.88-.15.27-.34.51-.58.72-.24.21-.52.37-.84.49-.32.12-.67.17-1.06.17-.58,0-1.09-.13-1.54-.4-.45-.27-.81-.65-1.07-1.15-.26-.5-.39-1.11-.39-1.81s.13-1.31.39-1.81c.26-.5.62-.89,1.07-1.15.45-.27.96-.4,1.53-.4.36,0,.7.05,1.02.15.31.1.59.25.84.45s.45.44.61.72c.16.28.26.61.31.97Z"/>
        <path class="cls-4" d="M84.38,100.59v-6.55h4.26v.99h-3.07v1.78h2.85v.99h-2.85v1.79h3.1v.99h-4.28Z"/>
        <path class="cls-4" d="M90.03,100.59v-6.55h2.45c.5,0,.93.09,1.27.26s.6.42.78.73.26.68.26,1.1-.09.78-.27,1.09c-.18.31-.44.54-.79.71-.34.17-.77.25-1.27.25h-1.75v-.98h1.59c.29,0,.54-.04.72-.12s.33-.2.42-.36c.09-.16.14-.35.14-.59s-.05-.43-.14-.6c-.09-.17-.23-.29-.42-.38-.19-.09-.43-.13-.73-.13h-1.09v5.55h-1.19ZM93.41,97.62l1.62,2.97h-1.32l-1.59-2.97h1.29Z"/>
        <path class="cls-4" d="M95.77,95.04v-.99h5.22v.99h-2.02v5.55h-1.18v-5.55h-2.02Z"/>
      </g>
    </g>
    <g>
      <path class="cls-4" d="M51.05,119.83v-7.27h4.73v1.1h-3.41v1.97h3.17v1.1h-3.17v1.98h3.44v1.1h-4.76Z"/>
      <path class="cls-4" d="M61.38,115.81l-1.17.13c-.03-.12-.09-.23-.17-.33-.08-.1-.19-.19-.33-.25-.14-.06-.3-.1-.5-.1-.27,0-.49.06-.67.17s-.27.27-.27.45c0,.16.06.29.18.39.12.1.32.18.6.25l.93.2c.52.11.9.29,1.15.53.25.24.38.56.38.95,0,.34-.1.65-.3.91-.2.26-.47.47-.82.61s-.75.22-1.21.22c-.67,0-1.21-.14-1.61-.42-.41-.28-.65-.67-.73-1.17l1.25-.12c.06.25.18.43.36.56.18.12.42.19.72.19s.55-.06.74-.19c.19-.13.28-.28.28-.46,0-.16-.06-.29-.18-.39-.12-.1-.3-.18-.56-.23l-.93-.2c-.52-.11-.91-.29-1.16-.55-.25-.26-.38-.59-.37-.99,0-.34.09-.63.28-.88.19-.25.44-.44.78-.58.33-.14.72-.2,1.15-.2.64,0,1.14.14,1.51.41s.6.64.68,1.1Z"/>
      <path class="cls-4" d="M66.87,115.81l-1.17.13c-.03-.12-.09-.23-.17-.33-.08-.1-.19-.19-.33-.25-.14-.06-.3-.1-.5-.1-.27,0-.49.06-.67.17s-.27.27-.27.45c0,.16.06.29.18.39.12.1.32.18.6.25l.93.2c.52.11.9.29,1.15.53.25.24.38.56.38.95,0,.34-.1.65-.3.91-.2.26-.47.47-.82.61s-.75.22-1.21.22c-.67,0-1.21-.14-1.61-.42-.41-.28-.65-.67-.73-1.17l1.25-.12c.06.25.18.43.36.56.18.12.42.19.72.19s.55-.06.74-.19c.19-.13.28-.28.28-.46,0-.16-.06-.29-.18-.39-.12-.1-.3-.18-.56-.23l-.93-.2c-.52-.11-.91-.29-1.16-.55-.25-.26-.38-.59-.37-.99,0-.34.09-.63.28-.88.19-.25.44-.44.78-.58.33-.14.72-.2,1.15-.2.64,0,1.14.14,1.51.41s.6.64.68,1.1Z"/>
      <path class="cls-4" d="M70.47,119.93c-.55,0-1.02-.11-1.42-.34-.4-.23-.7-.55-.92-.97-.21-.42-.32-.92-.32-1.49s.11-1.05.32-1.48c.21-.42.51-.76.9-.99.39-.24.84-.36,1.36-.36.34,0,.65.05.95.16.3.11.56.27.8.5.23.23.41.51.54.86.13.35.2.76.2,1.24v.39h-4.47v-.87h3.24c0-.25-.06-.47-.16-.66-.1-.19-.25-.35-.43-.46-.19-.11-.4-.17-.65-.17-.26,0-.49.06-.69.19-.2.13-.35.29-.46.5-.11.21-.17.43-.17.67v.76c0,.32.06.59.17.81.12.23.28.4.49.52.21.12.45.18.73.18.19,0,.36-.03.51-.08.15-.05.28-.13.39-.24.11-.1.2-.23.25-.39l1.2.13c-.08.32-.22.59-.43.83s-.48.42-.81.55-.71.19-1.13.19Z"/>
      <path class="cls-4" d="M75.26,116.63v3.2h-1.29v-5.45h1.23v.93h.06c.12-.31.33-.55.6-.73.28-.18.62-.27,1.02-.27.38,0,.71.08.99.24.28.16.5.39.65.7.16.3.23.68.23,1.11v3.47h-1.29v-3.27c0-.37-.09-.65-.28-.86-.19-.21-.45-.31-.78-.31-.22,0-.42.05-.6.15-.17.1-.31.24-.41.42-.1.18-.15.41-.15.67Z"/>
      <path class="cls-4" d="M82.8,114.37v.99h-3.14v-.99h3.14ZM80.44,113.06h1.29v5.12c0,.17.03.3.08.4.05.09.12.15.21.19.09.03.18.05.29.05.08,0,.15,0,.22-.02s.12-.02.15-.03l.22,1c-.07.02-.17.05-.29.08s-.28.04-.46.05c-.32,0-.61-.04-.87-.15-.26-.11-.46-.28-.61-.5s-.22-.51-.22-.85v-5.33Z"/>
      <path class="cls-4" d="M84.52,113.6c-.2,0-.38-.07-.53-.2-.15-.14-.22-.3-.22-.49s.07-.36.22-.5c.15-.14.32-.2.53-.2s.38.07.53.2c.15.14.22.3.22.5s-.07.36-.22.49c-.15.14-.32.2-.53.2ZM83.88,119.83v-5.45h1.29v5.45h-1.29Z"/>
      <path class="cls-4" d="M88.05,119.94c-.35,0-.66-.06-.93-.19-.28-.12-.49-.31-.65-.55-.16-.24-.24-.54-.24-.9,0-.31.06-.56.17-.76.11-.2.27-.36.47-.48.2-.12.42-.21.67-.28.25-.06.5-.11.77-.14.32-.03.58-.06.78-.09.2-.03.34-.07.44-.13.09-.06.14-.15.14-.27v-.02c0-.27-.08-.47-.24-.62s-.39-.22-.69-.22c-.31,0-.56.07-.75.21-.18.14-.31.3-.37.49l-1.2-.17c.09-.33.25-.61.47-.83s.48-.39.8-.5c.31-.11.66-.17,1.04-.17.26,0,.52.03.79.09.26.06.5.16.71.3.22.14.39.33.52.57.13.24.2.54.2.91v3.65h-1.24v-.75h-.04c-.08.15-.19.29-.33.42-.14.13-.32.24-.53.32s-.46.12-.74.12ZM88.39,118.99c.26,0,.48-.05.67-.15.19-.1.34-.24.44-.41.1-.17.15-.36.15-.56v-.64s-.11.06-.2.09-.2.05-.32.07c-.12.02-.24.04-.35.06s-.22.03-.3.04c-.19.03-.36.07-.51.13s-.27.14-.36.25c-.09.11-.13.24-.13.41,0,.24.09.42.26.54.17.12.39.18.66.18Z"/>
      <path class="cls-4" d="M93.51,112.55v7.27h-1.29v-7.27h1.29Z"/>
      <path class="cls-4" d="M99.15,115.81l-1.17.13c-.03-.12-.09-.23-.17-.33-.08-.1-.19-.19-.33-.25-.14-.06-.31-.1-.5-.1-.27,0-.49.06-.67.17-.18.12-.27.27-.27.45,0,.16.06.29.18.39s.32.18.59.25l.93.2c.52.11.9.29,1.15.53.25.24.38.56.38.95,0,.34-.1.65-.3.91-.2.26-.47.47-.82.61s-.75.22-1.21.22c-.67,0-1.2-.14-1.61-.42-.41-.28-.65-.67-.73-1.17l1.25-.12c.06.25.18.43.36.56.18.12.42.19.72.19s.55-.06.74-.19c.19-.13.28-.28.28-.46,0-.16-.06-.29-.18-.39-.12-.1-.3-.18-.56-.23l-.93-.2c-.52-.11-.91-.29-1.16-.55-.25-.26-.38-.59-.37-.99,0-.34.09-.63.28-.88.19-.25.44-.44.78-.58.33-.14.72-.2,1.15-.2.64,0,1.14.14,1.51.41s.6.64.68,1.1Z"/>
      <path class="cls-4" d="M64.47,124.55c-.03-.31-.17-.55-.42-.72s-.56-.26-.95-.26c-.27,0-.51.04-.71.12s-.35.2-.45.34c-.1.14-.16.3-.16.49,0,.15.04.28.1.39.07.11.17.21.29.28.12.08.25.14.4.19.15.05.29.1.44.13l.68.17c.28.06.54.15.79.26.25.11.48.25.69.41s.36.37.48.6.18.51.18.82c0,.43-.11.8-.33,1.12s-.53.58-.94.76c-.41.18-.91.27-1.49.27s-1.06-.09-1.47-.26c-.42-.17-.74-.43-.97-.77-.23-.34-.36-.75-.38-1.23h1.3c.02.25.1.46.23.63.14.17.32.29.54.38.22.08.47.12.74.12s.54-.04.75-.13c.22-.09.39-.21.51-.36.12-.16.19-.34.19-.55,0-.19-.06-.35-.17-.47-.11-.12-.26-.23-.46-.31s-.42-.16-.68-.23l-.83-.21c-.6-.15-1.07-.39-1.42-.7-.35-.31-.52-.73-.52-1.25,0-.43.12-.8.35-1.13s.55-.57.95-.75.86-.27,1.37-.27.97.09,1.36.27.7.43.92.74c.22.32.34.68.34,1.09h-1.27Z"/>
      <path class="cls-4" d="M69.36,129.93c-.55,0-1.02-.11-1.42-.34-.4-.23-.7-.55-.92-.97-.21-.42-.32-.92-.32-1.49s.11-1.05.32-1.48c.21-.42.51-.76.9-.99.39-.24.84-.36,1.36-.36.34,0,.65.05.95.16.3.11.56.27.8.5.23.23.41.51.54.86.13.35.2.76.2,1.24v.39h-4.47v-.87h3.24c0-.25-.06-.47-.16-.66-.1-.19-.25-.35-.43-.46-.19-.11-.4-.17-.65-.17-.26,0-.49.06-.69.19-.2.13-.35.29-.46.5-.11.21-.17.43-.17.67v.76c0,.32.06.59.17.81.12.23.28.4.49.52.21.12.45.18.73.18.19,0,.36-.03.51-.08.15-.05.28-.13.39-.24.11-.1.2-.23.25-.39l1.2.13c-.08.32-.22.59-.43.83s-.48.42-.81.55-.71.19-1.13.19Z"/>
      <path class="cls-4" d="M72.87,129.83v-5.45h1.25v.91h.06c.1-.32.27-.56.51-.73.24-.17.52-.26.83-.26.07,0,.15,0,.24,0s.16.01.22.03v1.18c-.05-.02-.14-.04-.26-.05-.12-.01-.23-.02-.34-.02-.23,0-.44.05-.63.15-.19.1-.33.24-.44.42-.11.18-.16.38-.16.61v3.21h-1.29Z"/>
      <path class="cls-4" d="M77.49,123.6c-.2,0-.38-.07-.53-.2-.15-.14-.22-.3-.22-.49s.07-.36.22-.5c.15-.14.32-.2.53-.2s.38.07.53.2.22.3.22.5-.07.36-.22.49-.32.2-.53.2ZM76.84,129.83v-5.45h1.29v5.45h-1.29Z"/>
      <path class="cls-4" d="M81.86,129.93c-.55,0-1.02-.11-1.42-.34-.4-.23-.7-.55-.92-.97-.21-.42-.32-.92-.32-1.49s.11-1.05.32-1.48c.21-.42.51-.76.9-.99.39-.24.84-.36,1.36-.36.34,0,.65.05.95.16.3.11.56.27.8.5.23.23.41.51.54.86.13.35.2.76.2,1.24v.39h-4.47v-.87h3.24c0-.25-.06-.47-.16-.66-.1-.19-.25-.35-.43-.46-.19-.11-.4-.17-.65-.17-.26,0-.49.06-.69.19-.2.13-.35.29-.46.5-.11.21-.17.43-.17.67v.76c0,.32.06.59.17.81.12.23.28.4.49.52.21.12.45.18.73.18.19,0,.36-.03.51-.08.15-.05.28-.13.39-.24.11-.1.2-.23.25-.39l1.2.13c-.08.32-.22.59-.43.83s-.48.42-.81.55-.71.19-1.13.19Z"/>
      <path class="cls-4" d="M89.69,125.81l-1.17.13c-.03-.12-.09-.23-.17-.33-.08-.1-.19-.19-.33-.25-.14-.06-.31-.1-.5-.1-.27,0-.49.06-.67.17-.18.12-.27.27-.27.45,0,.16.06.29.18.39.12.1.32.18.59.25l.93.2c.52.11.9.29,1.15.53.25.24.38.56.38.95,0,.34-.1.65-.3.91-.2.26-.47.47-.82.61-.35.15-.75.22-1.21.22-.67,0-1.21-.14-1.61-.42-.41-.28-.65-.67-.73-1.17l1.25-.12c.06.25.18.43.36.56.18.12.43.19.72.19s.55-.06.74-.19c.19-.13.28-.28.28-.46,0-.16-.06-.29-.18-.39-.12-.1-.3-.18-.56-.23l-.93-.2c-.52-.11-.91-.29-1.16-.55-.25-.26-.38-.59-.37-.99,0-.34.09-.63.28-.88.19-.25.45-.44.78-.58.33-.14.72-.2,1.15-.2.64,0,1.14.14,1.51.41s.6.64.68,1.1Z"/>
    </g>
    <g>
      <path class="cls-5" d="M75.08,73.45l-1.02-3.34h-5.1l-1.02,3.34h-3.2l4.94-14.07h3.63l4.96,14.07h-3.2ZM72.33,64.36c-.07-.22-.15-.5-.25-.84s-.21-.69-.31-1.04c-.11-.35-.19-.66-.25-.92-.07.26-.15.58-.27.97s-.22.75-.31,1.1c-.1.35-.17.59-.23.74l-1,3.26h3.65l-1.02-3.26Z"/>
      <path class="cls-5" d="M84.85,73.45h-6.38v-1.69l1.71-.79v-9.06l-1.71-.78v-1.69h6.38v1.69l-1.71.78v9.06l1.71.79v1.69Z"/>
      <path class="cls-5" d="M51.36,87.54c-.18,0-.37-.01-.56-.04-.19-.03-.34-.06-.46-.1v-1.42c.13.04.24.07.35.09.1.02.21.03.32.03.24,0,.45-.08.63-.24.18-.16.31-.41.38-.76l1.2-5.65h-.96l.18-.85,1.07-.49.11-.49c.09-.4.2-.74.34-1.01.14-.27.31-.49.51-.65s.43-.28.69-.36c.26-.08.55-.11.87-.11.27,0,.52.03.75.08.23.05.44.12.63.21l-.47,1.31c-.11-.05-.23-.09-.35-.13s-.27-.05-.43-.05c-.22,0-.4.08-.54.23-.14.16-.23.36-.28.62l-.07.36h1.28l-.29,1.34h-1.28l-1.26,5.92c-.08.4-.21.76-.4,1.09-.18.33-.43.59-.75.79-.32.2-.72.29-1.22.29Z"/>
      <path class="cls-5" d="M58.87,84.78c-.49,0-.92-.1-1.3-.31-.38-.2-.68-.49-.89-.87s-.32-.82-.32-1.34c0-.46.05-.91.14-1.33.09-.42.23-.81.41-1.17.18-.36.42-.67.7-.93.28-.26.61-.47.98-.62.37-.15.79-.22,1.25-.22.51,0,.95.1,1.32.31s.65.5.86.89c.2.39.31.85.31,1.4,0,.44-.04.87-.13,1.28-.09.42-.22.8-.4,1.15-.18.35-.41.66-.68.92-.27.26-.6.47-.97.62-.38.15-.8.22-1.27.22ZM59.02,83.34c.19,0,.37-.05.53-.15.16-.1.3-.24.43-.41s.23-.38.32-.61c.08-.23.15-.48.19-.76.04-.27.07-.55.07-.83,0-.22-.03-.42-.08-.59s-.14-.31-.26-.41c-.12-.1-.29-.15-.5-.15s-.41.06-.58.18-.31.28-.44.47-.23.42-.31.67-.15.5-.19.76c-.04.26-.06.51-.06.75,0,.35.07.62.22.8.14.18.36.28.66.28Z"/>
      <path class="cls-5" d="M62.81,84.66l1.39-6.55h1.34l-.12,1.21h.06c.18-.28.37-.52.58-.71s.43-.35.68-.46c.24-.11.51-.16.79-.16.1,0,.2,0,.31.02.11.01.19.03.26.04l-.38,1.7c-.06-.02-.15-.05-.25-.07-.1-.02-.22-.03-.34-.03-.22,0-.42.04-.62.13-.2.09-.38.22-.55.39-.17.17-.32.39-.44.65s-.23.56-.3.91l-.62,2.93h-1.76Z"/>
      <path class="cls-5" d="M72.57,84.78c-.43,0-.83-.05-1.18-.14-.36-.1-.66-.22-.91-.38v-1.61c.35.2.7.36,1.04.47.34.11.7.17,1.06.17.2,0,.38-.02.55-.05.17-.04.31-.09.44-.17.12-.08.22-.18.29-.29.07-.12.11-.25.11-.41,0-.22-.04-.41-.13-.56s-.21-.29-.36-.42c-.15-.13-.33-.26-.54-.41-.24-.18-.47-.37-.7-.59s-.41-.47-.55-.76c-.14-.29-.22-.63-.22-1.03s.07-.73.2-1.05c.14-.32.33-.59.59-.82.26-.23.57-.41.93-.54s.76-.19,1.21-.19.86.05,1.24.14.74.24,1.09.43l-.64,1.37c-.3-.14-.59-.25-.87-.32-.28-.07-.55-.11-.82-.11-.16,0-.31.02-.44.07s-.25.11-.35.19c-.1.08-.18.19-.23.31-.06.12-.08.25-.08.4,0,.2.04.37.13.52.08.14.2.28.36.4.16.12.35.26.57.41.32.21.58.43.79.67.21.24.36.49.47.77.1.28.16.58.16.92,0,.45-.08.84-.25,1.17s-.4.61-.7.83c-.3.22-.64.38-1.03.49-.39.11-.8.16-1.24.16Z"/>
      <path class="cls-5" d="M78.71,84.78c-.31,0-.61-.08-.89-.23-.28-.16-.51-.41-.69-.76s-.26-.81-.26-1.39c0-.42.05-.85.14-1.27.09-.42.22-.82.4-1.2.17-.38.38-.71.63-1,.25-.29.53-.52.85-.69.32-.17.66-.25,1.03-.25.28,0,.52.04.73.12s.38.19.53.34c.15.14.27.31.37.5h.05l.34-.84h1.36l-1.39,6.55h-1.32l.08-.85h-.05c-.15.19-.32.36-.5.5-.18.14-.39.26-.61.34s-.48.13-.76.13ZM79.41,83.35c.24,0,.46-.1.67-.29.21-.19.39-.44.53-.74.15-.3.25-.62.32-.96.03-.16.05-.32.07-.47.01-.16.02-.33.02-.51,0-.28-.07-.51-.22-.69-.14-.18-.34-.27-.6-.27-.18,0-.34.06-.49.17-.15.11-.29.26-.43.46-.13.19-.24.41-.34.66-.09.25-.16.51-.22.79-.05.28-.08.55-.08.83,0,.34.07.6.2.77.13.17.32.26.56.26Z"/>
      <path class="cls-5" d="M83.41,84.66l1.93-9.12h1.76l-1.93,9.12h-1.76Z"/>
      <path class="cls-5" d="M89.62,84.78c-.51,0-.96-.09-1.35-.28-.39-.18-.69-.46-.91-.84-.22-.38-.33-.85-.33-1.42s.08-1.08.23-1.59c.16-.51.39-.96.7-1.36.31-.4.69-.72,1.15-.95.46-.24.98-.35,1.58-.35.74,0,1.29.17,1.65.5s.55.76.55,1.28c0,.34-.08.66-.23.94-.16.28-.39.52-.7.72-.31.2-.7.35-1.17.46-.47.11-1.03.16-1.67.16h-.3s-.01.09-.01.13v.11c0,.35.1.63.31.84.2.21.49.31.86.31.34,0,.66-.04.94-.12.28-.08.61-.21,1-.38v1.33c-.34.17-.69.29-1.04.38-.35.08-.76.13-1.24.13ZM89.27,80.87c.46,0,.82-.05,1.1-.14.28-.1.49-.23.62-.39s.2-.34.2-.52-.05-.32-.16-.41c-.11-.09-.26-.14-.45-.14-.22,0-.43.07-.65.2-.22.14-.41.32-.57.56-.16.24-.28.52-.35.84h.26Z"/>
      <path class="cls-5" d="M95.02,84.78c-.42,0-.78-.03-1.09-.09-.31-.06-.6-.16-.88-.29v-1.45c.3.17.6.3.91.39.31.09.63.14.96.14.18,0,.36-.03.52-.08.16-.05.3-.13.4-.23.1-.1.15-.24.15-.4,0-.11-.03-.21-.08-.29-.05-.08-.15-.18-.29-.28-.14-.1-.35-.23-.62-.38-.27-.15-.5-.31-.69-.47-.19-.16-.33-.34-.43-.55-.1-.2-.15-.44-.15-.71,0-.46.1-.84.3-1.15.2-.31.49-.54.86-.7s.82-.24,1.34-.24c.38,0,.74.04,1.09.13.35.08.7.23,1.03.43l-.58,1.26c-.23-.14-.48-.25-.74-.35s-.52-.14-.77-.14c-.19,0-.36.05-.52.14-.15.09-.23.23-.23.41,0,.1.03.2.08.28.06.08.15.17.28.25s.3.19.53.31c.26.14.5.29.71.45s.37.36.49.58c.12.22.17.48.17.77,0,.5-.11.91-.34,1.25-.23.34-.55.6-.96.77s-.9.26-1.46.26Z"/>
    </g>
  </g>
</svg>