<?xml version="1.0" encoding="UTF-8"?>
<svg id="Logos" xmlns="http://www.w3.org/2000/svg" viewBox="0 0 150 150">
  <defs>
    <style>
      .cls-1 {
        fill: #fff;
      }

      .cls-1, .cls-2, .cls-3 {
        stroke-miterlimit: 10;
      }

      .cls-1, .cls-3 {
        stroke: #c8102e;
        stroke-width: 2px;
      }

      .cls-2 {
        fill: none;
        stroke: #50595e;
        stroke-width: 1.25px;
      }

      .cls-3, .cls-4 {
        fill: #c8102e;
      }

      .cls-5 {
        fill: #50595e;
      }

      .cls-6 {
        fill: #20282f;
      }
    </style>
  </defs>
  <path class="cls-3" d="M75,11.75C38.17,11.75,8.32,41.61,8.32,78.43c0,18.37,7.43,35,19.45,47.06,1.71-1.56,3.5-3.03,5.36-4.42-11.05-10.84-17.91-25.94-17.91-42.64,0-33.01,26.76-59.78,59.78-59.78s59.78,26.76,59.78,59.78c0,16.71-6.86,31.8-17.91,42.64,1.86,1.39,3.65,2.86,5.36,4.42,12.02-12.06,19.45-28.69,19.45-47.06,0-36.83-29.85-66.68-66.68-66.68Z"/>
  <circle class="cls-1" cx="75" cy="78.58" r="59.67"/>
  <g>
    <path class="cls-5" d="M55.63,118.55c-.03-.31-.17-.55-.42-.72-.24-.17-.56-.26-.95-.26-.27,0-.51.04-.71.12-.2.08-.35.2-.45.34-.1.14-.16.3-.16.49,0,.15.04.28.1.39.07.11.17.21.29.28.12.08.25.14.4.19s.29.1.44.13l.68.17c.28.06.54.15.79.26.25.11.48.25.69.41.2.17.36.37.48.6s.18.51.18.82c0,.43-.11.8-.33,1.12-.22.32-.53.58-.94.76-.41.18-.91.27-1.49.27s-1.06-.09-1.47-.26c-.42-.17-.74-.43-.97-.77-.23-.34-.36-.75-.38-1.23h1.29c.02.25.1.46.23.63.14.17.32.29.54.38.22.08.47.12.74.12s.54-.04.75-.13.39-.21.51-.36c.12-.16.19-.34.19-.55,0-.19-.06-.35-.17-.47-.11-.12-.26-.23-.46-.31s-.42-.16-.68-.23l-.83-.21c-.6-.15-1.07-.39-1.42-.7-.35-.31-.52-.73-.52-1.25,0-.43.12-.8.35-1.13.23-.32.55-.57.95-.75s.86-.27,1.37-.27.97.09,1.36.27c.39.18.7.43.92.74.22.32.34.68.34,1.09h-1.27Z"/>
    <path class="cls-5" d="M60.83,118.37v.99h-3.13v-.99h3.13ZM58.47,117.06h1.29v5.12c0,.17.03.3.08.4.05.09.12.15.21.19.09.03.18.05.29.05.08,0,.15,0,.22-.02.07-.01.12-.02.15-.03l.22,1c-.07.02-.17.05-.29.08s-.28.04-.46.05c-.32,0-.61-.04-.87-.15-.26-.11-.46-.28-.61-.5-.15-.23-.22-.51-.22-.85v-5.33Z"/>
    <path class="cls-5" d="M63.48,123.93c-.35,0-.66-.06-.93-.19-.28-.12-.49-.31-.65-.55-.16-.24-.24-.54-.24-.9,0-.31.06-.56.17-.76s.27-.36.47-.48c.2-.12.42-.21.67-.28.25-.06.5-.11.77-.14.32-.03.58-.06.78-.09.2-.03.34-.07.43-.13.09-.06.14-.15.14-.27v-.02c0-.27-.08-.47-.24-.62-.16-.15-.39-.22-.68-.22-.32,0-.56.07-.75.21s-.31.3-.37.49l-1.2-.17c.1-.33.25-.61.47-.83.22-.22.48-.39.8-.5.32-.11.66-.17,1.04-.17.26,0,.52.03.79.09.26.06.5.16.71.3.22.14.39.33.52.57.13.24.2.54.2.91v3.65h-1.23v-.75h-.04c-.08.15-.19.29-.33.42-.14.13-.32.24-.53.32-.21.08-.46.12-.74.12ZM63.81,122.99c.26,0,.48-.05.67-.15.19-.1.34-.24.44-.41.1-.17.15-.36.15-.56v-.64s-.11.06-.2.09c-.1.03-.2.05-.32.07-.12.02-.24.04-.35.06-.12.02-.22.03-.3.04-.19.03-.36.07-.51.13-.15.06-.27.14-.36.25s-.13.24-.13.41c0,.24.09.42.26.54s.39.18.66.18Z"/>
    <path class="cls-5" d="M70.04,123.93c-.54,0-1.01-.12-1.4-.36-.39-.24-.69-.57-.9-.99-.21-.42-.31-.91-.31-1.46s.11-1.04.32-1.47c.21-.42.51-.76.9-.99.39-.24.85-.36,1.38-.36.44,0,.83.08,1.18.24s.62.39.82.69c.2.29.32.64.35,1.03h-1.23c-.05-.26-.17-.48-.35-.66-.19-.18-.43-.26-.74-.26-.26,0-.49.07-.69.21-.2.14-.35.34-.46.61-.11.26-.17.58-.17.94s.05.69.16.96c.11.27.26.47.46.61.2.14.43.21.7.21.19,0,.36-.04.51-.11s.28-.18.38-.31c.1-.14.17-.3.21-.5h1.23c-.03.39-.14.73-.34,1.02-.2.3-.46.53-.8.7-.34.17-.74.25-1.19.25Z"/>
    <path class="cls-5" d="M73.43,123.82v-7.27h1.29v7.27h-1.29ZM74.6,122.11v-1.55s.2,0,.2,0l1.96-2.19h1.5l-2.41,2.68h-.27l-.99,1.06ZM76.85,123.82l-1.78-2.48.87-.91,2.45,3.39h-1.54Z"/>
    <path class="cls-5" d="M80.69,123.93c-.35,0-.66-.06-.93-.19-.28-.12-.49-.31-.65-.55-.16-.24-.24-.54-.24-.9,0-.31.06-.56.17-.76.11-.2.27-.36.47-.48.2-.12.42-.21.67-.28.25-.06.5-.11.77-.14.32-.03.58-.06.78-.09.2-.03.34-.07.44-.13.09-.06.14-.15.14-.27v-.02c0-.27-.08-.47-.24-.62-.16-.15-.39-.22-.69-.22-.31,0-.56.07-.75.21s-.31.3-.37.49l-1.2-.17c.09-.33.25-.61.47-.83s.48-.39.8-.5.66-.17,1.04-.17c.26,0,.52.03.79.09s.5.16.71.3c.21.14.39.33.52.57.13.24.2.54.2.91v3.65h-1.24v-.75h-.04c-.08.15-.19.29-.33.42-.14.13-.32.24-.53.32-.21.08-.46.12-.74.12ZM81.02,122.99c.26,0,.48-.05.67-.15.19-.1.34-.24.44-.41.1-.17.15-.36.15-.56v-.64s-.11.06-.21.09c-.1.03-.2.05-.32.07-.12.02-.24.04-.35.06-.12.02-.22.03-.3.04-.19.03-.36.07-.51.13-.15.06-.27.14-.36.25s-.13.24-.13.41c0,.24.09.42.26.54.17.12.39.18.66.18Z"/>
    <path class="cls-5" d="M84.92,123.82v-7.27h1.29v2.72h.05c.07-.13.16-.27.28-.42s.28-.28.49-.39c.21-.11.47-.16.79-.16.42,0,.8.11,1.14.32s.61.53.81.95c.2.42.3.93.3,1.54s-.1,1.11-.29,1.53c-.2.42-.46.74-.8.96-.34.22-.72.33-1.15.33-.31,0-.57-.05-.78-.16-.21-.1-.37-.23-.5-.38s-.22-.29-.29-.42h-.07v.86h-1.26ZM86.18,121.1c0,.35.05.66.15.93s.25.47.44.62c.19.15.42.22.69.22s.52-.08.71-.23c.19-.15.34-.36.44-.63.1-.27.15-.57.15-.91s-.05-.64-.14-.9c-.1-.26-.24-.47-.43-.62-.19-.15-.43-.22-.72-.22s-.51.07-.7.22c-.19.14-.34.35-.43.61-.1.26-.15.57-.15.92Z"/>
    <path class="cls-5" d="M92.45,116.55v7.27h-1.29v-7.27h1.29Z"/>
    <path class="cls-5" d="M96.19,123.93c-.55,0-1.02-.11-1.42-.34-.4-.23-.7-.55-.91-.97-.21-.42-.32-.92-.32-1.49s.11-1.05.32-1.48.51-.76.9-.99c.39-.24.84-.36,1.36-.36.34,0,.65.05.95.16.3.11.57.27.8.5.23.23.41.51.54.86.13.35.2.76.2,1.24v.39h-4.47v-.87h3.24c0-.25-.06-.47-.16-.66s-.25-.35-.44-.46c-.19-.11-.4-.17-.65-.17-.26,0-.49.06-.69.19-.2.13-.35.29-.46.5-.11.2-.17.43-.17.67v.76c0,.32.06.59.17.81.12.23.28.4.49.52.21.12.45.18.73.18.19,0,.36-.03.51-.08.15-.05.28-.13.39-.24s.2-.23.25-.39l1.2.14c-.07.32-.22.59-.43.83-.21.24-.48.42-.81.55-.33.13-.71.19-1.13.19Z"/>
  </g>
  <g>
    <path class="cls-4" d="M56.5,42.96c-1.79,0-3.2,1.2-3.2,2.72,0,1.52,1.41,2.7,3.2,2.7,1.79,0,3.2-1.18,3.2-2.7s-1.41-2.72-3.2-2.72M56.5,50.21c-2.82,0-5.03-1.98-5.03-4.53,0-2.55,2.21-4.55,5.03-4.55,2.82,0,5.03,2,5.03,4.55,0,2.55-2.21,4.53-5.03,4.53"/>
    <path class="cls-4" d="M74.48,50.21c-1.01,0-1.83-.84-1.83-1.87v-3.77c0-.9-.78-1.62-1.75-1.62-.95,0-1.73.72-1.73,1.62v5.64c-1.01,0-1.83-.82-1.83-1.83v-3.81c0-.9-.78-1.62-1.75-1.62-.95,0-1.74.72-1.74,1.62v3.79c0,1.01-.82,1.85-1.83,1.85v-5.64c0-1.9,1.6-3.45,3.56-3.45,1.06,0,2.02.44,2.66,1.14.65-.71,1.6-1.14,2.65-1.14,1.98,0,3.58,1.54,3.58,3.45v5.64Z"/>
    <path class="cls-4" d="M80.42,50.2c-.48,0-.93-.04-1.35-.13-.95-.27-1.51-1.26-1.26-2.21.04-.11.07-.23.11-.32l.02-.02c.51.57,1.35.86,2.48.86,1.68,0,2.99-1.18,2.99-2.67s-1.31-2.76-2.99-2.76c-1.58,0-3.16.88-3.16,2.8v5.92c0,.99-.84,1.79-1.83,1.79v-7.71c0-2.67,2.1-4.63,4.99-4.63,1.28,0,2.47.48,3.39,1.31.92.86,1.43,2.02,1.43,3.28,0,2.52-2.11,4.49-4.82,4.49"/>
    <path class="cls-4" d="M93.46,39.4h-3.91s0,10.82,0,10.82h-.08c-.97,0-1.75-.84-1.75-1.83v-8.99s-3.91,0-3.91,0c-.99,0-1.79-.82-1.79-1.81h13.26c0,.99-.8,1.81-1.81,1.81"/>
    <path class="cls-4" d="M105.06,39.47l-2.6,5.71h4.9s-2.62-5.73-2.62-5.73l.31.02ZM109.11,49.07l-.97-2.09h-6.49s-.96,2.15-.96,2.15c-.45.86-1.66,1.12-2.58,1.12l5.29-11.61c.3-.67.83-1.05,1.45-1.05.62,0,1.16.38,1.47,1.05l5.23,11.47c-.98.09-2.06-.2-2.44-1.04"/>
    <path class="cls-4" d="M49.42,41c-.99-1.05-2.44-1.73-4.04-1.73-2.84,0-5.14,2.06-5.14,4.59,0,2.53,2.31,4.61,5.14,4.61,1.35,0,2.63-.51,3.6-1.33.67-.55,1.66-.51,2.31.04-.5.76-1.16,1.43-1.98,1.94-1.16.74-2.52,1.12-3.92,1.12-3.83,0-6.93-2.86-6.93-6.38s3.1-6.38,6.93-6.38c2.72,0,5.2,1.49,6.3,3.77-.7.46-1.68.4-2.27-.25"/>
    <path class="cls-4" d="M95.85,37.59v10.85c0,.97.84,1.77,1.83,1.77v-10.85c0-.97-.84-1.77-1.83-1.77"/>
  </g>
  <g>
    <rect class="cls-2" x="35" y="94.57" width="80" height="13.5" rx="6.75" ry="6.75"/>
    <g>
      <path class="cls-5" d="M45.97,100.25h-1.2c-.03-.2-.1-.37-.19-.52-.09-.15-.21-.28-.34-.39-.14-.11-.29-.19-.46-.24s-.36-.08-.56-.08c-.36,0-.67.09-.95.27-.28.18-.49.44-.65.78s-.23.76-.23,1.25.08.92.23,1.26c.16.34.37.6.65.77.27.17.59.26.94.26.2,0,.38-.03.55-.08.17-.05.33-.13.46-.23.14-.1.25-.23.35-.38.09-.15.16-.32.2-.51h1.2c-.04.32-.14.61-.29.88-.15.27-.34.51-.58.72-.24.21-.52.37-.84.49-.32.12-.67.17-1.06.17-.58,0-1.09-.13-1.54-.4-.45-.27-.81-.65-1.07-1.15-.26-.5-.39-1.11-.39-1.81s.13-1.31.39-1.81c.26-.5.62-.89,1.07-1.15.45-.27.96-.4,1.53-.4.36,0,.7.05,1.02.15.31.1.59.25.84.45.25.2.45.44.61.72.16.28.26.61.31.97Z"/>
      <path class="cls-5" d="M47.24,104.59v-6.55h4.26v.99h-3.07v1.78h2.85v.99h-2.85v1.79h3.1v.99h-4.28Z"/>
      <path class="cls-5" d="M52.89,104.59v-6.55h2.45c.5,0,.93.09,1.27.26.34.17.6.42.78.73s.26.68.26,1.1-.09.78-.27,1.09c-.18.31-.44.55-.79.71-.34.17-.77.25-1.27.25h-1.75v-.98h1.59c.29,0,.54-.04.72-.12s.33-.2.42-.36.14-.35.14-.59-.05-.43-.14-.6c-.09-.17-.23-.29-.42-.38s-.43-.13-.73-.13h-1.09v5.55h-1.19ZM56.27,101.62l1.62,2.97h-1.32l-1.59-2.97h1.29Z"/>
      <path class="cls-5" d="M58.64,99.04v-.99h5.22v.99h-2.02v5.55h-1.18v-5.55h-2.02Z"/>
      <path class="cls-5" d="M66.23,98.04v6.55h-1.19v-6.55h1.19Z"/>
      <path class="cls-5" d="M67.7,104.59v-6.55h4.19v.99h-3.01v1.78h2.72v.99h-2.72v2.78h-1.19Z"/>
      <path class="cls-5" d="M74.33,98.04v6.55h-1.19v-6.55h1.19Z"/>
      <path class="cls-5" d="M81.4,100.25h-1.2c-.03-.2-.1-.37-.19-.52-.09-.15-.21-.28-.34-.39-.14-.11-.29-.19-.46-.24s-.36-.08-.56-.08c-.36,0-.67.09-.95.27-.28.18-.49.44-.65.78s-.23.76-.23,1.25.08.92.23,1.26c.16.34.37.6.65.77.27.17.59.26.94.26.2,0,.38-.03.55-.08.17-.05.33-.13.46-.23.14-.1.25-.23.35-.38.09-.15.16-.32.2-.51h1.2c-.04.32-.14.61-.29.88-.15.27-.34.51-.58.72-.24.21-.52.37-.84.49-.32.12-.67.17-1.06.17-.58,0-1.09-.13-1.54-.4-.45-.27-.81-.65-1.07-1.15-.26-.5-.39-1.11-.39-1.81s.13-1.31.39-1.81c.26-.5.62-.89,1.07-1.15.45-.27.96-.4,1.53-.4.36,0,.7.05,1.02.15.31.1.59.25.84.45.25.2.45.44.61.72.16.28.26.61.31.97Z"/>
      <path class="cls-5" d="M83.43,104.59h-1.27l2.3-6.55h1.46l2.31,6.55h-1.27l-1.75-5.2h-.05l-1.75,5.2ZM83.47,102.02h3.45v.95h-3.45v-.95Z"/>
      <path class="cls-5" d="M88.2,99.04v-.99h5.22v.99h-2.02v5.55h-1.18v-5.55h-2.02Z"/>
      <path class="cls-5" d="M95.79,98.04v6.55h-1.19v-6.55h1.19Z"/>
      <path class="cls-5" d="M103.11,101.31c0,.71-.13,1.31-.39,1.81-.26.5-.62.89-1.07,1.15-.45.27-.97.4-1.54.4s-1.09-.13-1.54-.4c-.45-.27-.81-.65-1.07-1.15-.26-.5-.39-1.1-.39-1.81s.13-1.31.39-1.81c.26-.5.62-.89,1.07-1.15.45-.27.97-.4,1.54-.4s1.09.13,1.54.4c.45.27.81.65,1.07,1.15.26.5.39,1.11.39,1.81ZM101.92,101.31c0-.5-.08-.92-.23-1.26-.15-.34-.37-.6-.64-.78s-.59-.26-.94-.26-.67.09-.94.26-.49.43-.64.78c-.15.34-.23.76-.23,1.26s.08.92.23,1.26.37.6.64.78.59.26.94.26.67-.09.94-.26.49-.44.64-.78.23-.76.23-1.26Z"/>
      <path class="cls-5" d="M109.8,98.04v6.55h-1.05l-3.08-4.46h-.05v4.46h-1.19v-6.55h1.06l3.08,4.46h.06v-4.46h1.18Z"/>
    </g>
  </g>
  <g>
    <path class="cls-5" d="M55.74,76.48h-1.06c-.03-.17-.09-.33-.17-.46-.08-.14-.18-.25-.3-.34s-.26-.17-.41-.21c-.15-.05-.32-.07-.5-.07-.32,0-.6.08-.84.24s-.44.39-.57.69c-.14.3-.21.67-.21,1.11s.07.82.21,1.12c.14.3.33.53.57.69s.52.23.84.23c.17,0,.34-.02.49-.07.15-.05.29-.12.41-.21.12-.09.22-.2.31-.33.08-.13.14-.28.18-.46h1.06c-.04.28-.13.54-.26.78s-.3.46-.52.64-.46.33-.74.43c-.28.1-.6.16-.95.16-.51,0-.97-.12-1.37-.36-.4-.24-.72-.58-.95-1.03-.23-.45-.35-.98-.35-1.61s.12-1.16.35-1.61c.23-.45.55-.79.95-1.02.4-.24.86-.36,1.36-.36.32,0,.62.05.9.14.28.09.53.22.74.4.22.18.4.39.54.64.14.25.23.54.28.87Z"/>
    <path class="cls-5" d="M57.69,74.51v5.82h-1.03v-5.82h1.03Z"/>
    <path class="cls-5" d="M60.65,80.42c-.43,0-.8-.09-1.11-.28s-.55-.45-.72-.79c-.17-.34-.26-.73-.26-1.18s.09-.85.26-1.19c.17-.34.41-.6.72-.79s.68-.28,1.11-.28.8.09,1.11.28.55.45.73.79c.17.34.26.73.26,1.19s-.09.84-.26,1.18-.41.6-.73.79-.68.28-1.11.28ZM60.66,79.59c.23,0,.42-.06.58-.19.16-.13.27-.3.35-.52.08-.22.11-.46.11-.72s-.04-.51-.11-.73-.19-.39-.35-.52c-.15-.13-.35-.19-.58-.19s-.43.06-.59.19c-.16.13-.27.3-.35.52-.08.22-.12.46-.12.73s.04.5.12.72c.08.22.19.39.35.52.16.13.35.19.59.19Z"/>
    <path class="cls-5" d="M66.39,78.5v-2.53h1.03v4.36h-1v-.78h-.04c-.1.24-.26.44-.48.6s-.5.23-.83.23c-.29,0-.54-.06-.76-.19s-.39-.31-.51-.56-.18-.54-.18-.89v-2.78h1.03v2.62c0,.28.08.5.23.66.15.16.35.24.6.24.15,0,.3-.04.44-.11.14-.07.26-.18.35-.33s.14-.33.14-.55Z"/>
    <path class="cls-5" d="M70.1,80.41c-.34,0-.65-.09-.92-.26-.27-.18-.49-.43-.64-.77-.16-.33-.24-.74-.24-1.22s.08-.89.24-1.23c.16-.33.38-.59.65-.76s.58-.26.91-.26c.26,0,.47.04.63.13.17.09.3.19.39.31s.17.23.22.34h.04v-2.18h1.03v5.82h-1.01v-.69h-.06c-.05.11-.13.22-.23.34-.1.12-.23.22-.4.3-.17.08-.37.12-.62.12ZM70.38,79.56c.22,0,.4-.06.56-.18.15-.12.27-.28.35-.5.08-.21.12-.46.12-.74s-.04-.53-.12-.74c-.08-.21-.19-.37-.35-.49s-.34-.17-.56-.17-.42.06-.57.18-.27.28-.35.49-.12.45-.12.72.04.52.12.73c.08.21.2.38.35.5s.34.18.57.18Z"/>
    <path class="cls-5" d="M76.3,80.33h-1.12l2.05-5.82h1.3l2.05,5.82h-1.12l-1.55-4.62h-.05l-1.55,4.62ZM76.33,78.05h3.07v.85h-3.07v-.85Z"/>
    <path class="cls-5" d="M82.78,80.41c-.34,0-.65-.09-.92-.26-.27-.18-.49-.43-.64-.77-.16-.33-.24-.74-.24-1.22s.08-.89.24-1.23c.16-.33.38-.59.65-.76s.58-.26.91-.26c.26,0,.47.04.63.13.17.09.3.19.39.31s.17.23.22.34h.04v-2.18h1.03v5.82h-1.01v-.69h-.06c-.05.11-.13.22-.23.34-.1.12-.23.22-.4.3-.17.08-.37.12-.62.12ZM83.06,79.56c.22,0,.4-.06.56-.18.15-.12.27-.28.35-.5.08-.21.12-.46.12-.74s-.04-.53-.12-.74c-.08-.21-.19-.37-.35-.49s-.34-.17-.56-.17-.42.06-.57.18-.27.28-.35.49-.12.45-.12.72.04.52.12.73c.08.21.2.38.35.5s.34.18.57.18Z"/>
    <path class="cls-5" d="M86.2,80.33v-4.36h.98v.74h.05c.09-.25.24-.45.45-.59.21-.14.46-.21.75-.21s.54.07.75.21c.2.14.35.34.43.58h.05c.1-.24.26-.44.49-.58.23-.14.5-.22.82-.22.4,0,.73.13.98.38.25.25.38.62.38,1.11v2.93h-1.03v-2.77c0-.27-.07-.47-.21-.6-.14-.13-.32-.19-.53-.19-.25,0-.44.08-.58.23-.14.15-.21.35-.21.6v2.72h-1.01v-2.81c0-.23-.07-.41-.2-.54-.14-.13-.31-.2-.53-.2-.15,0-.28.04-.4.11s-.22.18-.29.32c-.07.13-.11.29-.11.47v2.65h-1.03Z"/>
    <path class="cls-5" d="M93.9,75.35c-.16,0-.3-.05-.42-.16-.12-.11-.18-.24-.18-.39s.06-.29.18-.4c.12-.11.26-.16.42-.16s.31.05.42.16c.12.11.18.24.18.4s-.06.28-.18.39c-.12.11-.26.16-.42.16ZM93.38,80.33v-4.36h1.03v4.36h-1.03Z"/>
    <path class="cls-5" d="M96.5,77.77v2.56h-1.03v-4.36h.98v.74h.05c.1-.24.26-.44.48-.58.22-.14.49-.22.82-.22.3,0,.56.06.79.19.22.13.4.31.52.56.12.24.19.54.18.89v2.78h-1.03v-2.62c0-.29-.07-.52-.22-.68s-.36-.25-.62-.25c-.18,0-.34.04-.48.12-.14.08-.25.19-.33.34-.08.15-.12.33-.12.54Z"/>
    <path class="cls-5" d="M51.63,88.83v-5.82h2.18c.45,0,.82.08,1.13.25.3.17.53.4.69.69s.23.62.23.99-.08.7-.24.99c-.16.29-.39.52-.7.68-.31.17-.68.25-1.13.25h-1.45v-.87h1.3c.26,0,.48-.05.64-.14.17-.09.29-.22.37-.38s.12-.34.12-.55-.04-.39-.12-.55-.21-.28-.37-.37c-.17-.09-.38-.13-.65-.13h-.97v4.94h-1.05Z"/>
    <path class="cls-5" d="M56.73,88.83v-4.36h1v.73h.05c.08-.25.22-.45.41-.58.19-.14.42-.21.67-.21.06,0,.12,0,.19,0,.07,0,.13.01.18.02v.95s-.11-.03-.21-.04c-.09-.01-.18-.02-.27-.02-.19,0-.36.04-.5.12-.15.08-.27.19-.35.33-.09.14-.13.31-.13.49v2.57h-1.03Z"/>
    <path class="cls-5" d="M61.63,88.92c-.43,0-.8-.09-1.11-.28s-.55-.45-.73-.79-.26-.73-.26-1.18.09-.85.26-1.19c.17-.34.41-.6.73-.79s.68-.28,1.11-.28.79.09,1.11.28.55.45.73.79c.17.34.26.73.26,1.19s-.09.84-.26,1.18c-.17.34-.41.6-.73.79s-.68.28-1.11.28ZM61.63,88.09c.23,0,.42-.06.58-.19.16-.13.27-.3.35-.52.08-.22.11-.46.11-.72s-.04-.51-.11-.73c-.08-.22-.19-.39-.35-.52-.16-.13-.35-.19-.58-.19s-.43.06-.59.19c-.16.13-.27.3-.35.52s-.12.46-.12.73.04.5.12.72c.08.22.19.39.35.52.16.13.35.19.59.19Z"/>
    <path class="cls-5" d="M66.8,84.47v.79h-2.58v-.79h2.58ZM64.86,88.83v-4.78c0-.29.06-.54.18-.73.12-.2.29-.34.49-.44.21-.1.44-.15.69-.15.18,0,.34.01.47.04s.24.05.31.08l-.2.8s-.1-.03-.17-.04c-.07-.01-.14-.02-.22-.02-.19,0-.33.05-.4.14-.08.09-.12.22-.12.39v4.71h-1.03Z"/>
    <path class="cls-5" d="M69.37,88.92c-.44,0-.81-.09-1.13-.27-.32-.18-.56-.44-.73-.78-.17-.34-.26-.73-.26-1.19s.09-.84.26-1.18.41-.61.72-.8.67-.29,1.09-.29c.27,0,.52.04.76.13.24.09.45.22.64.4s.33.41.44.69c.11.28.16.61.16.99v.32h-3.58v-.69h2.59c0-.2-.04-.37-.13-.53-.08-.15-.2-.28-.35-.37s-.32-.13-.52-.13c-.21,0-.4.05-.55.15-.16.1-.28.23-.37.4s-.13.34-.13.54v.61c0,.25.05.47.14.65.09.18.22.32.39.41s.36.14.58.14c.15,0,.29-.02.41-.06.12-.04.23-.11.32-.19.09-.08.16-.19.2-.31l.96.11c-.06.25-.18.47-.34.66-.17.19-.39.33-.65.44s-.56.16-.9.16Z"/>
    <path class="cls-5" d="M75.63,85.62l-.94.1c-.03-.09-.07-.18-.14-.27-.07-.08-.15-.15-.26-.2-.11-.05-.24-.08-.4-.08-.21,0-.39.05-.54.14s-.22.21-.21.36c0,.13.04.23.14.31.1.08.25.15.48.2l.74.16c.41.09.72.23.92.42.2.19.3.45.3.76,0,.27-.08.52-.24.73-.16.21-.38.37-.66.49s-.6.18-.97.18c-.53,0-.96-.11-1.29-.34s-.52-.54-.58-.94l1-.1c.04.2.14.35.29.45.15.1.34.15.58.15s.44-.05.59-.15c.15-.1.22-.22.22-.37,0-.12-.05-.23-.14-.31s-.24-.14-.44-.19l-.75-.16c-.42-.09-.73-.23-.93-.44-.2-.21-.3-.47-.3-.79,0-.27.07-.5.22-.7.15-.2.36-.35.62-.46.27-.11.57-.16.92-.16.51,0,.91.11,1.21.33s.48.51.55.88Z"/>
    <path class="cls-5" d="M80.02,85.62l-.94.1c-.03-.09-.07-.18-.14-.27-.06-.08-.15-.15-.26-.2-.11-.05-.24-.08-.4-.08-.21,0-.39.05-.54.14-.14.09-.22.21-.21.36,0,.13.04.23.14.31.1.08.25.15.48.2l.74.16c.41.09.72.23.92.42.2.19.3.45.31.76,0,.27-.08.52-.24.73-.16.21-.38.37-.66.49-.28.12-.6.18-.96.18-.54,0-.96-.11-1.29-.34-.33-.22-.52-.54-.58-.94l1-.1c.05.2.14.35.29.45.15.1.34.15.58.15s.44-.05.59-.15.22-.22.22-.37c0-.12-.05-.23-.14-.31s-.24-.14-.45-.19l-.74-.16c-.42-.09-.73-.23-.93-.44-.2-.21-.3-.47-.3-.79,0-.27.07-.5.22-.7.15-.2.36-.35.62-.46s.57-.16.92-.16c.51,0,.91.11,1.21.33s.48.51.55.88Z"/>
    <path class="cls-5" d="M81.48,83.85c-.16,0-.3-.05-.42-.16-.12-.11-.18-.24-.18-.39s.06-.29.18-.4c.12-.11.26-.16.42-.16s.31.05.42.16c.12.11.17.24.17.4s-.06.28-.17.39c-.12.11-.26.16-.42.16ZM80.96,88.83v-4.36h1.03v4.36h-1.03Z"/>
    <path class="cls-5" d="M84.95,88.92c-.43,0-.8-.09-1.11-.28s-.55-.45-.73-.79-.26-.73-.26-1.18.09-.85.26-1.19c.17-.34.41-.6.73-.79s.68-.28,1.11-.28.79.09,1.11.28.55.45.73.79c.17.34.26.73.26,1.19s-.09.84-.26,1.18c-.17.34-.41.6-.73.79s-.68.28-1.11.28ZM84.96,88.09c.23,0,.42-.06.58-.19.16-.13.27-.3.35-.52.08-.22.11-.46.11-.72s-.04-.51-.11-.73c-.08-.22-.19-.39-.35-.52-.16-.13-.35-.19-.58-.19s-.43.06-.59.19c-.16.13-.27.3-.35.52s-.12.46-.12.73.04.5.12.72c.08.22.19.39.35.52.16.13.35.19.59.19Z"/>
    <path class="cls-5" d="M88.94,86.27v2.56h-1.03v-4.36h.98v.74h.05c.1-.24.26-.44.48-.58.22-.14.49-.22.82-.22.3,0,.56.06.79.19.22.13.4.31.52.56.12.24.18.54.18.89v2.78h-1.03v-2.62c0-.29-.08-.52-.23-.68s-.36-.25-.62-.25c-.18,0-.34.04-.48.12-.14.08-.25.19-.33.34-.08.15-.12.33-.12.54Z"/>
    <path class="cls-5" d="M94.05,88.92c-.28,0-.53-.05-.75-.15s-.39-.25-.52-.44c-.13-.19-.19-.44-.19-.72,0-.25.05-.45.14-.61.09-.16.21-.29.37-.39.16-.1.33-.17.53-.22s.4-.09.61-.11c.26-.03.46-.05.62-.07.16-.02.28-.06.35-.1s.11-.12.11-.22v-.02c0-.21-.06-.38-.19-.5s-.31-.18-.55-.18c-.25,0-.45.05-.6.16-.15.11-.25.24-.3.39l-.96-.14c.08-.26.2-.49.38-.67s.39-.31.64-.4.53-.13.84-.13c.21,0,.42.02.63.07.21.05.4.13.57.24.17.11.31.27.42.46s.16.43.16.72v2.92h-.99v-.6h-.03c-.06.12-.15.23-.26.34s-.25.19-.42.25c-.17.06-.37.09-.6.09ZM94.31,88.16c.21,0,.38-.04.54-.12s.27-.19.35-.33c.08-.14.12-.29.12-.45v-.51s-.09.05-.16.07c-.08.02-.16.04-.26.06-.09.02-.19.03-.28.04-.09.01-.17.02-.24.03-.15.02-.29.05-.41.1-.12.05-.22.11-.29.2s-.11.19-.11.33c0,.19.07.33.21.43s.31.15.53.15Z"/>
    <path class="cls-5" d="M98.42,83.01v5.82h-1.03v-5.82h1.03Z"/>
  </g>
  <g>
    <path class="cls-6" d="M60.71,61.16c-.46,0-.87.09-1.22.27-.36.18-.66.44-.9.78-.25.34-.43.74-.55,1.22-.12.48-.18,1.02-.18,1.62,0,.81.1,1.5.3,2.07s.51,1.01.94,1.3c.43.3.97.45,1.63.45.47,0,.94-.05,1.4-.16.46-.11.97-.26,1.51-.45v2.03c-.5.2-1,.35-1.49.45-.49.1-1.04.14-1.65.14-1.17,0-2.14-.24-2.9-.73s-1.33-1.17-1.69-2.05c-.36-.88-.54-1.91-.54-3.08,0-.86.12-1.66.35-2.38.23-.72.58-1.34,1.03-1.86.45-.52,1.01-.93,1.68-1.22.67-.29,1.43-.43,2.3-.43.57,0,1.13.07,1.7.22.57.14,1.12.34,1.64.58l-.78,1.97c-.43-.2-.86-.38-1.29-.53-.43-.15-.86-.22-1.27-.22Z"/>
    <path class="cls-6" d="M70.58,61.16c-.46,0-.87.09-1.22.27-.36.18-.66.44-.9.78-.25.34-.43.74-.55,1.22-.12.48-.18,1.02-.18,1.62,0,.81.1,1.5.3,2.07s.51,1.01.94,1.3c.43.3.97.45,1.63.45.47,0,.94-.05,1.4-.16.46-.11.97-.26,1.51-.45v2.03c-.5.2-1,.35-1.49.45-.49.1-1.04.14-1.65.14-1.17,0-2.14-.24-2.9-.73s-1.33-1.17-1.69-2.05c-.36-.88-.54-1.91-.54-3.08,0-.86.12-1.66.35-2.38.23-.72.58-1.34,1.03-1.86.45-.52,1.01-.93,1.68-1.22.67-.29,1.43-.43,2.3-.43.57,0,1.13.07,1.7.22.57.14,1.12.34,1.64.58l-.78,1.97c-.43-.2-.86-.38-1.29-.53-.43-.15-.86-.22-1.27-.22Z"/>
    <path class="cls-6" d="M82.92,70.72l-.83-2.72h-4.16l-.83,2.72h-2.61l4.03-11.47h2.96l4.05,11.47h-2.61ZM80.68,63.32c-.05-.18-.12-.41-.21-.69-.09-.28-.17-.56-.26-.85-.08-.29-.15-.54-.21-.75-.05.21-.12.48-.22.79s-.18.61-.26.9-.14.48-.18.6l-.82,2.66h2.98l-.83-2.66Z"/>
    <path class="cls-6" d="M90.62,59.3c1.47,0,2.55.32,3.22.95.68.63,1.02,1.51,1.02,2.62,0,.5-.08.98-.22,1.43-.15.45-.4.86-.74,1.22-.35.36-.8.64-1.37.84-.57.2-1.26.3-2.1.3h-1.04v4.06h-2.42v-11.42h3.65ZM90.49,61.28h-1.1v3.39h.8c.46,0,.85-.06,1.18-.18.33-.12.59-.3.77-.56.18-.26.27-.59.27-.99,0-.57-.15-.98-.46-1.26-.31-.27-.79-.41-1.46-.41Z"/>
  </g>
</svg>