<?xml version="1.0" encoding="UTF-8"?>
<svg id="Logos" xmlns="http://www.w3.org/2000/svg" viewBox="0 0 150 150">
  <defs>
    <style>
      .cls-1 {
        fill: #fff;
      }

      .cls-1, .cls-2, .cls-3 {
        stroke-miterlimit: 10;
      }

      .cls-1, .cls-3 {
        stroke: #c8102e;
        stroke-width: 2px;
      }

      .cls-2 {
        fill: none;
        stroke: #50595e;
        stroke-width: 1.25px;
      }

      .cls-3, .cls-4 {
        fill: #c8102e;
      }

      .cls-5 {
        fill: #50595e;
      }

      .cls-6 {
        fill: #20282f;
      }
    </style>
  </defs>
  <path class="cls-3" d="M75,11.75C38.17,11.75,8.32,41.61,8.32,78.43c0,18.37,7.43,35,19.45,47.06,1.71-1.56,3.5-3.03,5.36-4.42-11.05-10.84-17.91-25.94-17.91-42.64,0-33.01,26.76-59.78,59.78-59.78s59.78,26.76,59.78,59.78c0,16.71-6.86,31.8-17.91,42.64,1.86,1.39,3.65,2.86,5.36,4.42,12.02-12.06,19.45-28.69,19.45-47.06,0-36.83-29.85-66.68-66.68-66.68Z"/>
  <circle class="cls-1" cx="75" cy="78.58" r="59.67"/>
  <g>
    <path class="cls-5" d="M48.96,119.83v-7.27h2.73c.56,0,1.03.1,1.41.31.38.21.67.5.86.86s.29.78.29,1.24-.1.88-.29,1.24c-.2.36-.49.65-.87.85-.38.21-.86.31-1.42.31h-1.81v-1.08h1.63c.33,0,.59-.06.8-.17.21-.11.36-.27.46-.47.1-.2.15-.43.15-.69s-.05-.49-.15-.68-.25-.35-.46-.46-.48-.17-.81-.17h-1.21v6.17h-1.32Z"/>
    <path class="cls-5" d="M56.63,112.55v7.27h-1.29v-7.27h1.29Z"/>
    <path class="cls-5" d="M61.43,117.53v-3.16h1.29v5.46h-1.25v-.97h-.06c-.12.31-.33.56-.61.75-.28.19-.63.29-1.04.29-.36,0-.67-.08-.95-.24s-.49-.39-.64-.7c-.15-.31-.23-.68-.23-1.11v-3.47h1.29v3.27c0,.35.09.62.28.82.19.2.44.3.75.3.19,0,.37-.05.55-.14.18-.09.32-.23.44-.41.11-.18.17-.41.17-.69Z"/>
    <path class="cls-5" d="M68.34,115.81l-1.17.13c-.03-.12-.09-.23-.17-.33-.08-.1-.19-.19-.33-.25-.14-.06-.31-.1-.5-.1-.27,0-.49.06-.67.17-.18.12-.27.27-.27.45,0,.16.06.29.18.39.12.1.32.18.59.25l.93.2c.52.11.9.29,1.15.53s.38.56.38.95c0,.34-.1.65-.3.91-.2.26-.47.47-.82.61-.35.15-.75.22-1.21.22-.67,0-1.21-.14-1.61-.42s-.65-.67-.73-1.17l1.25-.12c.06.25.18.43.36.56.18.13.43.19.72.19s.55-.06.74-.19c.19-.12.28-.28.28-.46,0-.16-.06-.29-.18-.39-.12-.1-.3-.18-.56-.23l-.93-.2c-.52-.11-.91-.29-1.16-.55-.25-.26-.38-.59-.37-.99,0-.34.09-.63.28-.88.19-.25.45-.44.78-.58.33-.14.72-.2,1.15-.2.64,0,1.14.14,1.51.41s.6.64.68,1.1Z"/>
    <path class="cls-5" d="M76.01,114.55c-.03-.31-.17-.55-.42-.72s-.56-.26-.95-.26c-.27,0-.51.04-.71.12s-.35.2-.45.34c-.1.14-.16.3-.16.49,0,.15.04.28.11.39.07.11.17.21.29.28.12.08.25.14.4.19.15.05.29.1.44.13l.68.17c.27.06.54.15.79.26.25.11.48.25.69.41.2.17.36.37.48.6s.18.51.18.82c0,.43-.11.8-.33,1.12-.22.32-.53.58-.94.76-.41.18-.91.27-1.49.27s-1.06-.09-1.47-.26c-.42-.17-.74-.43-.97-.77s-.36-.75-.38-1.23h1.3c.02.25.1.46.23.63s.32.29.54.38c.22.08.47.12.74.12s.54-.04.75-.13c.22-.09.39-.21.51-.36s.19-.34.19-.54c0-.19-.06-.35-.17-.47-.11-.12-.26-.23-.46-.31s-.42-.16-.68-.23l-.83-.21c-.6-.15-1.07-.39-1.42-.7s-.52-.73-.52-1.25c0-.43.12-.8.35-1.13.23-.32.55-.57.95-.75.4-.18.86-.27,1.37-.27s.97.09,1.36.27c.39.18.7.43.92.74.22.32.34.68.34,1.09h-1.27Z"/>
    <path class="cls-5" d="M80.91,119.93c-.55,0-1.02-.11-1.42-.34s-.7-.55-.92-.97c-.21-.42-.32-.92-.32-1.49s.11-1.05.32-1.48c.21-.42.51-.76.9-.99s.84-.36,1.36-.36c.34,0,.65.05.95.16s.56.27.8.5c.23.22.41.51.54.86s.2.76.2,1.24v.39h-4.47v-.87h3.24c0-.25-.06-.47-.16-.66-.1-.19-.25-.34-.43-.46-.19-.11-.4-.17-.65-.17-.26,0-.49.06-.69.19-.2.13-.35.29-.46.5-.11.2-.17.43-.17.67v.76c0,.32.06.59.17.82.12.23.28.4.49.52.21.12.45.18.73.18.19,0,.36-.03.51-.08.15-.05.28-.13.39-.24.11-.1.2-.23.25-.39l1.2.14c-.08.32-.22.59-.43.83-.21.24-.48.42-.81.55s-.71.19-1.13.19Z"/>
    <path class="cls-5" d="M84.42,119.83v-5.46h1.25v.91h.06c.1-.31.27-.56.51-.73.24-.17.52-.26.83-.26.07,0,.15,0,.24,0s.16.02.22.03v1.18c-.05-.02-.14-.04-.26-.05s-.23-.02-.34-.02c-.23,0-.45.05-.63.15s-.33.24-.44.42-.16.38-.16.61v3.21h-1.29Z"/>
    <path class="cls-5" d="M89.03,113.6c-.2,0-.38-.07-.53-.21-.15-.14-.22-.3-.22-.49s.07-.36.22-.5c.15-.14.32-.21.53-.21s.38.07.53.21c.15.14.22.3.22.5s-.07.36-.22.49c-.15.14-.32.21-.53.21ZM88.39,119.83v-5.46h1.29v5.46h-1.29Z"/>
    <path class="cls-5" d="M93.41,119.93c-.55,0-1.02-.11-1.42-.34s-.7-.55-.91-.97c-.21-.42-.32-.92-.32-1.49s.11-1.05.32-1.48c.21-.42.51-.76.9-.99.39-.24.84-.36,1.36-.36.34,0,.65.05.95.16.3.11.56.27.79.5.23.22.41.51.54.86.13.35.2.76.2,1.24v.39h-4.47v-.87h3.24c0-.25-.06-.47-.16-.66-.1-.19-.25-.34-.44-.46s-.4-.17-.65-.17c-.26,0-.49.06-.69.19-.2.13-.35.29-.46.5-.11.2-.17.43-.17.67v.76c0,.32.06.59.17.82.12.23.28.4.49.52.21.12.45.18.73.18.19,0,.36-.03.51-.08.15-.05.28-.13.39-.24.11-.1.2-.23.25-.39l1.2.14c-.08.32-.22.59-.43.83-.21.24-.48.42-.81.55s-.71.19-1.13.19Z"/>
    <path class="cls-5" d="M101.23,115.81l-1.17.13c-.03-.12-.09-.23-.17-.33-.08-.1-.19-.19-.33-.25-.14-.06-.31-.1-.5-.1-.27,0-.49.06-.67.17-.18.12-.27.27-.27.45,0,.16.06.29.18.39.12.1.32.18.59.25l.93.2c.52.11.9.29,1.15.53s.38.56.38.95c0,.34-.1.65-.3.91-.2.26-.47.47-.82.61-.35.15-.75.22-1.21.22-.67,0-1.21-.14-1.61-.42-.41-.28-.65-.67-.73-1.17l1.25-.12c.06.25.18.43.36.56.18.13.42.19.72.19s.55-.06.74-.19c.19-.12.28-.28.28-.46,0-.16-.06-.29-.18-.39-.12-.1-.3-.18-.56-.23l-.93-.2c-.52-.11-.91-.29-1.16-.55-.25-.26-.38-.59-.37-.99,0-.34.09-.63.28-.88.19-.25.45-.44.78-.58.33-.14.72-.2,1.15-.2.64,0,1.14.14,1.51.41s.6.64.68,1.1Z"/>
  </g>
  <g>
    <path class="cls-4" d="M56.5,42.96c-1.79,0-3.2,1.2-3.2,2.72,0,1.52,1.41,2.7,3.2,2.7,1.79,0,3.2-1.18,3.2-2.7,0-1.52-1.41-2.72-3.2-2.72M56.5,50.21c-2.82,0-5.03-1.98-5.03-4.53,0-2.55,2.21-4.55,5.03-4.55,2.82,0,5.03,2,5.03,4.55,0,2.55-2.21,4.53-5.03,4.53"/>
    <path class="cls-4" d="M74.48,50.21c-1.01,0-1.83-.84-1.83-1.87v-3.77c0-.9-.78-1.62-1.75-1.62-.95,0-1.73.72-1.73,1.62v5.64c-1.01,0-1.83-.82-1.83-1.83v-3.81c0-.9-.78-1.62-1.75-1.62s-1.74.72-1.74,1.62v3.79c0,1.01-.82,1.85-1.83,1.85v-5.64c0-1.9,1.6-3.45,3.56-3.45,1.06,0,2.02.44,2.66,1.14.65-.71,1.6-1.14,2.65-1.14,1.98,0,3.58,1.54,3.58,3.45v5.64Z"/>
    <path class="cls-4" d="M80.42,50.2c-.48,0-.93-.04-1.35-.13-.95-.27-1.51-1.26-1.26-2.21.04-.11.07-.23.11-.32l.02-.02c.51.57,1.35.86,2.48.86,1.68,0,2.99-1.18,2.99-2.67s-1.31-2.76-2.99-2.76c-1.58,0-3.16.88-3.16,2.8v5.92c0,.99-.84,1.79-1.83,1.79v-7.71c0-2.67,2.1-4.63,4.99-4.63,1.28,0,2.47.48,3.39,1.31.92.86,1.43,2.02,1.43,3.28,0,2.52-2.11,4.49-4.82,4.49"/>
    <path class="cls-4" d="M93.46,39.4h-3.91s0,10.82,0,10.82h-.08c-.97,0-1.75-.84-1.75-1.83v-8.99s-3.91,0-3.91,0c-.99,0-1.79-.82-1.79-1.81h13.26c0,.99-.8,1.81-1.81,1.81"/>
    <path class="cls-4" d="M105.06,39.47l-2.6,5.71h4.9s-2.62-5.73-2.62-5.73l.31.02ZM109.11,49.07l-.97-2.09h-6.49s-.96,2.15-.96,2.15c-.45.86-1.66,1.12-2.58,1.12l5.29-11.61c.3-.67.83-1.05,1.45-1.05.62,0,1.16.38,1.47,1.05l5.23,11.47c-.98.09-2.06-.2-2.44-1.04"/>
    <path class="cls-4" d="M49.42,41c-.99-1.05-2.44-1.73-4.04-1.73-2.84,0-5.14,2.06-5.14,4.59,0,2.53,2.31,4.61,5.14,4.61,1.35,0,2.63-.51,3.6-1.33.67-.55,1.66-.51,2.31.04-.5.76-1.16,1.43-1.98,1.94-1.16.74-2.52,1.12-3.92,1.12-3.83,0-6.93-2.86-6.93-6.38,0-3.52,3.1-6.38,6.93-6.38,2.72,0,5.2,1.49,6.3,3.77-.7.46-1.68.4-2.27-.25"/>
    <path class="cls-4" d="M95.85,37.59v10.85c0,.97.84,1.77,1.83,1.77v-10.85c0-.97-.84-1.77-1.83-1.77"/>
  </g>
  <g>
    <rect class="cls-2" x="35" y="90.57" width="80" height="13.5" rx="6.75" ry="6.75"/>
    <g>
      <path class="cls-5" d="M45.97,96.25h-1.2c-.03-.2-.1-.37-.19-.52-.09-.15-.21-.28-.34-.39-.14-.11-.29-.19-.46-.24-.17-.05-.36-.08-.56-.08-.36,0-.67.09-.95.27-.28.18-.49.44-.65.78s-.23.76-.23,1.25.08.92.23,1.26c.16.34.37.6.65.77.27.17.59.26.94.26.2,0,.38-.03.55-.08.17-.05.33-.13.46-.23.14-.1.25-.23.35-.38s.16-.32.2-.51h1.2c-.04.32-.14.61-.29.88-.15.27-.34.51-.58.72-.24.21-.52.37-.84.49s-.67.17-1.06.17c-.58,0-1.09-.13-1.54-.4-.45-.27-.81-.65-1.07-1.15-.26-.5-.39-1.11-.39-1.81s.13-1.31.39-1.81c.26-.5.62-.89,1.07-1.15.45-.27.96-.4,1.53-.4.36,0,.7.05,1.02.15.31.1.59.25.84.45.25.2.45.44.61.72.16.28.26.61.31.97Z"/>
      <path class="cls-5" d="M47.24,100.59v-6.55h4.26v.99h-3.07v1.78h2.85v.99h-2.85v1.79h3.1v.99h-4.28Z"/>
      <path class="cls-5" d="M52.89,100.59v-6.55h2.45c.5,0,.93.09,1.27.26.34.17.6.42.78.73s.26.68.26,1.1-.09.78-.27,1.09c-.18.31-.44.55-.79.71-.34.17-.77.25-1.27.25h-1.75v-.98h1.59c.29,0,.54-.04.72-.12s.33-.2.42-.36c.09-.16.14-.35.14-.59s-.05-.43-.14-.6c-.09-.17-.23-.29-.42-.38-.19-.09-.43-.13-.73-.13h-1.09v5.55h-1.19ZM56.27,97.62l1.62,2.97h-1.32l-1.59-2.97h1.29Z"/>
      <path class="cls-5" d="M58.64,95.04v-.99h5.22v.99h-2.02v5.55h-1.18v-5.55h-2.02Z"/>
      <path class="cls-5" d="M66.23,94.04v6.55h-1.19v-6.55h1.19Z"/>
      <path class="cls-5" d="M67.7,100.59v-6.55h4.19v.99h-3.01v1.78h2.72v.99h-2.72v2.78h-1.19Z"/>
      <path class="cls-5" d="M74.33,94.04v6.55h-1.19v-6.55h1.19Z"/>
      <path class="cls-5" d="M81.4,96.25h-1.2c-.03-.2-.1-.37-.19-.52-.09-.15-.21-.28-.34-.39-.14-.11-.29-.19-.46-.24-.17-.05-.36-.08-.56-.08-.36,0-.67.09-.95.27-.28.18-.49.44-.65.78s-.23.76-.23,1.25.08.92.23,1.26c.16.34.37.6.65.77.27.17.59.26.94.26.2,0,.38-.03.55-.08.17-.05.33-.13.46-.23.14-.1.25-.23.35-.38s.16-.32.2-.51h1.2c-.04.32-.14.61-.29.88-.15.27-.34.51-.58.72-.24.21-.52.37-.84.49s-.67.17-1.06.17c-.58,0-1.09-.13-1.54-.4-.45-.27-.81-.65-1.07-1.15-.26-.5-.39-1.11-.39-1.81s.13-1.31.39-1.81c.26-.5.62-.89,1.07-1.15.45-.27.96-.4,1.53-.4.36,0,.7.05,1.02.15.31.1.59.25.84.45.25.2.45.44.61.72.16.28.26.61.31.97Z"/>
      <path class="cls-5" d="M83.43,100.59h-1.27l2.3-6.55h1.46l2.31,6.55h-1.27l-1.75-5.2h-.05l-1.75,5.2ZM83.47,98.02h3.45v.95h-3.45v-.95Z"/>
      <path class="cls-5" d="M88.2,95.04v-.99h5.22v.99h-2.02v5.55h-1.18v-5.55h-2.02Z"/>
      <path class="cls-5" d="M95.8,94.04v6.55h-1.19v-6.55h1.19Z"/>
      <path class="cls-5" d="M103.11,97.31c0,.71-.13,1.31-.39,1.81-.26.5-.62.89-1.07,1.15-.45.27-.97.4-1.54.4s-1.09-.13-1.54-.4c-.45-.27-.81-.65-1.07-1.15-.26-.5-.39-1.1-.39-1.81s.13-1.31.39-1.81c.26-.5.62-.89,1.07-1.15.45-.27.97-.4,1.54-.4s1.09.13,1.54.4c.45.27.81.65,1.07,1.15.26.5.39,1.11.39,1.81ZM101.92,97.31c0-.5-.08-.92-.23-1.26-.15-.34-.37-.6-.64-.78s-.59-.26-.94-.26-.67.09-.94.26-.49.43-.64.78c-.15.34-.23.76-.23,1.26s.08.92.23,1.26.37.6.64.78.59.26.94.26.67-.09.94-.26.49-.44.64-.78.23-.76.23-1.26Z"/>
      <path class="cls-5" d="M109.8,94.04v6.55h-1.05l-3.08-4.46h-.05v4.46h-1.19v-6.55h1.06l3.08,4.46h.06v-4.46h1.18Z"/>
    </g>
  </g>
  <g>
    <path class="cls-6" d="M52.74,79.47h-3.32v-12.94h-4.27v-2.77h11.86v2.77h-4.27v12.94Z"/>
    <path class="cls-6" d="M62.46,67.23c1.11,0,2.07.21,2.87.64.8.43,1.42,1.04,1.86,1.85.44.81.66,1.8.66,2.97v1.58h-7.74c.03.92.3,1.65.83,2.18.52.53,1.24.79,2.17.79.78,0,1.48-.08,2.11-.23.63-.15,1.28-.39,1.96-.71v2.53c-.59.29-1.21.51-1.86.65-.65.14-1.44.21-2.36.21-1.2,0-2.27-.22-3.19-.67-.92-.45-1.65-1.12-2.18-2.03-.53-.91-.79-2.05-.79-3.43s.24-2.58.71-3.51c.48-.93,1.14-1.63,1.99-2.1s1.84-.7,2.97-.7ZM62.48,69.57c-.63,0-1.16.21-1.57.62s-.66,1.05-.74,1.91h4.6c0-.48-.08-.92-.25-1.3-.17-.38-.42-.68-.76-.9-.34-.22-.76-.33-1.28-.33Z"/>
    <path class="cls-6" d="M74.96,79.69c-1.19,0-2.2-.22-3.04-.65-.84-.43-1.47-1.1-1.91-2.01-.44-.91-.66-2.08-.66-3.5s.25-2.66.75-3.59c.5-.92,1.19-1.61,2.08-2.05.89-.44,1.91-.66,3.07-.66.82,0,1.54.08,2.15.24.61.16,1.14.35,1.59.57l-.97,2.53c-.51-.21-.99-.37-1.44-.51s-.89-.2-1.33-.2c-.57,0-1.05.14-1.43.41-.38.27-.66.67-.85,1.21-.18.54-.28,1.21-.28,2.01s.1,1.45.3,1.97c.2.52.49.91.87,1.17.38.26.84.38,1.39.38.69,0,1.3-.09,1.83-.28s1.04-.44,1.54-.76v2.79c-.5.32-1.02.55-1.57.69-.55.14-1.24.21-2.08.21Z"/>
    <path class="cls-6" d="M84.22,66.16c0,.59-.02,1.15-.05,1.69-.04.54-.07.92-.1,1.14h.18c.26-.41.57-.74.92-1,.35-.26.74-.45,1.18-.57.43-.12.89-.19,1.38-.19.87,0,1.62.15,2.27.46s1.15.79,1.51,1.43c.36.65.54,1.48.54,2.51v7.83h-3.28v-7.02c0-.87-.16-1.51-.47-1.95-.32-.43-.8-.65-1.46-.65s-1.18.15-1.55.46-.64.75-.8,1.34c-.16.59-.24,1.31-.24,2.16v5.65h-3.28v-16.72h3.28v3.41Z"/>
    <path class="cls-6" d="M100.65,70.53h4.16v2.35h-4.16v4.14h-2.35v-4.14h-4.16v-2.35h4.16v-4.18h2.35v4.18Z"/>
  </g>
</svg>