<?xml version="1.0" encoding="UTF-8"?>
<svg id="Logos" xmlns="http://www.w3.org/2000/svg" viewBox="0 0 150 150">
  <defs>
    <style>
      .cls-1 {
        fill: #fff;
      }

      .cls-1, .cls-2, .cls-3 {
        stroke-miterlimit: 10;
      }

      .cls-1, .cls-3 {
        stroke: #c8102e;
        stroke-width: 2px;
      }

      .cls-2 {
        fill: none;
        stroke: #50595e;
        stroke-width: 1.25px;
      }

      .cls-3, .cls-4 {
        fill: #c8102e;
      }

      .cls-5 {
        fill: #50595e;
      }

      .cls-6 {
        fill: #20282f;
      }
    </style>
  </defs>
  <path class="cls-3" d="M75,11.75C38.17,11.75,8.32,41.61,8.32,78.43c0,18.37,7.43,35,19.45,47.06,1.71-1.56,3.5-3.03,5.36-4.42-11.05-10.84-17.91-25.94-17.91-42.64,0-33.01,26.76-59.78,59.78-59.78s59.78,26.76,59.78,59.78c0,16.71-6.86,31.8-17.91,42.64,1.86,1.39,3.65,2.86,5.36,4.42,12.02-12.06,19.45-28.69,19.45-47.06,0-36.83-29.85-66.68-66.68-66.68Z"/>
  <circle class="cls-1" cx="75" cy="78.58" r="59.67"/>
  <g>
    <path class="cls-5" d="M55.63,118.55c-.03-.31-.17-.55-.42-.72s-.56-.26-.95-.26c-.27,0-.51.04-.71.12s-.35.2-.45.34-.16.3-.16.49c0,.15.04.28.11.39.07.11.17.21.29.28.12.08.25.14.4.19.15.05.29.1.44.13l.68.17c.27.06.54.15.79.26.25.11.48.25.69.41.2.17.36.37.48.6s.18.51.18.82c0,.43-.11.8-.33,1.12-.22.32-.53.58-.94.76s-.91.27-1.49.27-1.06-.09-1.47-.26c-.42-.17-.74-.43-.97-.77-.23-.34-.36-.75-.38-1.23h1.3c.02.25.1.46.23.63.14.17.32.29.54.38.22.08.47.12.74.12s.54-.04.75-.13c.22-.09.39-.21.51-.36.12-.16.19-.34.19-.55,0-.19-.06-.35-.17-.47-.11-.12-.26-.23-.46-.31s-.42-.16-.68-.23l-.83-.21c-.6-.15-1.07-.39-1.42-.7-.35-.31-.52-.73-.52-1.25,0-.43.12-.8.35-1.13.23-.32.55-.57.95-.75.4-.18.86-.27,1.37-.27s.97.09,1.36.27c.39.18.7.43.92.74.22.32.34.68.34,1.09h-1.27Z"/>
    <path class="cls-5" d="M60.83,118.37v.99h-3.14v-.99h3.14ZM58.47,117.06h1.29v5.12c0,.17.03.3.08.4.05.09.12.15.21.19s.18.05.29.05c.08,0,.15,0,.22-.02.07-.01.12-.02.15-.03l.22,1c-.07.02-.17.05-.29.08-.13.03-.28.04-.46.05-.32,0-.61-.04-.87-.15-.26-.11-.46-.28-.61-.5-.15-.23-.22-.51-.22-.85v-5.33Z"/>
    <path class="cls-5" d="M63.48,123.93c-.35,0-.66-.06-.93-.19-.28-.12-.49-.31-.65-.55-.16-.24-.24-.54-.24-.9,0-.31.06-.56.17-.76.11-.2.27-.36.47-.48.2-.12.42-.21.67-.28.25-.06.5-.11.77-.14.32-.03.58-.06.78-.09.2-.03.34-.07.44-.13.09-.06.14-.15.14-.27v-.02c0-.27-.08-.47-.24-.62-.16-.15-.39-.22-.69-.22-.31,0-.56.07-.75.21s-.31.3-.37.49l-1.2-.17c.09-.33.25-.61.47-.83s.48-.39.8-.5c.31-.11.66-.17,1.04-.17.26,0,.52.03.79.09.26.06.5.16.71.3.22.14.39.33.52.57.13.24.2.54.2.91v3.65h-1.24v-.75h-.04c-.08.15-.19.29-.33.42-.14.13-.32.24-.53.32-.21.08-.46.12-.74.12ZM63.81,122.99c.26,0,.48-.05.67-.15.19-.1.34-.24.44-.41.1-.17.15-.36.15-.56v-.64s-.11.06-.2.09c-.1.03-.2.05-.32.07-.12.02-.24.04-.35.06s-.22.03-.3.04c-.19.03-.36.07-.51.13-.15.06-.27.14-.36.25-.09.11-.13.24-.13.41,0,.24.09.42.26.54s.39.18.66.18Z"/>
    <path class="cls-5" d="M70.03,123.93c-.54,0-1.01-.12-1.4-.36-.39-.24-.69-.57-.9-.99-.21-.42-.31-.91-.31-1.46s.11-1.04.32-1.47c.21-.42.51-.76.9-.99.39-.24.85-.36,1.38-.36.44,0,.83.08,1.18.24.34.16.61.39.82.69.2.29.32.64.35,1.03h-1.23c-.05-.26-.17-.48-.35-.66s-.43-.26-.74-.26c-.26,0-.49.07-.69.21-.2.14-.35.34-.46.61-.11.26-.17.58-.17.94s.05.69.16.96c.11.27.26.47.46.61.2.14.43.21.7.21.19,0,.36-.04.51-.11s.28-.18.38-.31c.1-.14.17-.3.21-.5h1.23c-.03.39-.14.73-.34,1.02-.2.3-.46.53-.8.7-.34.17-.74.25-1.19.25Z"/>
    <path class="cls-5" d="M73.43,123.82v-7.27h1.29v7.27h-1.29ZM74.6,122.11v-1.55s.2,0,.2,0l1.96-2.19h1.5l-2.41,2.68h-.27l-.99,1.06ZM76.85,123.82l-1.78-2.48.87-.91,2.45,3.39h-1.54Z"/>
    <path class="cls-5" d="M80.69,123.93c-.35,0-.66-.06-.93-.19-.28-.12-.49-.31-.65-.55-.16-.24-.24-.54-.24-.9,0-.31.06-.56.17-.76.11-.2.27-.36.46-.48.2-.12.42-.21.67-.28.25-.06.5-.11.77-.14.32-.03.58-.06.78-.09.2-.03.34-.07.43-.13s.14-.15.14-.27v-.02c0-.27-.08-.47-.24-.62-.16-.15-.39-.22-.68-.22-.32,0-.56.07-.75.21s-.31.3-.37.49l-1.2-.17c.09-.33.25-.61.47-.83s.48-.39.8-.5c.32-.11.66-.17,1.04-.17.26,0,.52.03.79.09s.5.16.71.3c.22.14.39.33.52.57.13.24.2.54.2.91v3.65h-1.24v-.75h-.04c-.08.15-.19.29-.33.42-.14.13-.32.24-.53.32-.21.08-.46.12-.74.12ZM81.02,122.99c.26,0,.48-.05.67-.15.19-.1.34-.24.44-.41.1-.17.15-.36.15-.56v-.64s-.11.06-.2.09c-.1.03-.2.05-.32.07-.12.02-.24.04-.35.06-.12.02-.22.03-.3.04-.19.03-.36.07-.51.13-.15.06-.27.14-.36.25s-.13.24-.13.41c0,.24.09.42.26.54s.39.18.66.18Z"/>
    <path class="cls-5" d="M84.92,123.82v-7.27h1.29v2.72h.05c.07-.13.16-.27.28-.42s.28-.28.49-.39c.21-.11.47-.16.79-.16.42,0,.8.11,1.14.32s.61.53.81.95c.2.42.3.93.3,1.54s-.1,1.11-.29,1.53c-.2.42-.46.74-.8.96s-.72.33-1.15.33c-.31,0-.57-.05-.78-.16-.21-.1-.37-.23-.5-.38s-.22-.29-.29-.42h-.08v.86h-1.26ZM86.18,121.09c0,.35.05.66.15.93s.25.47.44.62c.19.15.42.22.69.22s.52-.08.71-.23c.19-.15.34-.36.44-.63.1-.27.15-.57.15-.91s-.05-.64-.15-.9c-.1-.26-.24-.47-.43-.62-.19-.15-.43-.22-.72-.22s-.51.07-.7.22c-.19.14-.34.35-.43.61-.1.26-.15.57-.15.92Z"/>
    <path class="cls-5" d="M92.45,116.55v7.27h-1.29v-7.27h1.29Z"/>
    <path class="cls-5" d="M96.19,123.93c-.55,0-1.02-.11-1.42-.34-.4-.23-.7-.55-.92-.97-.21-.42-.32-.92-.32-1.49s.11-1.05.32-1.48c.21-.42.51-.76.9-.99.39-.24.84-.36,1.36-.36.34,0,.65.05.95.16.3.11.57.27.8.5.23.23.41.51.54.86.13.35.2.76.2,1.24v.39h-4.47v-.87h3.24c0-.25-.06-.47-.16-.66-.1-.19-.25-.35-.43-.46-.19-.11-.4-.17-.65-.17-.26,0-.49.06-.69.19-.2.13-.35.29-.46.5-.11.2-.17.43-.17.67v.76c0,.32.06.59.17.81s.28.4.49.52.45.18.73.18c.19,0,.36-.03.51-.08s.28-.13.39-.24.2-.23.25-.39l1.2.14c-.08.32-.22.59-.43.83-.21.24-.48.42-.81.55s-.71.19-1.13.19Z"/>
  </g>
  <g>
    <path class="cls-4" d="M56.5,42.96c-1.79,0-3.2,1.2-3.2,2.72,0,1.52,1.41,2.7,3.2,2.7,1.79,0,3.2-1.18,3.2-2.7,0-1.52-1.41-2.72-3.2-2.72M56.5,50.21c-2.82,0-5.03-1.98-5.03-4.53,0-2.55,2.21-4.55,5.03-4.55,2.82,0,5.03,2,5.03,4.55,0,2.55-2.21,4.53-5.03,4.53"/>
    <path class="cls-4" d="M74.48,50.21c-1.01,0-1.83-.84-1.83-1.87v-3.77c0-.9-.78-1.62-1.75-1.62-.95,0-1.73.72-1.73,1.62v5.64c-1.01,0-1.83-.82-1.83-1.83v-3.81c0-.9-.78-1.62-1.75-1.62-.95,0-1.74.72-1.74,1.62v3.79c0,1.01-.82,1.85-1.83,1.85v-5.64c0-1.9,1.6-3.45,3.56-3.45,1.06,0,2.02.44,2.66,1.14.65-.71,1.6-1.14,2.65-1.14,1.98,0,3.58,1.54,3.58,3.45v5.64Z"/>
    <path class="cls-4" d="M80.42,50.2c-.48,0-.93-.04-1.35-.13-.95-.27-1.51-1.26-1.26-2.21.04-.11.07-.23.11-.32l.02-.02c.51.57,1.35.86,2.48.86,1.68,0,2.99-1.18,2.99-2.67s-1.31-2.76-2.99-2.76c-1.58,0-3.16.88-3.16,2.8v5.92c0,.99-.84,1.79-1.83,1.79v-7.71c0-2.67,2.1-4.63,4.99-4.63,1.28,0,2.47.48,3.39,1.31.92.86,1.43,2.02,1.43,3.28,0,2.52-2.11,4.49-4.82,4.49"/>
    <path class="cls-4" d="M93.46,39.4h-3.91s0,10.82,0,10.82h-.08c-.97,0-1.75-.84-1.75-1.83v-8.99s-3.91,0-3.91,0c-.99,0-1.79-.82-1.79-1.81h13.26c0,.99-.8,1.81-1.81,1.81"/>
    <path class="cls-4" d="M105.06,39.47l-2.6,5.71h4.9s-2.62-5.73-2.62-5.73l.31.02ZM109.11,49.07l-.97-2.09h-6.49s-.96,2.15-.96,2.15c-.45.86-1.66,1.12-2.58,1.12l5.29-11.61c.3-.67.83-1.05,1.45-1.05.62,0,1.16.38,1.47,1.05l5.23,11.47c-.98.09-2.06-.2-2.44-1.04"/>
    <path class="cls-4" d="M49.42,41c-.99-1.05-2.44-1.73-4.04-1.73-2.84,0-5.14,2.06-5.14,4.59,0,2.53,2.31,4.61,5.14,4.61,1.35,0,2.63-.51,3.6-1.33.67-.55,1.66-.51,2.31.04-.5.76-1.16,1.43-1.98,1.94-1.16.74-2.52,1.12-3.92,1.12-3.83,0-6.93-2.86-6.93-6.38s3.1-6.38,6.93-6.38c2.72,0,5.2,1.49,6.3,3.77-.7.46-1.68.4-2.27-.25"/>
    <path class="cls-4" d="M95.85,37.59v10.85c0,.97.84,1.77,1.83,1.77v-10.85c0-.97-.84-1.77-1.83-1.77"/>
  </g>
  <g>
    <rect class="cls-2" x="35" y="94.57" width="80" height="13.5" rx="6.75" ry="6.75"/>
    <g>
      <path class="cls-5" d="M45.97,100.25h-1.2c-.03-.2-.1-.37-.19-.52s-.21-.28-.34-.39c-.14-.11-.29-.19-.47-.24-.17-.05-.36-.08-.56-.08-.36,0-.67.09-.95.27s-.49.44-.65.78-.23.76-.23,1.25.08.92.23,1.26c.16.34.37.6.65.77.27.17.59.26.94.26.2,0,.38-.03.55-.08s.33-.13.46-.23c.14-.1.25-.23.35-.38.09-.15.16-.32.2-.51h1.2c-.04.32-.14.61-.29.88-.15.27-.34.51-.58.72-.24.21-.52.37-.84.49-.32.12-.67.17-1.06.17-.58,0-1.09-.13-1.54-.4-.45-.27-.81-.65-1.07-1.15-.26-.5-.39-1.11-.39-1.81s.13-1.31.39-1.81c.26-.5.62-.89,1.07-1.15.45-.27.96-.4,1.53-.4.36,0,.7.05,1.02.15.31.1.59.25.84.45.24.2.45.44.61.72.16.28.26.61.31.97Z"/>
      <path class="cls-5" d="M47.24,104.58v-6.55h4.26v.99h-3.07v1.78h2.85v.99h-2.85v1.79h3.1v.99h-4.28Z"/>
      <path class="cls-5" d="M52.89,104.58v-6.55h2.45c.5,0,.93.09,1.27.26.34.17.6.42.78.73s.26.68.26,1.1-.09.78-.27,1.09c-.18.31-.44.55-.79.71-.34.17-.77.25-1.27.25h-1.75v-.98h1.59c.29,0,.54-.04.72-.12s.33-.2.42-.36c.09-.16.13-.35.13-.59s-.04-.43-.14-.6c-.09-.17-.23-.29-.42-.38s-.43-.13-.73-.13h-1.09v5.55h-1.19ZM56.27,101.62l1.62,2.97h-1.32l-1.59-2.97h1.29Z"/>
      <path class="cls-5" d="M58.64,99.03v-.99h5.22v.99h-2.02v5.55h-1.18v-5.55h-2.02Z"/>
      <path class="cls-5" d="M66.23,98.04v6.55h-1.19v-6.55h1.19Z"/>
      <path class="cls-5" d="M67.7,104.58v-6.55h4.19v.99h-3.01v1.78h2.72v.99h-2.72v2.78h-1.19Z"/>
      <path class="cls-5" d="M74.33,98.04v6.55h-1.19v-6.55h1.19Z"/>
      <path class="cls-5" d="M81.4,100.25h-1.2c-.03-.2-.1-.37-.19-.52s-.21-.28-.34-.39c-.14-.11-.29-.19-.47-.24-.17-.05-.36-.08-.56-.08-.36,0-.67.09-.95.27s-.49.44-.65.78-.23.76-.23,1.25.08.92.23,1.26c.16.34.37.6.65.77.27.17.59.26.94.26.2,0,.38-.03.55-.08s.33-.13.46-.23c.14-.1.25-.23.35-.38.09-.15.16-.32.2-.51h1.2c-.04.32-.14.61-.29.88-.15.27-.34.51-.58.72-.24.21-.52.37-.84.49-.32.12-.67.17-1.06.17-.58,0-1.09-.13-1.54-.4-.45-.27-.81-.65-1.07-1.15-.26-.5-.39-1.11-.39-1.81s.13-1.31.39-1.81c.26-.5.62-.89,1.07-1.15.45-.27.96-.4,1.53-.4.36,0,.7.05,1.02.15.31.1.59.25.84.45.24.2.45.44.61.72.16.28.26.61.31.97Z"/>
      <path class="cls-5" d="M83.43,104.58h-1.27l2.3-6.55h1.46l2.31,6.55h-1.27l-1.75-5.2h-.05l-1.75,5.2ZM83.47,102.02h3.45v.95h-3.45v-.95Z"/>
      <path class="cls-5" d="M88.2,99.03v-.99h5.22v.99h-2.02v5.55h-1.18v-5.55h-2.02Z"/>
      <path class="cls-5" d="M95.8,98.04v6.55h-1.19v-6.55h1.19Z"/>
      <path class="cls-5" d="M103.11,101.31c0,.71-.13,1.31-.39,1.81-.26.5-.62.89-1.07,1.15-.45.27-.97.4-1.54.4s-1.09-.13-1.54-.4c-.45-.27-.81-.65-1.07-1.15-.26-.5-.39-1.1-.39-1.81s.13-1.31.39-1.81c.26-.5.62-.89,1.07-1.15.45-.27.97-.4,1.54-.4s1.09.13,1.54.4c.45.27.81.65,1.07,1.15.26.5.39,1.11.39,1.81ZM101.92,101.31c0-.5-.08-.92-.23-1.26-.15-.34-.37-.6-.64-.78s-.59-.26-.94-.26-.67.09-.94.26-.49.43-.64.78c-.15.34-.23.76-.23,1.26s.08.92.23,1.26.37.6.64.78.59.26.94.26.67-.09.94-.26.49-.44.64-.78.23-.76.23-1.26Z"/>
      <path class="cls-5" d="M109.8,98.04v6.55h-1.05l-3.08-4.46h-.05v4.46h-1.19v-6.55h1.06l3.08,4.46h.06v-4.46h1.18Z"/>
    </g>
  </g>
  <g>
    <path class="cls-5" d="M51.42,74.51v5.82h-1.05v-5.82h1.05Z"/>
    <path class="cls-5" d="M52.15,75.39v-.88h4.64v.88h-1.8v4.93h-1.05v-4.93h-1.8Z"/>
    <path class="cls-5" d="M64.54,77.42c0,.63-.12,1.16-.35,1.61-.23.45-.55.79-.96,1.02-.4.24-.86.35-1.37.35s-.97-.12-1.37-.36c-.4-.24-.72-.58-.95-1.03s-.35-.98-.35-1.61.12-1.16.35-1.61.55-.79.95-1.02c.4-.24.86-.36,1.37-.36s.96.12,1.37.36c.4.24.72.58.96,1.02.23.45.35.98.35,1.61ZM63.48,77.42c0-.44-.07-.81-.21-1.12s-.33-.53-.57-.69c-.24-.16-.52-.23-.84-.23s-.6.08-.84.23c-.24.16-.43.39-.57.69-.14.3-.21.68-.21,1.12s.07.81.21,1.12c.14.3.33.53.57.69.24.16.52.23.84.23s.59-.08.84-.23c.24-.16.43-.39.57-.69.14-.3.21-.68.21-1.12Z"/>
    <path class="cls-5" d="M65.34,81.96v-6h1.01v.72h.06c.05-.11.13-.22.22-.34s.23-.22.39-.31c.17-.09.38-.13.63-.13.34,0,.64.09.91.26.27.17.49.42.65.76.16.33.24.74.24,1.23s-.08.89-.24,1.22c-.16.34-.37.59-.64.77-.27.18-.58.26-.92.26-.25,0-.46-.04-.62-.12-.16-.08-.3-.18-.4-.3-.1-.12-.18-.23-.23-.34h-.04v2.32h-1.03ZM66.35,78.15c0,.28.04.53.12.74s.2.38.35.5c.15.12.34.18.56.18s.42-.06.57-.18c.15-.12.27-.29.35-.5.08-.21.12-.46.12-.73s-.04-.51-.12-.72c-.08-.21-.19-.38-.35-.5-.15-.12-.34-.18-.57-.18s-.41.06-.56.17c-.15.12-.27.28-.35.49s-.12.45-.12.74Z"/>
    <path class="cls-5" d="M72.11,80.41c-.44,0-.81-.09-1.13-.27-.32-.18-.56-.44-.73-.78-.17-.34-.26-.73-.26-1.19s.09-.84.26-1.18.41-.61.72-.79c.31-.19.67-.29,1.09-.29.27,0,.52.04.76.13.24.09.45.22.64.4.18.18.33.41.44.69.11.28.16.61.16.99v.32h-3.58v-.69h2.59c0-.2-.04-.37-.13-.53-.08-.15-.2-.28-.35-.37s-.32-.13-.52-.13c-.21,0-.4.05-.55.15-.16.1-.28.23-.37.4-.09.16-.13.34-.13.54v.6c0,.25.05.47.14.65.09.18.22.32.39.42s.36.14.58.14c.15,0,.29-.02.41-.06.12-.04.23-.11.32-.19.09-.08.16-.19.2-.31l.96.11c-.06.25-.18.48-.34.66-.17.19-.39.33-.65.44-.26.1-.56.16-.9.16Z"/>
    <path class="cls-5" d="M74.76,80.33v-4.36h1v.73h.04c.08-.25.22-.45.41-.58.19-.14.42-.21.67-.21.06,0,.12,0,.19,0,.07,0,.13.01.18.02v.95s-.11-.03-.21-.04-.18-.02-.27-.02c-.19,0-.36.04-.5.12-.15.08-.27.19-.35.33-.08.14-.13.31-.13.49v2.57h-1.03Z"/>
    <path class="cls-5" d="M78.94,80.42c-.28,0-.53-.05-.75-.15s-.39-.25-.52-.44-.19-.44-.19-.72c0-.25.05-.45.14-.61.09-.16.21-.29.37-.39.16-.1.33-.17.53-.22.2-.05.4-.09.61-.11.26-.03.46-.05.62-.07.16-.02.28-.06.35-.1.07-.05.11-.12.11-.22v-.02c0-.21-.06-.38-.19-.5-.13-.12-.31-.18-.55-.18-.25,0-.45.05-.6.17-.15.11-.25.24-.3.39l-.96-.14c.08-.27.2-.49.38-.67.17-.18.39-.31.64-.4.25-.09.53-.13.84-.13.21,0,.42.02.63.07.21.05.4.13.57.24.17.11.31.27.42.46.11.19.16.43.16.72v2.92h-.99v-.6h-.03c-.06.12-.15.23-.26.34-.11.1-.25.19-.42.25-.17.06-.37.1-.6.1ZM79.21,79.66c.21,0,.38-.04.54-.12.15-.08.27-.19.35-.33.08-.14.12-.29.12-.45v-.51s-.09.05-.16.07c-.08.02-.16.04-.26.06-.09.02-.19.03-.28.05-.09.01-.17.02-.24.03-.15.02-.29.06-.41.1-.12.05-.22.11-.29.2-.07.08-.11.19-.11.33,0,.19.07.33.21.43s.31.14.53.14Z"/>
    <path class="cls-5" d="M84.3,75.96v.8h-2.51v-.8h2.51ZM82.41,74.92h1.03v4.1c0,.14.02.24.06.32s.1.12.17.15c.07.03.15.04.23.04.06,0,.12,0,.18-.01.05,0,.1-.02.12-.03l.17.8c-.05.02-.13.04-.23.06s-.22.04-.37.04c-.26,0-.49-.03-.7-.12-.21-.09-.37-.22-.49-.4-.12-.18-.18-.41-.18-.68v-4.27Z"/>
    <path class="cls-5" d="M85.52,75.34c-.16,0-.3-.05-.42-.16-.12-.11-.18-.24-.18-.39s.06-.29.18-.4c.12-.11.26-.16.42-.16s.3.05.42.16c.12.11.17.24.17.4s-.06.28-.17.39c-.12.11-.26.16-.42.16ZM85,80.33v-4.36h1.03v4.36h-1.03Z"/>
    <path class="cls-5" d="M88.83,80.41c-.43,0-.79-.09-1.11-.28s-.55-.45-.73-.79-.26-.73-.26-1.18.09-.85.26-1.18.41-.6.73-.79.68-.28,1.11-.28.8.09,1.11.28.55.45.73.79c.17.34.26.73.26,1.18s-.09.84-.26,1.18c-.17.34-.41.6-.73.79s-.68.28-1.11.28ZM88.84,79.59c.23,0,.42-.06.58-.19s.27-.3.35-.52c.08-.22.12-.46.12-.72s-.04-.51-.12-.73c-.08-.22-.19-.39-.35-.52s-.35-.19-.58-.19-.43.06-.59.19-.27.3-.35.52-.12.46-.12.73.04.51.12.72.19.39.35.52.35.19.59.19Z"/>
    <path class="cls-5" d="M92.66,77.77v2.56h-1.03v-4.36h.98v.74h.05c.1-.25.26-.44.48-.58.22-.14.49-.22.82-.22.3,0,.56.06.79.19.22.13.4.32.52.56s.19.54.18.89v2.78h-1.03v-2.62c0-.29-.07-.52-.23-.69-.15-.16-.36-.25-.62-.25-.18,0-.34.04-.48.12-.14.08-.25.19-.33.34-.08.15-.12.33-.12.54Z"/>
    <path class="cls-5" d="M99.8,77.12l-.94.1c-.03-.09-.07-.18-.14-.27-.07-.08-.15-.15-.26-.2-.11-.05-.24-.08-.4-.08-.21,0-.39.05-.54.14s-.22.21-.21.36c0,.13.04.23.14.31.1.08.25.14.48.2l.74.16c.41.09.72.23.92.42.2.19.3.45.3.76,0,.27-.08.52-.24.73s-.38.37-.66.49c-.28.12-.6.18-.96.18-.54,0-.96-.11-1.29-.34-.33-.22-.52-.54-.58-.94l1-.1c.04.2.14.35.29.45.15.1.34.15.58.15s.44-.05.59-.15c.15-.1.22-.22.22-.37,0-.12-.05-.23-.14-.31-.1-.08-.24-.14-.45-.19l-.74-.16c-.42-.09-.73-.23-.93-.44s-.3-.47-.3-.79c0-.27.07-.5.22-.7.15-.2.36-.35.62-.46.27-.11.57-.16.92-.16.51,0,.91.11,1.21.33s.48.51.55.88Z"/>
    <path class="cls-5" d="M60.54,84.61c-.03-.25-.14-.44-.33-.58-.2-.14-.45-.21-.76-.21-.22,0-.41.03-.57.1-.16.07-.28.16-.36.27s-.13.24-.13.39c0,.12.03.23.08.32.06.09.13.16.23.23.1.06.2.11.32.15.12.04.24.08.35.11l.55.14c.22.05.43.12.64.21.2.09.39.2.55.33.16.13.29.29.38.48s.14.41.14.66c0,.34-.09.64-.26.9-.17.26-.43.46-.75.6-.33.15-.73.22-1.19.22s-.85-.07-1.18-.21c-.33-.14-.59-.34-.78-.61-.19-.27-.29-.6-.3-.98h1.04c.01.2.08.37.19.51.11.13.25.23.43.3.18.07.38.1.6.1s.43-.04.6-.1c.17-.07.31-.17.41-.29s.15-.27.15-.44c0-.15-.05-.28-.13-.38-.09-.1-.21-.18-.37-.25s-.34-.13-.55-.18l-.66-.17c-.48-.12-.86-.31-1.14-.56s-.42-.58-.42-1c0-.34.09-.64.28-.9.19-.26.44-.46.76-.6.32-.14.69-.21,1.09-.21s.78.07,1.09.21c.31.14.56.34.73.59.18.25.27.54.28.87h-1.01Z"/>
    <path class="cls-5" d="M62.36,90.46v-6h1.01v.72h.06c.05-.11.13-.22.22-.34.1-.12.23-.22.39-.31.17-.09.38-.13.63-.13.34,0,.64.09.91.26.27.17.49.42.65.76.16.33.24.74.24,1.23s-.08.89-.24,1.22c-.16.34-.37.59-.64.77-.27.18-.58.26-.92.26-.25,0-.46-.04-.62-.12-.17-.08-.3-.18-.4-.3-.1-.12-.18-.23-.23-.34h-.04v2.32h-1.03ZM63.37,86.65c0,.28.04.53.12.74.08.21.2.38.35.5.15.12.34.18.56.18s.42-.06.57-.18c.15-.12.27-.29.35-.5s.12-.46.12-.73-.04-.51-.12-.72c-.08-.21-.19-.38-.35-.5-.15-.12-.34-.18-.57-.18s-.41.06-.56.17c-.15.12-.27.28-.35.49-.08.21-.12.45-.12.74Z"/>
    <path class="cls-5" d="M69.13,88.91c-.44,0-.82-.09-1.13-.27s-.56-.44-.73-.78-.26-.73-.26-1.19.09-.84.26-1.18c.17-.34.41-.61.72-.79.31-.19.67-.29,1.09-.29.27,0,.52.04.76.13.24.09.45.22.64.4.19.18.33.41.44.69.11.28.16.61.16.99v.32h-3.58v-.69h2.59c0-.2-.04-.37-.13-.53-.08-.15-.2-.28-.35-.37-.15-.09-.32-.13-.52-.13-.21,0-.39.05-.55.15-.16.1-.28.23-.37.4-.09.16-.13.34-.13.54v.6c0,.25.05.47.14.65s.22.32.39.42c.17.1.36.14.59.14.15,0,.29-.02.41-.06.12-.04.23-.11.31-.19.09-.08.16-.19.2-.31l.96.11c-.06.25-.18.48-.34.66-.17.19-.39.33-.65.44-.26.1-.56.16-.9.16Z"/>
    <path class="cls-5" d="M73.69,88.91c-.44,0-.81-.1-1.12-.29s-.55-.46-.72-.79-.25-.73-.25-1.17.09-.83.26-1.17c.17-.34.41-.61.72-.79.31-.19.68-.29,1.11-.29.35,0,.67.07.94.19.27.13.49.31.66.55.16.24.25.51.28.83h-.98c-.04-.21-.13-.39-.28-.53-.15-.14-.35-.21-.6-.21-.21,0-.39.06-.55.17-.16.11-.28.27-.37.48-.09.21-.13.46-.13.76s.04.55.13.77c.09.21.21.38.37.49.16.11.34.17.56.17.15,0,.29-.03.41-.09.12-.06.22-.14.3-.25.08-.11.14-.24.17-.4h.98c-.03.31-.12.58-.27.82-.16.24-.37.42-.64.56s-.59.2-.95.2Z"/>
    <path class="cls-5" d="M76.76,83.84c-.16,0-.3-.05-.42-.16-.12-.11-.18-.24-.18-.39s.06-.29.18-.4c.12-.11.26-.16.42-.16s.31.05.42.16c.12.11.18.24.18.4s-.06.28-.18.39c-.12.11-.26.16-.42.16ZM76.24,88.83v-4.36h1.03v4.36h-1.03Z"/>
    <path class="cls-5" d="M79.42,88.92c-.28,0-.53-.05-.75-.15s-.39-.25-.52-.44-.19-.44-.19-.72c0-.25.05-.45.14-.61.09-.16.21-.29.37-.39.16-.1.33-.17.53-.22.2-.05.4-.09.61-.11.26-.03.46-.05.62-.07.16-.02.28-.06.35-.1.07-.05.11-.12.11-.22v-.02c0-.21-.06-.38-.19-.5-.13-.12-.31-.18-.55-.18-.25,0-.45.05-.6.17-.15.11-.25.24-.3.39l-.96-.14c.08-.27.2-.49.38-.67.17-.18.39-.31.64-.4.25-.09.53-.13.84-.13.21,0,.42.02.63.07.21.05.4.13.57.24.17.11.31.27.42.46.11.19.16.43.16.72v2.92h-.99v-.6h-.03c-.06.12-.15.23-.26.34-.11.1-.25.19-.42.25-.17.06-.37.1-.6.1ZM79.69,88.16c.21,0,.38-.04.54-.12.15-.08.27-.19.35-.33.08-.14.12-.29.12-.45v-.51s-.09.05-.16.07c-.08.02-.16.04-.26.06-.09.02-.19.03-.28.05-.09.01-.17.02-.24.03-.15.02-.29.06-.41.1-.12.05-.22.11-.29.2-.07.08-.11.19-.11.33,0,.19.07.33.21.43s.31.14.53.14Z"/>
    <path class="cls-5" d="M83.63,83.01v5.82h-1.03v-5.82h1.03Z"/>
    <path class="cls-5" d="M85.05,83.84c-.16,0-.3-.05-.42-.16-.12-.11-.18-.24-.18-.39s.06-.29.18-.4c.12-.11.26-.16.42-.16s.31.05.42.16c.12.11.17.24.17.4s-.06.28-.17.39c-.12.11-.26.16-.42.16ZM84.53,88.83v-4.36h1.03v4.36h-1.03Z"/>
    <path class="cls-5" d="M89.9,85.62l-.94.1c-.03-.09-.07-.18-.14-.27-.06-.08-.15-.15-.26-.2-.11-.05-.24-.08-.4-.08-.21,0-.39.05-.54.14-.14.09-.22.21-.21.36,0,.13.04.23.14.31.1.08.25.14.48.2l.74.16c.41.09.72.23.92.42s.3.45.31.76c0,.27-.08.52-.24.73s-.38.37-.66.49c-.28.12-.6.18-.96.18-.54,0-.96-.11-1.29-.34-.33-.22-.52-.54-.58-.94l1-.1c.05.2.14.35.29.45.15.1.34.15.58.15s.44-.05.59-.15c.15-.1.22-.22.22-.37,0-.12-.05-.23-.14-.31-.1-.08-.24-.14-.45-.19l-.74-.16c-.42-.09-.73-.23-.93-.44-.2-.21-.3-.47-.3-.79,0-.27.07-.5.22-.7.15-.2.36-.35.62-.46.27-.11.57-.16.92-.16.51,0,.91.11,1.21.33s.48.51.55.88Z"/>
    <path class="cls-5" d="M92.87,84.46v.8h-2.51v-.8h2.51ZM90.98,83.42h1.03v4.1c0,.14.02.24.06.32.04.07.1.12.17.15s.15.04.23.04c.06,0,.12,0,.18-.01.05,0,.1-.02.12-.03l.17.8c-.05.02-.13.04-.23.06s-.22.04-.37.04c-.26,0-.49-.03-.7-.12s-.37-.22-.49-.4c-.12-.18-.18-.41-.18-.68v-4.27Z"/>
  </g>
  <g>
    <path class="cls-6" d="M62.3,61.15c-.46,0-.87.09-1.22.27-.36.18-.66.44-.9.78-.25.34-.43.74-.55,1.22-.12.48-.18,1.02-.18,1.62,0,.81.1,1.5.3,2.07s.51,1.01.94,1.3c.43.3.97.45,1.63.45.47,0,.94-.05,1.4-.16.46-.11.97-.26,1.51-.45v2.03c-.5.2-1,.35-1.49.45-.49.1-1.04.14-1.65.14-1.17,0-2.14-.24-2.9-.73s-1.33-1.17-1.69-2.05c-.36-.88-.54-1.91-.54-3.08,0-.86.12-1.66.35-2.38.23-.72.58-1.34,1.03-1.86.45-.52,1.01-.93,1.68-1.22.67-.29,1.43-.43,2.3-.43.57,0,1.13.07,1.7.22.57.14,1.12.34,1.64.58l-.78,1.97c-.43-.2-.86-.38-1.29-.53-.43-.15-.86-.22-1.27-.22Z"/>
    <path class="cls-6" d="M71.92,70.72h-5.2v-1.38l1.39-.64v-7.39l-1.39-.64v-1.38h5.2v1.38l-1.39.64v7.39l1.39.64v1.38Z"/>
    <path class="cls-6" d="M84.24,64.99c0,.89-.11,1.69-.33,2.41-.22.72-.55,1.34-.99,1.86-.44.52-1.01.92-1.7,1.2s-1.5.42-2.42.42-1.74-.14-2.42-.42c-.69-.28-1.25-.68-1.7-1.2s-.77-1.14-.99-1.86c-.22-.73-.33-1.53-.33-2.42,0-1.18.19-2.21.58-3.09.39-.87.99-1.55,1.79-2.04s1.83-.73,3.08-.73,2.26.24,3.06.73c.8.49,1.39,1.17,1.78,2.05.39.88.58,1.91.58,3.1ZM75.9,64.99c0,.8.1,1.49.3,2.06.2.58.52,1.02.94,1.33.43.31.98.46,1.65.46s1.25-.15,1.67-.46c.42-.31.73-.75.93-1.33s.3-1.26.3-2.06c0-1.21-.22-2.15-.67-2.83s-1.18-1.02-2.21-1.02c-.68,0-1.24.15-1.66.46-.43.31-.74.75-.94,1.33-.2.58-.3,1.26-.3,2.06Z"/>
    <path class="cls-6" d="M93.34,67.55c0,.67-.17,1.26-.5,1.76-.33.5-.81.89-1.43,1.16s-1.38.41-2.28.41c-.39,0-.78-.03-1.16-.08-.38-.05-.74-.13-1.09-.23s-.67-.23-.98-.38v-2.26c.54.23,1.11.45,1.69.65.58.2,1.16.3,1.74.3.39,0,.71-.05.95-.16.24-.11.42-.25.53-.43.11-.18.17-.39.17-.62,0-.29-.1-.53-.3-.74s-.46-.39-.79-.57c-.33-.18-.71-.37-1.14-.57-.27-.13-.55-.28-.86-.46-.31-.18-.61-.39-.89-.66-.28-.26-.51-.58-.7-.95-.18-.37-.27-.82-.27-1.34,0-.68.16-1.27.47-1.75s.76-.86,1.34-1.11c.58-.26,1.27-.38,2.06-.38.6,0,1.17.07,1.7.21.54.14,1.1.34,1.69.59l-.78,1.89c-.52-.21-.99-.38-1.41-.5-.42-.12-.84-.18-1.28-.18-.3,0-.55.05-.77.14-.21.1-.38.23-.49.4-.11.17-.17.37-.17.61,0,.27.08.49.24.68s.4.37.72.54c.32.17.72.37,1.2.61.59.28,1.09.57,1.5.86.41.3.73.65.95,1.06.22.41.34.91.34,1.5Z"/>
  </g>
</svg>