<?xml version="1.0" encoding="UTF-8"?>
<svg id="Logos" xmlns="http://www.w3.org/2000/svg" viewBox="0 0 150 150">
  <defs>
    <style>
      .cls-1 {
        fill: #004b7f;
      }

      .cls-1, .cls-2 {
        stroke: #004b7f;
        stroke-width: 2px;
      }

      .cls-1, .cls-2, .cls-3 {
        stroke-miterlimit: 10;
      }

      .cls-2 {
        fill: #fff;
      }

      .cls-3 {
        fill: none;
        stroke: #50595e;
        stroke-width: 1.25px;
      }

      .cls-4 {
        fill: #50595e;
      }

      .cls-5 {
        fill: #20282f;
      }

      .cls-6 {
        fill: #c8102e;
      }
    </style>
  </defs>
  <g id="Non-Cert_COMPCERT_Medium_Text" data-name="Non-Cert / COMPCERT / Medium Text">
    <path class="cls-1" d="M75,11.75C38.17,11.75,8.32,41.61,8.32,78.43c0,18.37,7.43,35,19.45,47.06,1.71-1.56,3.5-3.03,5.36-4.42-11.05-10.84-17.91-25.94-17.91-42.64,0-33.01,26.76-59.78,59.78-59.78s59.78,26.76,59.78,59.78c0,16.71-6.86,31.8-17.91,42.64,1.86,1.39,3.65,2.86,5.36,4.42,12.02-12.06,19.45-28.69,19.45-47.06,0-36.83-29.85-66.68-66.68-66.68Z"/>
    <circle class="cls-2" cx="75" cy="78.58" r="59.67"/>
    <g>
      <path class="cls-6" d="M56.5,42.96c-1.79,0-3.2,1.2-3.2,2.72s1.41,2.7,3.2,2.7c1.79,0,3.2-1.18,3.2-2.7s-1.41-2.72-3.2-2.72M56.5,50.21c-2.82,0-5.03-1.98-5.03-4.53,0-2.55,2.21-4.55,5.03-4.55,2.82,0,5.03,2,5.03,4.55,0,2.55-2.21,4.53-5.03,4.53"/>
      <path class="cls-6" d="M74.48,50.21c-1.01,0-1.83-.84-1.83-1.87v-3.77c0-.9-.78-1.62-1.75-1.62-.95,0-1.73.72-1.73,1.62v5.64c-1.01,0-1.83-.82-1.83-1.83v-3.81c0-.9-.78-1.62-1.75-1.62s-1.74.72-1.74,1.62v3.79c0,1.01-.82,1.85-1.83,1.85v-5.64c0-1.9,1.6-3.45,3.56-3.45,1.06,0,2.02.44,2.66,1.14.65-.71,1.6-1.14,2.65-1.14,1.98,0,3.58,1.54,3.58,3.45v5.64Z"/>
      <path class="cls-6" d="M80.42,50.2c-.48,0-.93-.04-1.35-.13-.95-.27-1.51-1.26-1.26-2.21.04-.11.07-.23.11-.32l.02-.02c.51.57,1.35.86,2.48.86,1.68,0,2.99-1.18,2.99-2.67s-1.31-2.76-2.99-2.76c-1.58,0-3.16.88-3.16,2.8v5.92c0,.99-.84,1.79-1.83,1.79v-7.71c0-2.67,2.1-4.63,4.99-4.63,1.28,0,2.47.48,3.39,1.31.92.86,1.43,2.02,1.43,3.28,0,2.52-2.11,4.49-4.82,4.49"/>
      <path class="cls-6" d="M93.46,39.4h-3.91s0,10.82,0,10.82h-.08c-.97,0-1.75-.84-1.75-1.83v-8.99s-3.91,0-3.91,0c-.99,0-1.79-.82-1.79-1.81h13.26c0,.99-.8,1.81-1.81,1.81"/>
      <path class="cls-6" d="M105.06,39.47l-2.6,5.71h4.9s-2.62-5.73-2.62-5.73l.31.02ZM109.11,49.07l-.97-2.09h-6.49s-.96,2.15-.96,2.15c-.45.86-1.66,1.12-2.58,1.12l5.29-11.61c.3-.67.83-1.05,1.45-1.05.62,0,1.16.38,1.47,1.05l5.23,11.47c-.98.09-2.06-.2-2.44-1.04"/>
      <path class="cls-6" d="M49.42,41c-.99-1.05-2.44-1.73-4.04-1.73-2.84,0-5.14,2.06-5.14,4.59,0,2.53,2.31,4.61,5.14,4.61,1.35,0,2.63-.51,3.6-1.33.67-.55,1.66-.51,2.31.04-.5.76-1.16,1.43-1.98,1.94-1.16.74-2.52,1.12-3.92,1.12-3.83,0-6.93-2.86-6.93-6.38,0-3.52,3.1-6.38,6.93-6.38,2.72,0,5.2,1.49,6.3,3.77-.7.46-1.68.4-2.27-.25"/>
      <path class="cls-6" d="M95.85,37.59v10.85c0,.97.84,1.77,1.83,1.77v-10.85c0-.97-.84-1.77-1.83-1.77"/>
    </g>
    <g>
      <rect class="cls-3" x="43.75" y="90.57" width="62.49" height="13.5" rx="6.75" ry="6.75"/>
      <g>
        <path class="cls-4" d="M54.77,96.25h-1.2c-.03-.2-.1-.37-.19-.52s-.21-.28-.34-.39c-.14-.11-.29-.19-.47-.24-.17-.05-.36-.08-.56-.08-.36,0-.67.09-.95.27-.27.18-.49.44-.65.78-.16.34-.23.76-.23,1.25s.08.92.24,1.26c.16.34.37.6.65.77.27.17.59.26.94.26.2,0,.38-.03.55-.08.17-.05.33-.13.46-.23.14-.1.25-.23.35-.38.09-.15.16-.32.2-.51h1.2c-.04.32-.14.61-.29.88-.15.27-.34.51-.58.72-.24.21-.52.37-.84.49-.32.12-.67.17-1.06.17-.58,0-1.09-.13-1.54-.4s-.81-.65-1.07-1.15-.39-1.11-.39-1.81.13-1.31.39-1.81c.26-.5.62-.89,1.07-1.15.45-.27.96-.4,1.53-.4.37,0,.7.05,1.02.15s.59.25.84.45.45.44.61.72c.16.28.26.61.31.97Z"/>
        <path class="cls-4" d="M61.89,97.32c0,.71-.13,1.31-.39,1.81-.26.5-.62.89-1.07,1.15-.45.27-.97.4-1.54.4s-1.09-.13-1.54-.4-.81-.65-1.07-1.15c-.26-.5-.39-1.1-.39-1.81s.13-1.31.39-1.81c.26-.5.62-.89,1.07-1.15s.97-.4,1.54-.4,1.09.13,1.54.4c.45.27.81.65,1.07,1.15.26.5.39,1.11.39,1.81ZM60.7,97.32c0-.5-.08-.92-.23-1.26-.15-.34-.37-.6-.64-.78-.27-.18-.59-.26-.94-.26s-.67.09-.94.26c-.27.18-.49.43-.64.78s-.23.76-.23,1.26.08.92.23,1.26.37.6.64.78c.27.18.59.26.94.26s.67-.09.94-.26c.27-.18.49-.43.64-.78.16-.34.23-.76.23-1.26Z"/>
        <path class="cls-4" d="M63.2,94.04h1.45l1.94,4.74h.08l1.94-4.74h1.45v6.54h-1.14v-4.5h-.06l-1.81,4.48h-.85l-1.81-4.49h-.06v4.51h-1.14v-6.54Z"/>
        <path class="cls-4" d="M71.53,100.59v-6.54h2.45c.5,0,.93.09,1.27.28s.6.44.78.77.26.7.26,1.11-.09.79-.26,1.12c-.18.33-.44.58-.78.77-.35.19-.77.28-1.28.28h-1.63v-.98h1.47c.29,0,.54-.05.72-.15.19-.1.33-.24.42-.42.09-.18.14-.38.14-.62s-.04-.44-.14-.61-.23-.31-.42-.41c-.19-.1-.43-.15-.73-.15h-1.09v5.55h-1.19Z"/>
        <path class="cls-4" d="M83.11,96.25h-1.2c-.03-.2-.1-.37-.19-.52-.09-.15-.21-.28-.34-.39-.14-.11-.29-.19-.46-.24-.17-.05-.36-.08-.56-.08-.36,0-.67.09-.95.27-.28.18-.49.44-.65.78s-.23.76-.23,1.25.08.92.23,1.26c.16.34.37.6.65.77.27.17.59.26.94.26.2,0,.38-.03.55-.08.17-.05.33-.13.46-.23.14-.1.25-.23.35-.38.09-.15.16-.32.2-.51h1.2c-.04.32-.14.61-.29.88-.15.27-.34.51-.58.72-.24.21-.52.37-.84.49-.32.12-.67.17-1.06.17-.58,0-1.09-.13-1.54-.4-.45-.27-.81-.65-1.07-1.15-.26-.5-.39-1.11-.39-1.81s.13-1.31.39-1.81c.26-.5.62-.89,1.07-1.15s.96-.4,1.53-.4c.36,0,.7.05,1.02.15.31.1.59.25.84.45s.45.44.61.72c.16.28.26.61.31.97Z"/>
        <path class="cls-4" d="M84.38,100.59v-6.54h4.26v.99h-3.07v1.78h2.85v.99h-2.85v1.79h3.1v.99h-4.28Z"/>
        <path class="cls-4" d="M90.03,100.59v-6.54h2.45c.5,0,.93.09,1.27.26s.6.42.78.73.26.68.26,1.1-.09.78-.27,1.09-.44.55-.79.71c-.34.17-.77.25-1.27.25h-1.75v-.98h1.59c.29,0,.54-.04.72-.12s.33-.2.42-.36c.09-.16.14-.35.14-.59s-.05-.43-.14-.6c-.09-.17-.23-.29-.42-.38-.19-.09-.43-.13-.73-.13h-1.09v5.55h-1.19ZM93.41,97.62l1.62,2.97h-1.32l-1.59-2.97h1.29Z"/>
        <path class="cls-4" d="M95.77,95.04v-.99h5.22v.99h-2.02v5.55h-1.18v-5.55h-2.02Z"/>
      </g>
    </g>
    <g>
      <path class="cls-5" d="M50.43,69.75l-2.24-7.28h-.05c0,.17.02.43.04.78s.04.72.05,1.11c.02.39.03.75.03,1.07v4.32h-1.75v-9.28h2.68l2.2,7.1h.04l2.33-7.1h2.68v9.28h-1.83v-4.39c0-.29,0-.63.02-1.01.01-.38.03-.74.04-1.09.01-.34.02-.6.03-.77h-.05l-2.39,7.27h-1.81Z"/>
      <path class="cls-5" d="M59.3,59.87c.29,0,.53.07.74.2s.31.38.31.75-.1.6-.31.74-.46.21-.74.21-.54-.07-.75-.21c-.2-.14-.31-.39-.31-.74s.1-.61.31-.75c.2-.13.45-.2.75-.2ZM60.26,62.65v7.1h-1.94v-7.1h1.94Z"/>
      <path class="cls-5" d="M64.89,69.88c-.7,0-1.3-.13-1.79-.38-.49-.25-.87-.65-1.13-1.19-.26-.54-.39-1.23-.39-2.07s.15-1.57.44-2.12c.29-.55.7-.95,1.23-1.21.52-.26,1.13-.39,1.81-.39.49,0,.91.05,1.27.14.36.09.67.21.94.34l-.57,1.5c-.3-.12-.59-.22-.85-.3-.26-.08-.53-.12-.79-.12-.34,0-.62.08-.85.24s-.39.4-.5.71-.16.71-.16,1.19.06.86.18,1.16.29.54.51.69c.23.15.5.23.82.23.41,0,.77-.05,1.08-.16.31-.11.62-.26.91-.45v1.65c-.29.19-.6.33-.93.41-.33.08-.74.12-1.23.12Z"/>
      <path class="cls-5" d="M72.36,62.52c.1,0,.21,0,.34.01.13,0,.23.02.31.04l-.14,1.82c-.06-.02-.15-.03-.27-.04-.12-.01-.22-.02-.31-.02-.25,0-.49.03-.73.1-.23.07-.44.17-.63.31s-.33.32-.44.55-.16.51-.16.85v3.61h-1.94v-7.1h1.47l.29,1.2h.09c.14-.24.31-.46.52-.66s.45-.36.72-.48c.27-.12.57-.18.88-.18Z"/>
      <path class="cls-5" d="M80.2,66.19c0,.59-.08,1.11-.24,1.57-.16.46-.39.85-.69,1.16-.3.32-.66.55-1.08.72-.42.16-.91.24-1.44.24-.49,0-.95-.08-1.37-.24-.42-.16-.78-.4-1.09-.72-.3-.32-.54-.7-.71-1.16-.17-.46-.25-.98-.25-1.57,0-.79.14-1.45.42-2s.68-.96,1.2-1.24c.52-.29,1.13-.43,1.85-.43.67,0,1.26.14,1.77.43.51.29.92.7,1.21,1.24.29.54.44,1.21.44,2ZM75.3,66.19c0,.47.05.86.15,1.18.1.32.26.55.47.71.22.16.5.24.85.24s.63-.08.84-.24c.21-.16.37-.4.47-.71.1-.32.15-.71.15-1.18s-.05-.86-.15-1.17c-.1-.31-.26-.55-.47-.7-.22-.16-.5-.23-.85-.23-.51,0-.88.17-1.11.53-.23.35-.34.88-.34,1.58Z"/>
      <path class="cls-5" d="M86.47,67.65c0,.48-.11.88-.34,1.22s-.56.59-1.01.76c-.45.17-1.01.26-1.68.26-.49,0-.92-.03-1.27-.1s-.71-.17-1.07-.32v-1.6c.38.17.79.32,1.24.43s.83.17,1.17.17c.38,0,.65-.06.81-.17s.24-.26.24-.44c0-.12-.03-.23-.1-.33-.07-.09-.21-.2-.42-.32-.22-.12-.55-.28-1.01-.47-.44-.19-.81-.38-1.09-.57-.29-.19-.5-.41-.64-.68s-.21-.6-.21-.99c0-.66.26-1.15.77-1.48.51-.33,1.19-.49,2.04-.49.44,0,.86.04,1.26.13.4.09.81.23,1.23.43l-.58,1.39c-.35-.15-.68-.27-.99-.37-.31-.1-.63-.15-.95-.15-.29,0-.5.04-.64.12-.14.08-.21.2-.21.35,0,.11.04.21.11.31.07.09.22.19.43.29.21.1.53.24.94.42.41.17.76.34,1.05.51s.52.4.68.66.24.61.24,1.03Z"/>
      <path class="cls-5" d="M94.14,66.19c0,.59-.08,1.11-.24,1.57-.16.46-.39.85-.69,1.16-.3.32-.66.55-1.08.72-.42.16-.91.24-1.44.24-.49,0-.95-.08-1.37-.24-.42-.16-.78-.4-1.09-.72-.3-.32-.54-.7-.71-1.16-.17-.46-.25-.98-.25-1.57,0-.79.14-1.45.42-2s.68-.96,1.2-1.24c.52-.29,1.13-.43,1.85-.43.67,0,1.26.14,1.77.43.51.29.92.7,1.21,1.24.29.54.44,1.21.44,2ZM89.23,66.19c0,.47.05.86.15,1.18.1.32.26.55.47.71.22.16.5.24.85.24s.63-.08.84-.24c.21-.16.37-.4.47-.71.1-.32.15-.71.15-1.18s-.05-.86-.15-1.17c-.1-.31-.26-.55-.47-.7-.22-.16-.5-.23-.85-.23-.51,0-.88.17-1.11.53-.23.35-.34.88-.34,1.58Z"/>
      <path class="cls-5" d="M99.38,64.11h-1.68v5.64h-1.94v-5.64h-1.07v-.94l1.07-.52v-.52c0-.61.1-1.08.31-1.41.2-.33.49-.57.87-.71s.82-.21,1.33-.21c.38,0,.73.03,1.03.09s.56.13.75.21l-.49,1.42c-.15-.04-.31-.08-.48-.12-.17-.04-.37-.06-.6-.06-.27,0-.47.08-.59.25-.12.17-.19.37-.19.62v.44h1.68v1.46Z"/>
      <path class="cls-5" d="M103.6,68.34c.22,0,.42-.02.62-.07.2-.04.4-.09.6-.16v1.44c-.21.09-.47.16-.77.23s-.64.1-1.01.1c-.42,0-.8-.07-1.14-.21-.33-.14-.6-.38-.79-.72-.2-.34-.29-.82-.29-1.42v-3.42h-.92v-.82l1.07-.65.56-1.5h1.24v1.51h1.99v1.46h-1.99v3.42c0,.27.08.47.23.6.16.13.36.2.61.2Z"/>
      <path class="cls-5" d="M65.87,79.1c0,.72-.09,1.37-.27,1.96-.18.58-.45,1.09-.81,1.51-.36.42-.82.75-1.38.98-.56.22-1.22.34-1.97.34s-1.41-.12-1.97-.34c-.56-.23-1.02-.55-1.38-.97-.36-.42-.63-.93-.81-1.51-.18-.59-.27-1.24-.27-1.96,0-.96.16-1.8.47-2.51.32-.71.8-1.26,1.46-1.66.65-.39,1.49-.59,2.5-.59s1.83.2,2.48.59c.65.39,1.13.95,1.45,1.66s.47,1.55.47,2.52ZM59.1,79.1c0,.65.08,1.21.25,1.68.16.47.42.83.77,1.08.35.25.79.38,1.34.38s1.02-.12,1.36-.38c.34-.25.59-.61.75-1.08.16-.47.24-1.03.24-1.68,0-.98-.18-1.75-.55-2.3-.36-.55-.96-.83-1.79-.83-.55,0-1,.13-1.35.38s-.6.61-.77,1.08c-.17.47-.25,1.03-.25,1.68Z"/>
      <path class="cls-5" d="M71.28,78.11h-1.68v5.64h-1.94v-5.64h-1.07v-.94l1.07-.52v-.52c0-.61.1-1.08.31-1.41.2-.33.49-.57.87-.71s.82-.21,1.33-.21c.38,0,.73.03,1.03.09s.56.13.75.21l-.49,1.42c-.15-.04-.31-.08-.48-.12-.17-.04-.37-.06-.6-.06-.27,0-.47.08-.59.25-.12.17-.19.37-.19.62v.44h1.68v1.46Z"/>
      <path class="cls-5" d="M76.44,78.11h-1.68v5.64h-1.94v-5.64h-1.07v-.94l1.07-.52v-.52c0-.61.1-1.08.31-1.41.2-.33.49-.57.87-.71s.82-.21,1.33-.21c.38,0,.73.03,1.03.09s.56.13.75.21l-.49,1.42c-.15-.04-.31-.08-.48-.12-.17-.04-.37-.06-.6-.06-.27,0-.47.08-.59.25-.12.17-.19.37-.19.62v.44h1.68v1.46Z"/>
      <path class="cls-5" d="M78.52,73.87c.29,0,.53.07.74.2s.31.38.31.75-.1.6-.31.74-.46.21-.74.21-.54-.07-.75-.21c-.2-.14-.31-.39-.31-.74s.1-.61.31-.75c.2-.13.45-.2.75-.2ZM79.49,76.65v7.1h-1.94v-7.1h1.94Z"/>
      <path class="cls-5" d="M84.11,83.88c-.7,0-1.3-.13-1.79-.38-.49-.25-.87-.65-1.13-1.19-.26-.54-.39-1.23-.39-2.07s.15-1.57.44-2.12c.29-.55.7-.95,1.23-1.21.52-.26,1.13-.39,1.81-.39.49,0,.91.05,1.27.14.36.09.67.21.94.34l-.57,1.5c-.3-.12-.59-.22-.85-.3-.26-.08-.53-.12-.79-.12-.34,0-.62.08-.85.24s-.39.4-.5.71-.16.71-.16,1.19.06.86.18,1.16.29.54.51.69c.23.15.5.23.82.23.41,0,.77-.05,1.08-.16.31-.11.62-.26.91-.45v1.65c-.29.19-.6.33-.93.41-.33.08-.74.12-1.23.12Z"/>
      <path class="cls-5" d="M90.55,76.52c.66,0,1.22.13,1.7.38.47.25.84.62,1.1,1.09.26.48.39,1.06.39,1.75v.94h-4.58c.02.55.18.98.49,1.29s.73.47,1.28.47c.46,0,.88-.04,1.25-.14.37-.09.76-.23,1.16-.42v1.5c-.35.17-.71.3-1.1.38-.39.08-.85.12-1.4.12-.71,0-1.34-.13-1.88-.4s-.97-.67-1.29-1.2c-.31-.54-.47-1.21-.47-2.03s.14-1.52.42-2.07c.28-.55.67-.96,1.18-1.24.5-.28,1.09-.42,1.76-.42ZM90.56,77.9c-.37,0-.68.12-.93.36-.25.24-.39.62-.44,1.13h2.72c0-.29-.05-.54-.15-.77s-.25-.4-.45-.53-.45-.2-.75-.2Z"/>
    </g>
  </g>
  <g>
    <path class="cls-4" d="M51.15,119.82v-7.27h2.73c.56,0,1.03.1,1.41.31s.67.49.86.86.29.78.29,1.24-.1.88-.29,1.24c-.2.36-.49.65-.87.85-.38.21-.86.31-1.42.31h-1.81v-1.08h1.63c.33,0,.59-.06.8-.17.21-.11.36-.27.46-.47.1-.2.15-.43.15-.69s-.05-.49-.15-.68-.25-.35-.46-.46c-.21-.11-.48-.17-.81-.17h-1.21v6.17h-1.32Z"/>
    <path class="cls-4" d="M57.52,119.82v-5.45h1.25v.91h.06c.1-.32.27-.56.51-.73.24-.17.52-.26.83-.26.07,0,.15,0,.24,0s.16.01.22.03v1.18c-.05-.02-.14-.04-.26-.05-.12-.01-.23-.02-.34-.02-.23,0-.45.05-.63.15s-.33.24-.44.42c-.11.18-.16.38-.16.61v3.21h-1.29Z"/>
    <path class="cls-4" d="M63.64,119.93c-.53,0-.99-.12-1.38-.35s-.69-.56-.91-.98c-.21-.42-.32-.91-.32-1.48s.11-1.06.32-1.48c.21-.42.52-.75.91-.99s.85-.35,1.38-.35,1,.12,1.39.35.69.56.91.99c.21.42.32.92.32,1.48s-.11,1.06-.32,1.48c-.21.42-.52.75-.91.98s-.85.35-1.39.35ZM63.65,118.9c.29,0,.53-.08.72-.24.19-.16.34-.37.43-.64.1-.27.14-.57.14-.9s-.05-.64-.14-.91c-.1-.27-.24-.49-.43-.65-.19-.16-.44-.24-.72-.24s-.54.08-.74.24-.34.38-.44.65c-.1.27-.14.57-.14.91s.05.63.14.9c.1.27.24.49.44.64.2.16.44.24.74.24Z"/>
    <path class="cls-4" d="M73.83,114.55c-.03-.31-.17-.55-.42-.72s-.56-.26-.95-.26c-.27,0-.51.04-.71.12s-.35.2-.45.34c-.1.14-.16.3-.16.49,0,.15.04.28.1.39.07.11.17.21.29.28.12.08.25.14.4.19.15.05.29.1.44.13l.68.17c.28.06.54.15.79.26.25.11.48.25.69.41s.36.37.48.6.18.51.18.82c0,.43-.11.8-.33,1.12s-.53.58-.94.76c-.41.18-.91.27-1.49.27s-1.06-.09-1.47-.26c-.42-.17-.74-.43-.97-.77-.23-.34-.36-.75-.38-1.23h1.3c.02.25.1.46.23.63.14.17.32.29.54.38.22.08.47.12.74.12s.54-.04.75-.13c.22-.09.39-.21.51-.36.12-.16.19-.34.19-.55,0-.19-.06-.35-.17-.47-.11-.12-.26-.23-.46-.31s-.42-.16-.68-.23l-.83-.21c-.6-.15-1.07-.39-1.42-.7-.35-.31-.52-.73-.52-1.25,0-.43.12-.8.35-1.13s.55-.57.95-.75.86-.27,1.37-.27.97.09,1.36.27.7.43.92.74c.22.32.34.68.34,1.09h-1.27Z"/>
    <path class="cls-4" d="M78.73,119.93c-.55,0-1.02-.11-1.42-.34-.4-.23-.7-.55-.91-.97s-.32-.92-.32-1.49.11-1.05.32-1.48c.21-.42.51-.76.9-.99.39-.24.84-.36,1.36-.36.34,0,.65.05.95.16.3.11.56.27.79.5.23.23.41.51.54.86.13.35.2.76.2,1.24v.39h-4.47v-.87h3.24c0-.25-.06-.47-.16-.66-.1-.19-.25-.35-.44-.46-.19-.11-.4-.17-.65-.17-.26,0-.49.06-.69.19-.2.13-.35.29-.46.5s-.17.43-.17.67v.76c0,.32.06.59.17.81.12.23.28.4.49.52.21.12.45.18.73.18.19,0,.36-.03.51-.08.15-.05.28-.13.39-.24.11-.1.2-.23.25-.39l1.2.13c-.08.32-.22.59-.43.83s-.48.42-.81.55-.71.19-1.13.19Z"/>
    <path class="cls-4" d="M82.24,119.82v-5.45h1.25v.91h.06c.1-.32.27-.56.51-.73.24-.17.52-.26.83-.26.07,0,.15,0,.24,0s.16.01.22.03v1.18c-.05-.02-.14-.04-.26-.05-.12-.01-.23-.02-.34-.02-.23,0-.44.05-.63.15-.19.1-.33.24-.44.42-.11.18-.16.38-.16.61v3.21h-1.29Z"/>
    <path class="cls-4" d="M86.86,113.59c-.2,0-.38-.07-.53-.2-.15-.14-.22-.3-.22-.49s.07-.36.22-.5c.15-.14.32-.2.53-.2s.38.07.53.2.22.3.22.5-.07.36-.22.49-.32.2-.53.2ZM86.21,119.82v-5.45h1.29v5.45h-1.29Z"/>
    <path class="cls-4" d="M91.23,119.93c-.55,0-1.02-.11-1.42-.34-.4-.23-.7-.55-.92-.97-.21-.42-.32-.92-.32-1.49s.11-1.05.32-1.48c.21-.42.51-.76.9-.99.39-.24.84-.36,1.36-.36.34,0,.65.05.95.16.3.11.56.27.8.5.23.23.41.51.54.86.13.35.2.76.2,1.24v.39h-4.47v-.87h3.24c0-.25-.06-.47-.16-.66-.1-.19-.25-.35-.43-.46-.19-.11-.4-.17-.65-.17-.26,0-.49.06-.69.19-.2.13-.35.29-.46.5-.11.21-.17.43-.17.67v.76c0,.32.06.59.17.81.12.23.28.4.49.52.21.12.45.18.73.18.19,0,.36-.03.51-.08.15-.05.28-.13.39-.24.11-.1.2-.23.25-.39l1.2.13c-.08.32-.22.59-.43.83s-.48.42-.81.55-.71.19-1.13.19Z"/>
    <path class="cls-4" d="M99.05,115.81l-1.17.13c-.03-.12-.09-.23-.17-.33-.08-.1-.19-.19-.33-.25-.14-.06-.31-.1-.5-.1-.27,0-.49.06-.67.17s-.27.27-.27.45c0,.16.06.29.18.39.12.1.32.18.59.25l.93.2c.52.11.9.29,1.15.53.25.24.38.56.38.95,0,.34-.1.65-.3.91-.2.26-.47.47-.82.61s-.75.22-1.21.22c-.67,0-1.21-.14-1.61-.42-.41-.28-.65-.67-.73-1.17l1.25-.12c.06.25.18.43.36.56.18.12.42.19.72.19s.55-.06.74-.19c.19-.13.28-.28.28-.46,0-.16-.06-.29-.18-.39-.12-.1-.3-.18-.56-.23l-.93-.2c-.52-.11-.91-.29-1.16-.55-.25-.26-.38-.59-.37-.99,0-.34.09-.63.28-.88.19-.25.45-.44.78-.58.33-.14.72-.2,1.15-.2.64,0,1.14.14,1.51.41s.6.64.68,1.1Z"/>
  </g>
</svg>