<?xml version="1.0" encoding="UTF-8"?>
<svg id="Logos" xmlns="http://www.w3.org/2000/svg" viewBox="0 0 150 150">
  <defs>
    <style>
      .cls-1 {
        fill: #004b7f;
      }

      .cls-1, .cls-2 {
        stroke: #004b7f;
        stroke-width: 2px;
      }

      .cls-1, .cls-2, .cls-3 {
        stroke-miterlimit: 10;
      }

      .cls-2 {
        fill: #fff;
      }

      .cls-3 {
        fill: none;
        stroke: #50595e;
        stroke-width: 1.25px;
      }

      .cls-4 {
        fill: #50595e;
      }

      .cls-5 {
        fill: #20282f;
      }

      .cls-6 {
        fill: #c8102e;
      }
    </style>
  </defs>
  <g id="Non-Cert_COMPCERT_Medium_Text" data-name="Non-Cert / COMPCERT / Medium Text">
    <path class="cls-1" d="M75,11.75C38.17,11.75,8.32,41.61,8.32,78.43c0,18.37,7.43,35,19.45,47.06,1.71-1.56,3.5-3.03,5.36-4.42-11.05-10.84-17.91-25.94-17.91-42.64,0-33.01,26.76-59.78,59.78-59.78s59.78,26.76,59.78,59.78c0,16.71-6.86,31.8-17.91,42.64,1.86,1.39,3.65,2.86,5.36,4.42,12.02-12.06,19.45-28.69,19.45-47.06,0-36.83-29.85-66.68-66.68-66.68Z"/>
    <circle class="cls-2" cx="75" cy="78.58" r="59.67"/>
    <g>
      <path class="cls-6" d="M56.5,42.96c-1.79,0-3.2,1.2-3.2,2.72s1.41,2.7,3.2,2.7c1.79,0,3.2-1.18,3.2-2.7s-1.41-2.72-3.2-2.72M56.5,50.21c-2.82,0-5.03-1.98-5.03-4.53,0-2.55,2.21-4.55,5.03-4.55,2.82,0,5.03,2,5.03,4.55,0,2.55-2.21,4.53-5.03,4.53"/>
      <path class="cls-6" d="M74.48,50.21c-1.01,0-1.83-.84-1.83-1.87v-3.77c0-.9-.78-1.62-1.75-1.62-.95,0-1.73.72-1.73,1.62v5.64c-1.01,0-1.83-.82-1.83-1.83v-3.81c0-.9-.78-1.62-1.75-1.62-.95,0-1.74.72-1.74,1.62v3.79c0,1.01-.82,1.85-1.83,1.85v-5.64c0-1.9,1.6-3.45,3.56-3.45,1.06,0,2.02.44,2.66,1.14.65-.71,1.6-1.14,2.65-1.14,1.98,0,3.58,1.54,3.58,3.45v5.64Z"/>
      <path class="cls-6" d="M80.42,50.2c-.48,0-.93-.04-1.35-.13-.95-.27-1.51-1.26-1.26-2.21.04-.11.07-.23.11-.32l.02-.02c.51.57,1.35.86,2.48.86,1.68,0,2.99-1.18,2.99-2.67s-1.31-2.76-2.99-2.76c-1.58,0-3.16.88-3.16,2.8v5.92c0,.99-.84,1.79-1.83,1.79v-7.71c0-2.67,2.1-4.63,4.99-4.63,1.28,0,2.47.48,3.39,1.31.92.86,1.43,2.02,1.43,3.28,0,2.52-2.11,4.49-4.82,4.49"/>
      <path class="cls-6" d="M93.46,39.4h-3.91s0,10.82,0,10.82h-.08c-.97,0-1.75-.84-1.75-1.83v-8.99s-3.91,0-3.91,0c-.99,0-1.79-.82-1.79-1.81h13.26c0,.99-.8,1.81-1.81,1.81"/>
      <path class="cls-6" d="M105.06,39.47l-2.6,5.71h4.9s-2.62-5.73-2.62-5.73l.31.02ZM109.11,49.07l-.97-2.09h-6.49s-.96,2.15-.96,2.15c-.45.86-1.66,1.12-2.58,1.12l5.29-11.61c.3-.67.83-1.05,1.45-1.05.62,0,1.16.38,1.47,1.05l5.23,11.47c-.98.09-2.06-.2-2.44-1.04"/>
      <path class="cls-6" d="M49.42,41c-.99-1.05-2.44-1.73-4.04-1.73-2.84,0-5.14,2.06-5.14,4.59,0,2.53,2.31,4.61,5.14,4.61,1.35,0,2.63-.51,3.6-1.33.67-.55,1.66-.51,2.31.04-.5.76-1.16,1.43-1.98,1.94-1.16.74-2.52,1.12-3.92,1.12-3.83,0-6.93-2.86-6.93-6.38,0-3.52,3.1-6.38,6.93-6.38,2.72,0,5.2,1.49,6.3,3.77-.7.46-1.68.4-2.27-.25"/>
      <path class="cls-6" d="M95.85,37.59v10.85c0,.97.84,1.77,1.83,1.77v-10.85c0-.97-.84-1.77-1.83-1.77"/>
    </g>
    <g>
      <path class="cls-4" d="M51.15,119.82v-7.27h2.73c.56,0,1.03.1,1.41.31s.67.49.86.86.29.78.29,1.24-.1.88-.29,1.24c-.2.36-.49.65-.87.85s-.86.31-1.42.31h-1.81v-1.08h1.63c.33,0,.59-.06.8-.17.21-.11.36-.27.46-.47.1-.2.15-.43.15-.69s-.05-.49-.15-.68-.26-.35-.46-.46c-.21-.11-.48-.17-.81-.17h-1.21v6.17h-1.32Z"/>
      <path class="cls-4" d="M57.52,119.82v-5.45h1.25v.91h.06c.1-.32.27-.56.51-.73.24-.17.52-.26.83-.26.07,0,.15,0,.24,0s.16.01.22.03v1.18c-.05-.02-.14-.04-.26-.05-.12-.01-.23-.02-.34-.02-.23,0-.44.05-.63.15-.19.1-.33.24-.44.42-.11.18-.16.38-.16.61v3.21h-1.29Z"/>
      <path class="cls-4" d="M63.64,119.93c-.53,0-.99-.12-1.38-.35s-.69-.56-.91-.98c-.21-.42-.32-.91-.32-1.48s.11-1.06.32-1.48.52-.75.91-.99.85-.35,1.38-.35.99.12,1.39.35.69.56.91.99.32.92.32,1.48-.11,1.06-.32,1.48c-.21.42-.52.75-.91.98s-.85.35-1.39.35ZM63.65,118.9c.29,0,.53-.08.72-.24.19-.16.34-.37.44-.64.1-.27.14-.57.14-.9s-.05-.64-.14-.91c-.1-.27-.24-.49-.44-.65-.19-.16-.44-.24-.72-.24s-.54.08-.74.24-.34.38-.44.65c-.1.27-.14.57-.14.91s.05.63.14.9c.1.27.24.49.44.64.2.16.44.24.74.24Z"/>
      <path class="cls-4" d="M73.83,114.55c-.03-.31-.17-.55-.42-.72s-.56-.26-.95-.26c-.27,0-.51.04-.71.12s-.35.2-.45.34c-.1.14-.16.3-.16.49,0,.15.04.28.1.39.07.11.17.21.29.28.12.08.25.14.4.19.15.05.29.1.44.13l.68.17c.27.06.54.15.79.26.25.11.48.25.69.41.2.17.36.37.48.6s.18.51.18.82c0,.43-.11.8-.33,1.12-.22.32-.53.58-.94.76-.41.18-.91.27-1.49.27s-1.06-.09-1.47-.26-.74-.43-.97-.77c-.23-.34-.36-.75-.38-1.23h1.3c.02.25.1.46.23.63.14.17.32.29.54.38.22.08.47.12.74.12s.54-.04.75-.13c.22-.09.39-.21.51-.36.12-.16.19-.34.19-.55,0-.19-.06-.35-.17-.47-.11-.12-.26-.23-.46-.31s-.42-.16-.68-.23l-.83-.21c-.6-.15-1.07-.39-1.42-.7-.35-.31-.52-.73-.52-1.25,0-.43.12-.8.35-1.13s.55-.57.95-.75c.4-.18.86-.27,1.37-.27s.97.09,1.36.27c.39.18.7.43.92.74.22.32.34.68.34,1.09h-1.27Z"/>
      <path class="cls-4" d="M78.73,119.93c-.55,0-1.02-.11-1.42-.34-.4-.23-.7-.55-.91-.97-.21-.42-.32-.92-.32-1.49s.11-1.05.32-1.48.51-.76.9-.99c.39-.24.84-.36,1.36-.36.34,0,.65.05.95.16.3.11.56.27.8.5.23.23.41.51.54.86.13.35.2.76.2,1.24v.39h-4.47v-.87h3.24c0-.25-.06-.47-.16-.66-.1-.19-.25-.35-.44-.46-.19-.11-.4-.17-.65-.17-.26,0-.49.06-.69.19s-.35.29-.46.5c-.11.21-.17.43-.17.67v.76c0,.32.06.59.17.81.12.23.28.4.49.52.21.12.45.18.73.18.19,0,.36-.03.51-.08.15-.05.28-.13.39-.24.11-.1.2-.23.25-.39l1.2.13c-.08.32-.22.59-.43.83s-.48.42-.81.55-.71.19-1.13.19Z"/>
      <path class="cls-4" d="M82.24,119.82v-5.45h1.25v.91h.06c.1-.32.27-.56.51-.73.24-.17.52-.26.83-.26.07,0,.15,0,.24,0s.16.01.22.03v1.18c-.05-.02-.14-.04-.26-.05-.12-.01-.23-.02-.34-.02-.23,0-.44.05-.63.15-.19.1-.33.24-.44.42-.11.18-.16.38-.16.61v3.21h-1.29Z"/>
      <path class="cls-4" d="M86.85,113.59c-.2,0-.38-.07-.53-.2s-.22-.3-.22-.49.07-.36.22-.5.32-.2.53-.2.38.07.53.2c.15.14.22.3.22.5s-.07.36-.22.49c-.15.14-.32.2-.53.2ZM86.21,119.82v-5.45h1.29v5.45h-1.29Z"/>
      <path class="cls-4" d="M91.23,119.93c-.55,0-1.02-.11-1.42-.34-.4-.23-.7-.55-.91-.97-.21-.42-.32-.92-.32-1.49s.11-1.05.32-1.48.51-.76.9-.99c.39-.24.84-.36,1.36-.36.34,0,.65.05.95.16.3.11.56.27.8.5.23.23.41.51.54.86.13.35.2.76.2,1.24v.39h-4.47v-.87h3.24c0-.25-.06-.47-.16-.66-.1-.19-.25-.35-.44-.46-.19-.11-.4-.17-.65-.17-.26,0-.49.06-.69.19s-.35.29-.46.5c-.11.21-.17.43-.17.67v.76c0,.32.06.59.17.81.12.23.28.4.49.52.21.12.45.18.73.18.19,0,.36-.03.51-.08.15-.05.28-.13.39-.24.11-.1.2-.23.25-.39l1.2.13c-.08.32-.22.59-.43.83s-.48.42-.81.55-.71.19-1.13.19Z"/>
      <path class="cls-4" d="M99.05,115.81l-1.17.13c-.03-.12-.09-.23-.17-.33-.08-.1-.19-.19-.33-.25-.14-.06-.31-.1-.5-.1-.27,0-.49.06-.67.17s-.27.27-.27.45c0,.16.06.29.18.39.12.1.32.18.59.25l.93.2c.52.11.9.29,1.15.53.25.24.38.56.38.95,0,.34-.1.65-.3.91-.2.26-.47.47-.82.61s-.75.22-1.21.22c-.67,0-1.2-.14-1.61-.42-.41-.28-.65-.67-.73-1.17l1.25-.12c.06.25.18.43.36.56.18.12.42.19.72.19s.55-.06.74-.19c.19-.13.28-.28.28-.46,0-.16-.06-.29-.18-.39-.12-.1-.3-.18-.56-.23l-.93-.2c-.52-.11-.91-.29-1.16-.55-.25-.26-.38-.59-.37-.99,0-.34.09-.63.28-.88.19-.25.44-.44.78-.58.33-.14.72-.2,1.15-.2.64,0,1.14.14,1.51.41s.6.64.68,1.1Z"/>
    </g>
    <g>
      <rect class="cls-3" x="43.75" y="90.57" width="62.49" height="13.5" rx="6.75" ry="6.75"/>
      <g>
        <path class="cls-4" d="M54.77,96.25h-1.2c-.03-.2-.1-.37-.19-.52-.09-.15-.21-.28-.34-.39-.14-.11-.29-.19-.47-.24-.17-.05-.36-.08-.56-.08-.36,0-.67.09-.95.27s-.49.44-.65.78c-.16.34-.23.76-.23,1.25s.08.92.23,1.26c.16.34.37.6.65.77.27.17.59.26.94.26.2,0,.38-.03.55-.08s.33-.13.46-.23c.14-.1.25-.23.35-.38.09-.15.16-.32.2-.51h1.2c-.04.32-.14.61-.29.88-.15.27-.34.51-.58.72-.24.21-.52.37-.84.49-.32.12-.67.17-1.06.17-.58,0-1.09-.13-1.54-.4-.45-.27-.81-.65-1.07-1.15-.26-.5-.39-1.11-.39-1.81s.13-1.31.39-1.81.62-.89,1.07-1.15c.45-.27.96-.4,1.53-.4.36,0,.7.05,1.02.15.31.1.59.25.84.45s.45.44.61.72c.16.28.26.61.31.97Z"/>
        <path class="cls-4" d="M61.89,97.31c0,.71-.13,1.31-.39,1.81s-.62.89-1.07,1.15c-.45.27-.97.4-1.54.4s-1.09-.13-1.54-.4c-.45-.27-.81-.65-1.07-1.15s-.39-1.1-.39-1.81.13-1.31.39-1.81.62-.89,1.07-1.15c.45-.27.97-.4,1.54-.4s1.09.13,1.54.4c.45.27.81.65,1.07,1.15s.39,1.11.39,1.81ZM60.7,97.31c0-.5-.08-.92-.23-1.26-.15-.34-.37-.6-.64-.78s-.59-.26-.94-.26-.67.09-.94.26c-.27.18-.49.43-.64.78-.15.34-.23.76-.23,1.26s.08.92.23,1.26c.15.34.37.6.64.78.27.18.59.26.94.26s.67-.09.94-.26.49-.44.64-.78c.15-.34.23-.76.23-1.26Z"/>
        <path class="cls-4" d="M63.2,94.04h1.45l1.94,4.74h.08l1.94-4.74h1.45v6.55h-1.14v-4.5h-.06l-1.81,4.48h-.85l-1.81-4.49h-.06v4.51h-1.14v-6.55Z"/>
        <path class="cls-4" d="M71.53,100.58v-6.55h2.45c.5,0,.93.09,1.27.28.34.19.6.44.78.77.18.33.26.7.26,1.11s-.09.79-.27,1.12c-.18.33-.44.58-.78.77-.35.19-.77.28-1.28.28h-1.63v-.98h1.47c.29,0,.53-.05.72-.15.19-.1.33-.24.42-.42.09-.18.14-.38.14-.62s-.05-.44-.14-.61c-.09-.18-.23-.32-.42-.41-.19-.1-.43-.15-.73-.15h-1.09v5.55h-1.19Z"/>
        <path class="cls-4" d="M83.11,96.25h-1.2c-.03-.2-.1-.37-.19-.52-.09-.15-.21-.28-.34-.39-.14-.11-.29-.19-.47-.24-.17-.05-.36-.08-.56-.08-.36,0-.67.09-.95.27s-.49.44-.65.78c-.16.34-.23.76-.23,1.25s.08.92.23,1.26c.16.34.37.6.65.77.27.17.59.26.94.26.2,0,.38-.03.55-.08s.33-.13.46-.23c.14-.1.25-.23.35-.38.09-.15.16-.32.2-.51h1.2c-.04.32-.14.61-.29.88-.15.27-.34.51-.58.72-.24.21-.52.37-.84.49-.32.12-.67.17-1.06.17-.58,0-1.09-.13-1.54-.4-.45-.27-.81-.65-1.07-1.15-.26-.5-.39-1.11-.39-1.81s.13-1.31.39-1.81.62-.89,1.07-1.15c.45-.27.96-.4,1.53-.4.36,0,.7.05,1.02.15.31.1.59.25.84.45s.45.44.61.72c.16.28.26.61.31.97Z"/>
        <path class="cls-4" d="M84.38,100.58v-6.55h4.26v.99h-3.07v1.78h2.85v.99h-2.85v1.79h3.1v.99h-4.28Z"/>
        <path class="cls-4" d="M90.03,100.58v-6.55h2.45c.5,0,.93.09,1.27.26.34.17.6.42.78.73s.26.68.26,1.1-.09.78-.27,1.09c-.18.31-.44.55-.78.71-.34.17-.77.25-1.27.25h-1.75v-.98h1.59c.29,0,.53-.04.72-.12s.33-.2.42-.36c.09-.16.14-.35.14-.59s-.05-.43-.14-.6c-.09-.17-.23-.29-.42-.38s-.43-.13-.73-.13h-1.09v5.55h-1.19ZM93.41,97.62l1.62,2.97h-1.32l-1.59-2.97h1.29Z"/>
        <path class="cls-4" d="M95.77,95.03v-.99h5.22v.99h-2.02v5.55h-1.18v-5.55h-2.02Z"/>
      </g>
    </g>
    <g>
      <path class="cls-5" d="M29.62,69.89c-.46,0-.87.09-1.22.27-.36.18-.66.44-.9.78-.25.34-.43.74-.55,1.22-.12.48-.18,1.02-.18,1.62,0,.81.1,1.5.3,2.07.2.57.51,1.01.94,1.3.43.3.97.45,1.63.45.47,0,.94-.05,1.4-.16.46-.11.97-.26,1.51-.45v2.03c-.5.2-1,.35-1.49.45-.49.1-1.04.14-1.65.14-1.17,0-2.14-.24-2.9-.73-.76-.49-1.33-1.17-1.69-2.05-.36-.88-.54-1.91-.54-3.08,0-.86.12-1.66.35-2.38.23-.72.58-1.34,1.03-1.87.45-.52,1.01-.93,1.68-1.21.67-.29,1.43-.43,2.3-.43.57,0,1.13.07,1.7.22.57.14,1.12.34,1.64.58l-.78,1.97c-.43-.2-.86-.38-1.29-.53-.43-.15-.86-.22-1.27-.22Z"/>
      <path class="cls-5" d="M32.89,70.73h2.61l1.65,4.91c.05.16.1.32.14.48.04.16.07.33.1.5.03.17.04.35.06.54h.05c.03-.28.08-.54.14-.79.06-.25.13-.49.2-.73l1.62-4.91h2.56l-3.7,9.86c-.22.6-.51,1.1-.87,1.5-.36.41-.77.71-1.24.91-.47.2-.98.3-1.54.3-.27,0-.5-.01-.7-.04-.2-.03-.37-.06-.52-.09v-1.89c.12.02.26.04.42.06s.34.03.52.03c.33,0,.62-.07.86-.21s.44-.33.6-.57c.16-.24.29-.5.38-.78l.14-.43-3.47-8.67Z"/>
      <path class="cls-5" d="M44.98,70.13c0,.33-.01.66-.03.98-.02.32-.04.57-.06.75h.1c.23-.36.55-.67.94-.92.39-.25.91-.38,1.54-.38.98,0,1.78.38,2.38,1.14.61.76.91,1.89.91,3.37,0,.99-.14,1.83-.42,2.5-.28.68-.67,1.19-1.18,1.53-.5.34-1.09.51-1.76.51s-1.14-.11-1.51-.34c-.37-.23-.67-.49-.9-.78h-.16l-.4.96h-1.82v-12.16h2.38v2.83ZM46.7,72.47c-.42,0-.75.08-.99.26-.25.17-.42.43-.54.78-.11.35-.17.78-.18,1.3v.26c0,.84.12,1.49.38,1.94s.71.68,1.37.68c.49,0,.88-.23,1.17-.68s.43-1.11.43-1.96-.15-1.5-.44-1.93c-.29-.43-.69-.65-1.19-.65Z"/>
      <path class="cls-5" d="M55.69,70.57c.81,0,1.51.15,2.09.46.58.31,1.03.76,1.35,1.34s.48,1.31.48,2.16v1.15h-5.63c.02.67.22,1.2.6,1.58.38.38.9.58,1.58.58.57,0,1.08-.06,1.54-.17.46-.11.93-.29,1.42-.52v1.84c-.43.21-.88.37-1.35.47-.47.1-1.05.15-1.72.15-.88,0-1.65-.16-2.32-.49s-1.2-.82-1.58-1.48c-.38-.66-.58-1.49-.58-2.5s.17-1.88.52-2.55c.35-.68.83-1.19,1.45-1.53.62-.34,1.34-.51,2.16-.51ZM55.7,72.26c-.46,0-.84.15-1.14.45-.3.3-.48.76-.54,1.39h3.34c0-.35-.06-.67-.18-.94-.12-.28-.31-.5-.55-.66s-.55-.24-.93-.24Z"/>
      <path class="cls-5" d="M65.78,70.57c.12,0,.26,0,.42.02s.29.03.38.05l-.18,2.24c-.07-.02-.18-.04-.33-.06-.14-.02-.27-.02-.38-.02-.31,0-.61.04-.9.12s-.55.21-.78.38-.41.4-.54.68c-.13.28-.2.63-.2,1.05v4.45h-2.38v-8.74h1.81l.35,1.47h.11c.17-.3.38-.57.64-.82s.55-.44.89-.59.7-.22,1.08-.22Z"/>
      <path class="cls-5" d="M77.19,73.64c0,1.28-.25,2.35-.74,3.22-.49.86-1.2,1.52-2.14,1.95s-2.06.66-3.37.66h-3.23v-11.42h3.58c1.19,0,2.23.21,3.11.64.88.43,1.56,1.05,2.05,1.88.49.83.73,1.85.73,3.08ZM74.68,73.7c0-.84-.12-1.54-.37-2.08-.25-.54-.61-.95-1.1-1.21s-1.08-.39-1.78-.39h-1.3v7.44h1.04c1.18,0,2.06-.31,2.64-.94.58-.63.86-1.57.86-2.82Z"/>
      <path class="cls-5" d="M82.33,70.57c.81,0,1.51.15,2.09.46.58.31,1.03.76,1.35,1.34s.48,1.31.48,2.16v1.15h-5.63c.02.67.22,1.2.6,1.58.38.38.9.58,1.58.58.57,0,1.08-.06,1.54-.17.46-.11.93-.29,1.42-.52v1.84c-.43.21-.88.37-1.35.47-.47.1-1.05.15-1.72.15-.88,0-1.65-.16-2.32-.49s-1.2-.82-1.58-1.48c-.38-.66-.58-1.49-.58-2.5s.17-1.88.52-2.55c.35-.68.83-1.19,1.45-1.53.62-.34,1.34-.51,2.16-.51ZM82.34,72.26c-.46,0-.84.15-1.14.45-.3.3-.48.76-.54,1.39h3.34c0-.35-.06-.67-.18-.94-.12-.28-.31-.5-.55-.66s-.55-.24-.93-.24Z"/>
      <path class="cls-5" d="M92.38,72.52h-2.06v6.94h-2.38v-6.94h-1.31v-1.15l1.31-.64v-.64c0-.75.12-1.33.38-1.74.25-.41.61-.7,1.07-.87.46-.17,1.01-.26,1.64-.26.47,0,.89.04,1.27.11.38.07.69.16.92.26l-.61,1.74c-.18-.05-.38-.1-.59-.15-.21-.05-.46-.07-.74-.07-.33,0-.57.1-.73.3-.16.2-.23.46-.23.77v.54h2.06v1.79Z"/>
      <path class="cls-5" d="M96.7,70.57c.81,0,1.51.15,2.09.46.58.31,1.03.76,1.35,1.34s.48,1.31.48,2.16v1.15h-5.63c.02.67.22,1.2.6,1.58.38.38.9.58,1.58.58.57,0,1.08-.06,1.54-.17.46-.11.93-.29,1.42-.52v1.84c-.43.21-.88.37-1.35.47-.47.1-1.05.15-1.72.15-.88,0-1.65-.16-2.32-.49s-1.2-.82-1.58-1.48c-.38-.66-.58-1.49-.58-2.5s.17-1.88.52-2.55c.35-.68.83-1.19,1.45-1.53.62-.34,1.34-.51,2.16-.51ZM96.71,72.26c-.46,0-.84.15-1.14.45-.3.3-.48.76-.54,1.39h3.34c0-.35-.06-.67-.18-.94-.12-.28-.31-.5-.55-.66s-.55-.24-.93-.24Z"/>
      <path class="cls-5" d="M106.87,70.57c.94,0,1.69.25,2.26.76.57.51.85,1.32.85,2.44v5.7h-2.38v-5.1c0-.63-.11-1.1-.34-1.42-.22-.31-.58-.47-1.07-.47-.72,0-1.22.25-1.49.74s-.4,1.21-.4,2.14v4.11h-2.38v-8.74h1.82l.32,1.12h.13c.19-.3.43-.54.7-.73.28-.19.59-.32.93-.42.34-.09.69-.14,1.06-.14Z"/>
      <path class="cls-5" d="M117.88,76.87c0,.59-.14,1.08-.42,1.5-.28.41-.69.72-1.25.94-.55.21-1.24.32-2.06.32-.61,0-1.13-.04-1.57-.12s-.88-.21-1.31-.39v-1.97c.47.21.98.39,1.52.53s1.02.21,1.44.21c.47,0,.8-.07,1-.21.2-.14.3-.32.3-.54,0-.15-.04-.28-.12-.4s-.25-.25-.52-.4-.68-.34-1.25-.58c-.54-.23-.99-.47-1.34-.7-.35-.23-.61-.51-.78-.83-.17-.33-.26-.73-.26-1.22,0-.81.31-1.42.94-1.82.63-.41,1.47-.61,2.51-.61.54,0,1.06.05,1.55.16.49.11,1,.28,1.52.53l-.72,1.71c-.43-.18-.83-.33-1.22-.46-.38-.12-.77-.18-1.17-.18-.35,0-.62.05-.79.14-.18.1-.26.24-.26.43,0,.14.04.26.14.38.09.11.27.23.53.36s.65.3,1.16.51c.5.2.93.41,1.3.63.36.22.64.49.84.82.2.33.3.75.3,1.27Z"/>
      <path class="cls-5" d="M122.7,70.57c.81,0,1.51.15,2.09.46.58.31,1.03.76,1.35,1.34s.48,1.31.48,2.16v1.15h-5.63c.02.67.22,1.2.6,1.58.38.38.9.58,1.58.58.57,0,1.08-.06,1.54-.17.46-.11.93-.29,1.42-.52v1.84c-.43.21-.88.37-1.35.47-.47.1-1.05.15-1.72.15-.88,0-1.65-.16-2.32-.49s-1.2-.82-1.58-1.48c-.38-.66-.58-1.49-.58-2.5s.17-1.88.52-2.55c.35-.68.83-1.19,1.45-1.53.62-.34,1.34-.51,2.16-.51ZM122.71,72.26c-.46,0-.84.15-1.14.45-.3.3-.48.76-.54,1.39h3.34c0-.35-.06-.67-.18-.94-.12-.28-.31-.5-.55-.66s-.55-.24-.93-.24Z"/>
    </g>
  </g>
</svg>