<?xml version="1.0" encoding="UTF-8"?>
<svg id="Logos" xmlns="http://www.w3.org/2000/svg" viewBox="0 0 150 150">
  <defs>
    <style>
      .cls-1 {
        fill: #004b7f;
      }

      .cls-1, .cls-2 {
        stroke: #004b7f;
        stroke-width: 2px;
      }

      .cls-1, .cls-2, .cls-3 {
        stroke-miterlimit: 10;
      }

      .cls-2 {
        fill: #fff;
      }

      .cls-3 {
        fill: none;
        stroke: #50595e;
        stroke-width: 1.25px;
      }

      .cls-4 {
        fill: #50595e;
      }

      .cls-5 {
        fill: #20282f;
      }

      .cls-6 {
        fill: #c8102e;
      }
    </style>
  </defs>
  <g id="Non-Cert_COMPCERT_Medium_Text" data-name="Non-Cert / COMPCERT / Medium Text">
    <path class="cls-1" d="M75,11.75C38.17,11.75,8.32,41.61,8.32,78.43c0,18.37,7.43,35,19.45,47.06,1.71-1.56,3.5-3.03,5.36-4.42-11.05-10.84-17.91-25.94-17.91-42.64,0-33.01,26.76-59.78,59.78-59.78s59.78,26.76,59.78,59.78c0,16.71-6.86,31.8-17.91,42.64,1.86,1.39,3.65,2.86,5.36,4.42,12.02-12.06,19.45-28.69,19.45-47.06,0-36.83-29.85-66.68-66.68-66.68Z"/>
    <circle class="cls-2" cx="75" cy="78.58" r="59.67"/>
    <g>
      <path class="cls-6" d="M56.5,42.96c-1.79,0-3.2,1.2-3.2,2.72s1.41,2.7,3.2,2.7c1.79,0,3.2-1.18,3.2-2.7s-1.41-2.72-3.2-2.72M56.5,50.21c-2.82,0-5.03-1.98-5.03-4.53,0-2.55,2.21-4.55,5.03-4.55,2.82,0,5.03,2,5.03,4.55,0,2.55-2.21,4.53-5.03,4.53"/>
      <path class="cls-6" d="M74.48,50.21c-1.01,0-1.83-.84-1.83-1.87v-3.77c0-.9-.78-1.62-1.75-1.62-.95,0-1.73.72-1.73,1.62v5.64c-1.01,0-1.83-.82-1.83-1.83v-3.81c0-.9-.78-1.62-1.75-1.62-.95,0-1.74.72-1.74,1.62v3.79c0,1.01-.82,1.85-1.83,1.85v-5.64c0-1.9,1.6-3.45,3.56-3.45,1.06,0,2.02.44,2.66,1.14.65-.71,1.6-1.14,2.65-1.14,1.98,0,3.58,1.54,3.58,3.45v5.64Z"/>
      <path class="cls-6" d="M80.42,50.2c-.48,0-.93-.04-1.35-.13-.95-.27-1.51-1.26-1.26-2.21.04-.11.07-.23.11-.32l.02-.02c.51.57,1.35.86,2.48.86,1.68,0,2.99-1.18,2.99-2.67s-1.31-2.76-2.99-2.76c-1.58,0-3.16.88-3.16,2.8v5.92c0,.99-.84,1.79-1.83,1.79v-7.71c0-2.67,2.1-4.63,4.99-4.63,1.28,0,2.47.48,3.39,1.31.92.86,1.43,2.02,1.43,3.28,0,2.52-2.11,4.49-4.82,4.49"/>
      <path class="cls-6" d="M93.46,39.4h-3.91s0,10.82,0,10.82h-.08c-.97,0-1.75-.84-1.75-1.83v-8.99s-3.91,0-3.91,0c-.99,0-1.79-.82-1.79-1.81h13.26c0,.99-.8,1.81-1.81,1.81"/>
      <path class="cls-6" d="M105.06,39.47l-2.6,5.71h4.9s-2.62-5.73-2.62-5.73l.31.02ZM109.11,49.07l-.97-2.09h-6.49s-.96,2.15-.96,2.15c-.45.86-1.66,1.12-2.58,1.12l5.29-11.61c.3-.67.83-1.05,1.45-1.05.62,0,1.16.38,1.47,1.05l5.23,11.47c-.98.09-2.06-.2-2.44-1.04"/>
      <path class="cls-6" d="M49.42,41c-.99-1.05-2.44-1.73-4.04-1.73-2.84,0-5.14,2.06-5.14,4.59,0,2.53,2.31,4.61,5.14,4.61,1.35,0,2.63-.51,3.6-1.33.67-.55,1.66-.51,2.31.04-.5.76-1.16,1.43-1.98,1.94-1.16.74-2.52,1.12-3.92,1.12-3.83,0-6.93-2.86-6.93-6.38,0-3.52,3.1-6.38,6.93-6.38,2.72,0,5.2,1.49,6.3,3.77-.7.46-1.68.4-2.27-.25"/>
      <path class="cls-6" d="M95.85,37.59v10.85c0,.97.84,1.77,1.83,1.77v-10.85c0-.97-.84-1.77-1.83-1.77"/>
    </g>
    <g>
      <path class="cls-4" d="M51.15,119.82v-7.27h2.73c.56,0,1.03.1,1.41.31s.67.49.86.86.29.78.29,1.24-.1.88-.29,1.24-.49.65-.87.85c-.38.21-.86.31-1.42.31h-1.81v-1.08h1.63c.33,0,.59-.06.8-.17.21-.11.36-.27.46-.47.1-.2.15-.43.15-.69s-.05-.49-.15-.68-.26-.35-.46-.46c-.21-.11-.48-.17-.81-.17h-1.21v6.17h-1.32Z"/>
      <path class="cls-4" d="M57.52,119.82v-5.45h1.25v.91h.06c.1-.32.27-.56.51-.73.24-.17.52-.26.83-.26.07,0,.15,0,.24,0s.16.01.22.03v1.18c-.05-.02-.14-.04-.26-.05-.12-.01-.23-.02-.34-.02-.23,0-.44.05-.63.15-.19.1-.33.24-.44.42-.11.18-.16.38-.16.61v3.21h-1.29Z"/>
      <path class="cls-4" d="M63.64,119.93c-.53,0-.99-.12-1.38-.35s-.69-.56-.91-.98c-.21-.42-.32-.91-.32-1.48s.11-1.06.32-1.48c.21-.42.52-.75.91-.99s.85-.35,1.38-.35.99.12,1.38.35.69.56.91.99c.21.42.32.92.32,1.48s-.11,1.06-.32,1.48c-.21.42-.52.75-.91.98s-.85.35-1.38.35ZM63.65,118.9c.29,0,.53-.08.72-.24.19-.16.34-.37.44-.64.1-.27.14-.57.14-.9s-.05-.64-.14-.91c-.1-.27-.24-.49-.44-.65s-.44-.24-.72-.24-.54.08-.74.24-.34.38-.44.65c-.1.27-.14.57-.14.91s.05.63.14.9c.1.27.24.49.44.64.2.16.44.24.74.24Z"/>
      <path class="cls-4" d="M73.83,114.55c-.03-.31-.17-.55-.42-.72s-.56-.26-.95-.26c-.27,0-.51.04-.71.12s-.35.2-.45.34c-.1.14-.16.3-.16.49,0,.15.04.28.11.39.07.11.17.21.29.28.12.08.25.14.4.19.15.05.29.1.44.13l.68.17c.27.06.54.15.79.26.25.11.48.25.69.41.2.17.36.37.48.6s.18.51.18.82c0,.43-.11.8-.33,1.12-.22.32-.53.58-.94.76-.41.18-.91.27-1.49.27s-1.06-.09-1.47-.26c-.42-.17-.74-.43-.97-.77-.23-.34-.36-.75-.38-1.23h1.3c.02.25.1.46.23.63.14.17.32.29.54.38s.47.12.74.12.54-.04.75-.13c.22-.09.39-.21.51-.36.12-.16.19-.34.19-.55,0-.19-.06-.35-.17-.47-.11-.12-.26-.23-.46-.31s-.42-.16-.68-.23l-.83-.21c-.6-.15-1.07-.39-1.42-.7-.35-.31-.52-.73-.52-1.25,0-.43.12-.8.35-1.13s.55-.57.95-.75c.4-.18.86-.27,1.37-.27s.97.09,1.36.27c.39.18.7.43.92.74.22.32.34.68.34,1.09h-1.27Z"/>
      <path class="cls-4" d="M78.73,119.93c-.55,0-1.02-.11-1.42-.34-.4-.23-.7-.55-.92-.97-.21-.42-.32-.92-.32-1.49s.11-1.05.32-1.48c.21-.42.51-.76.9-.99.39-.24.84-.36,1.36-.36.34,0,.65.05.95.16.3.11.56.27.8.5.23.23.41.51.54.86.13.35.2.76.2,1.24v.39h-4.47v-.87h3.24c0-.25-.06-.47-.16-.66-.1-.19-.25-.35-.43-.46-.19-.11-.4-.17-.65-.17-.26,0-.49.06-.69.19-.2.13-.35.29-.46.5-.11.21-.17.43-.17.67v.76c0,.32.06.59.17.81.12.23.28.4.49.52.21.12.45.18.73.18.19,0,.36-.03.51-.08.15-.05.28-.13.39-.24.11-.1.2-.23.25-.39l1.2.13c-.08.32-.22.59-.43.83s-.48.42-.81.55-.71.19-1.13.19Z"/>
      <path class="cls-4" d="M82.24,119.82v-5.45h1.25v.91h.06c.1-.32.27-.56.51-.73.24-.17.52-.26.83-.26.07,0,.15,0,.24,0s.16.01.22.03v1.18c-.05-.02-.14-.04-.26-.05-.12-.01-.23-.02-.34-.02-.23,0-.45.05-.63.15s-.33.24-.44.42c-.11.18-.16.38-.16.61v3.21h-1.29Z"/>
      <path class="cls-4" d="M86.85,113.59c-.2,0-.38-.07-.53-.2-.15-.14-.22-.3-.22-.49s.07-.36.22-.5c.15-.14.32-.2.53-.2s.38.07.53.2c.15.14.22.3.22.5s-.07.36-.22.49c-.15.14-.32.2-.53.2ZM86.21,119.82v-5.45h1.29v5.45h-1.29Z"/>
      <path class="cls-4" d="M91.23,119.93c-.55,0-1.02-.11-1.42-.34-.4-.23-.7-.55-.91-.97s-.32-.92-.32-1.49.11-1.05.32-1.48c.21-.42.51-.76.9-.99.39-.24.84-.36,1.36-.36.34,0,.65.05.95.16.3.11.56.27.79.5.23.23.41.51.54.86.13.35.2.76.2,1.24v.39h-4.47v-.87h3.24c0-.25-.06-.47-.16-.66-.1-.19-.25-.35-.44-.46-.19-.11-.4-.17-.65-.17-.26,0-.49.06-.69.19-.2.13-.35.29-.46.5s-.17.43-.17.67v.76c0,.32.06.59.17.81.12.23.28.4.49.52.21.12.45.18.73.18.19,0,.36-.03.51-.08.15-.05.28-.13.39-.24.11-.1.2-.23.25-.39l1.2.13c-.08.32-.22.59-.43.83s-.48.42-.81.55-.71.19-1.13.19Z"/>
      <path class="cls-4" d="M99.05,115.81l-1.17.13c-.03-.12-.09-.23-.17-.33-.08-.1-.19-.19-.33-.25-.14-.06-.31-.1-.5-.1-.27,0-.49.06-.67.17s-.27.27-.27.45c0,.16.06.29.18.39.12.1.32.18.59.25l.93.2c.52.11.9.29,1.15.53.25.24.38.56.38.95,0,.34-.1.65-.3.91-.2.26-.47.47-.82.61s-.75.22-1.21.22c-.67,0-1.2-.14-1.61-.42-.41-.28-.65-.67-.73-1.17l1.25-.12c.06.25.18.43.36.56.18.12.42.19.72.19s.55-.06.74-.19c.19-.13.28-.28.28-.46,0-.16-.06-.29-.18-.39-.12-.1-.3-.18-.56-.23l-.93-.2c-.52-.11-.91-.29-1.16-.55-.25-.26-.38-.59-.37-.99,0-.34.09-.63.28-.88.19-.25.44-.44.78-.58.33-.14.72-.2,1.15-.2.64,0,1.14.14,1.51.41s.6.64.68,1.1Z"/>
    </g>
    <g>
      <rect class="cls-3" x="43.75" y="90.57" width="62.49" height="13.5" rx="6.75" ry="6.75"/>
      <g>
        <path class="cls-4" d="M54.77,96.25h-1.2c-.03-.2-.1-.37-.19-.52s-.21-.28-.34-.39c-.14-.11-.29-.19-.47-.24-.17-.05-.36-.08-.56-.08-.36,0-.67.09-.95.27-.27.18-.49.44-.65.78-.16.34-.23.76-.23,1.25s.08.92.24,1.26c.16.34.37.6.65.77.27.17.59.26.94.26.2,0,.38-.03.55-.08.17-.05.33-.13.46-.23.14-.1.25-.23.35-.38.09-.15.16-.32.2-.51h1.2c-.04.32-.14.61-.29.88-.15.27-.34.51-.58.72-.24.21-.52.37-.84.49-.32.12-.67.17-1.06.17-.58,0-1.09-.13-1.54-.4-.45-.27-.81-.65-1.07-1.15-.26-.5-.39-1.11-.39-1.81s.13-1.31.39-1.81c.26-.5.62-.89,1.07-1.15.45-.27.96-.4,1.53-.4.37,0,.7.05,1.02.15.31.1.59.25.84.45s.45.44.61.72c.16.28.26.61.31.97Z"/>
        <path class="cls-4" d="M61.89,97.31c0,.71-.13,1.31-.39,1.81-.26.5-.62.89-1.07,1.15-.45.27-.97.4-1.54.4s-1.09-.13-1.54-.4-.81-.65-1.07-1.15c-.26-.5-.39-1.1-.39-1.81s.13-1.31.39-1.81c.26-.5.62-.89,1.07-1.15.45-.27.97-.4,1.54-.4s1.09.13,1.54.4c.45.27.81.65,1.07,1.15.26.5.39,1.11.39,1.81ZM60.7,97.31c0-.5-.08-.92-.23-1.26-.15-.34-.37-.6-.64-.78-.27-.18-.59-.26-.94-.26s-.67.09-.94.26c-.27.18-.49.43-.64.78s-.23.76-.23,1.26.08.92.23,1.26.37.6.64.78c.27.18.59.26.94.26s.67-.09.94-.26c.27-.18.49-.44.64-.78.16-.34.23-.76.23-1.26Z"/>
        <path class="cls-4" d="M63.2,94.04h1.45l1.94,4.74h.08l1.94-4.74h1.45v6.55h-1.14v-4.5h-.06l-1.81,4.48h-.85l-1.81-4.49h-.06v4.51h-1.14v-6.55Z"/>
        <path class="cls-4" d="M71.53,100.59v-6.55h2.45c.5,0,.93.09,1.27.28s.6.44.78.77c.18.33.26.7.26,1.11s-.09.79-.26,1.12c-.18.33-.44.58-.78.77-.35.19-.77.28-1.28.28h-1.63v-.98h1.47c.29,0,.54-.05.72-.15.19-.1.33-.24.42-.42.09-.18.14-.38.14-.62s-.04-.44-.14-.61c-.09-.18-.23-.32-.42-.41-.19-.1-.43-.15-.73-.15h-1.09v5.55h-1.19Z"/>
        <path class="cls-4" d="M83.11,96.25h-1.2c-.03-.2-.1-.37-.19-.52-.09-.15-.21-.28-.34-.39-.14-.11-.29-.19-.46-.24-.17-.05-.36-.08-.56-.08-.36,0-.67.09-.95.27-.28.18-.49.44-.65.78s-.23.76-.23,1.25.08.92.23,1.26c.16.34.37.6.65.77.27.17.59.26.94.26.2,0,.38-.03.55-.08.17-.05.33-.13.46-.23.14-.1.25-.23.35-.38.09-.15.16-.32.2-.51h1.2c-.04.32-.14.61-.29.88-.15.27-.34.51-.58.72-.24.21-.52.37-.84.49s-.67.17-1.06.17c-.58,0-1.09-.13-1.54-.4-.45-.27-.81-.65-1.07-1.15-.26-.5-.39-1.11-.39-1.81s.13-1.31.39-1.81c.26-.5.62-.89,1.07-1.15.45-.27.96-.4,1.53-.4.36,0,.7.05,1.02.15.31.1.59.25.84.45s.45.44.61.72c.16.28.26.61.31.97Z"/>
        <path class="cls-4" d="M84.38,100.59v-6.55h4.26v.99h-3.07v1.78h2.85v.99h-2.85v1.79h3.1v.99h-4.28Z"/>
        <path class="cls-4" d="M90.03,100.59v-6.55h2.45c.5,0,.93.09,1.27.26.34.17.6.42.78.73s.26.68.26,1.1-.09.78-.27,1.09c-.18.31-.44.55-.79.71-.34.17-.77.25-1.27.25h-1.75v-.98h1.59c.29,0,.54-.04.72-.12s.33-.2.42-.36.14-.35.14-.59-.05-.43-.14-.6c-.09-.17-.23-.29-.42-.38s-.43-.13-.73-.13h-1.09v5.55h-1.19ZM93.41,97.62l1.62,2.97h-1.32l-1.59-2.97h1.29Z"/>
        <path class="cls-4" d="M95.77,95.03v-.99h5.22v.99h-2.02v5.55h-1.18v-5.55h-2.02Z"/>
      </g>
    </g>
    <g>
      <path class="cls-5" d="M29.85,79.52h-6.58v-11.42h6.58v1.98h-4.16v2.51h3.87v1.98h-3.87v2.94h4.16v2Z"/>
      <path class="cls-5" d="M35.08,77.78c.27,0,.52-.03.77-.08.25-.05.49-.12.74-.19v1.78c-.26.11-.57.2-.95.28-.38.08-.79.12-1.24.12-.52,0-.99-.08-1.4-.26-.41-.17-.74-.47-.98-.89-.24-.42-.36-1-.36-1.75v-4.21h-1.14v-1.01l1.31-.8.69-1.84h1.52v1.86h2.45v1.79h-2.45v4.21c0,.33.1.58.29.74.19.17.44.25.75.25Z"/>
      <path class="cls-5" d="M40.09,69.84c0,.43-.01.84-.04,1.23s-.05.67-.07.83h.13c.19-.3.42-.54.67-.73.26-.19.54-.33.86-.42.31-.09.65-.14,1-.14.63,0,1.18.11,1.65.34.47.22.83.57,1.1,1.04.26.47.39,1.08.39,1.82v5.7h-2.38v-5.1c0-.63-.11-1.1-.34-1.42s-.58-.47-1.06-.47-.86.11-1.13.34c-.27.22-.47.55-.58.98-.12.43-.18.95-.18,1.57v4.11h-2.38v-12.16h2.38v2.48Z"/>
      <path class="cls-5" d="M48.78,67.36c.35,0,.66.08.91.25.26.17.38.47.38.92s-.13.74-.38.91c-.26.17-.56.26-.91.26s-.67-.08-.92-.26c-.25-.17-.38-.47-.38-.91s.12-.75.38-.92c.25-.16.56-.25.92-.25ZM49.96,70.79v8.74h-2.38v-8.74h2.38Z"/>
      <path class="cls-5" d="M55.37,79.68c-.86,0-1.6-.16-2.21-.47-.61-.31-1.07-.8-1.39-1.46-.32-.66-.48-1.51-.48-2.54s.18-1.94.54-2.61c.36-.67.87-1.17,1.51-1.49.64-.32,1.39-.48,2.23-.48.6,0,1.12.06,1.56.18.44.12.83.26,1.16.42l-.7,1.84c-.37-.15-.72-.27-1.05-.37-.33-.1-.65-.14-.97-.14-.42,0-.76.1-1.04.3s-.48.49-.62.88c-.13.39-.2.88-.2,1.46s.07,1.05.22,1.43c.14.38.35.66.63.85s.61.28,1.01.28c.5,0,.94-.07,1.33-.2s.76-.32,1.12-.55v2.03c-.36.24-.74.4-1.14.5-.4.1-.9.15-1.51.15Z"/>
      <path class="cls-5" d="M62.98,70.61c1.17,0,2.07.25,2.7.76s.94,1.28.94,2.33v5.82h-1.66l-.46-1.18h-.06c-.25.31-.5.57-.76.77-.26.2-.56.35-.9.44s-.75.14-1.24.14-.97-.1-1.38-.3c-.41-.2-.73-.5-.97-.91-.24-.41-.35-.93-.35-1.56,0-.93.33-1.61.98-2.06.65-.44,1.63-.68,2.93-.73l1.52-.05v-.38c0-.46-.12-.79-.36-1.01-.24-.21-.57-.32-1-.32s-.84.06-1.25.18c-.41.12-.81.27-1.22.46l-.78-1.62c.47-.25.99-.44,1.56-.58s1.17-.21,1.78-.21ZM63.32,75.51c-.77.02-1.3.16-1.6.42-.3.26-.45.59-.45,1.01,0,.36.11.62.32.78.21.16.49.23.83.23.51,0,.94-.15,1.3-.46.35-.3.53-.73.53-1.29v-.72l-.93.03Z"/>
      <path class="cls-5" d="M70.81,79.52h-2.38v-12.16h2.38v12.16Z"/>
      <path class="cls-5" d="M85.74,79.52h-2.42v-4.93h-4.53v4.93h-2.42v-11.42h2.42v4.48h4.53v-4.48h2.42v11.42Z"/>
      <path class="cls-5" d="M91.37,70.61c1.17,0,2.07.25,2.7.76s.94,1.28.94,2.33v5.82h-1.66l-.46-1.18h-.06c-.25.31-.5.57-.76.77-.26.2-.56.35-.9.44s-.75.14-1.24.14-.97-.1-1.38-.3c-.41-.2-.73-.5-.97-.91-.24-.41-.35-.93-.35-1.56,0-.93.33-1.61.98-2.06.65-.44,1.63-.68,2.93-.73l1.52-.05v-.38c0-.46-.12-.79-.36-1.01-.24-.21-.57-.32-1-.32s-.84.06-1.25.18c-.41.12-.81.27-1.22.46l-.78-1.62c.47-.25.99-.44,1.56-.58s1.17-.21,1.78-.21ZM91.7,75.51c-.77.02-1.3.16-1.6.42-.3.26-.45.59-.45,1.01,0,.36.11.62.32.78.21.16.49.23.83.23.51,0,.94-.15,1.3-.46.35-.3.53-.73.53-1.29v-.72l-.93.03Z"/>
      <path class="cls-5" d="M100.36,79.68c-.86,0-1.6-.16-2.21-.47-.61-.31-1.07-.8-1.39-1.46-.32-.66-.48-1.51-.48-2.54s.18-1.94.54-2.61c.36-.67.87-1.17,1.51-1.49.64-.32,1.39-.48,2.23-.48.6,0,1.12.06,1.56.18.44.12.83.26,1.16.42l-.7,1.84c-.37-.15-.72-.27-1.05-.37-.33-.1-.65-.14-.97-.14-.42,0-.76.1-1.04.3s-.48.49-.62.88c-.13.39-.2.88-.2,1.46s.07,1.05.22,1.43c.14.38.35.66.63.85s.61.28,1.01.28c.5,0,.94-.07,1.33-.2s.76-.32,1.12-.55v2.03c-.36.24-.74.4-1.14.5-.4.1-.9.15-1.51.15Z"/>
      <path class="cls-5" d="M106.78,72.8c0,.33-.01.66-.04.98s-.06.65-.09.98h.03c.11-.15.22-.3.33-.45.11-.15.23-.3.34-.45s.24-.29.37-.43l2.45-2.66h2.69l-3.47,3.79,3.68,4.94h-2.75l-2.51-3.54-1.02.82v2.72h-2.38v-12.16h2.38v5.44Z"/>
      <path class="cls-5" d="M117.27,70.63c.81,0,1.51.16,2.09.46.58.31,1.03.76,1.35,1.34.32.59.48,1.31.48,2.16v1.15h-5.63c.02.67.22,1.2.6,1.58.38.38.9.58,1.58.58.57,0,1.08-.06,1.54-.17.46-.11.93-.29,1.42-.52v1.84c-.43.21-.88.37-1.35.47-.47.1-1.05.15-1.72.15-.88,0-1.65-.16-2.32-.49-.67-.32-1.2-.82-1.58-1.48s-.58-1.49-.58-2.5.17-1.87.52-2.55.83-1.19,1.45-1.53c.62-.34,1.34-.51,2.16-.51ZM117.29,72.32c-.46,0-.84.15-1.14.45-.3.3-.48.76-.54,1.39h3.34c0-.35-.06-.67-.18-.94-.12-.28-.31-.5-.55-.66s-.55-.24-.93-.24Z"/>
      <path class="cls-5" d="M127.37,70.63c.12,0,.26,0,.42.02.16,0,.29.03.38.05l-.18,2.24c-.07-.02-.18-.04-.33-.06-.14-.02-.27-.02-.38-.02-.31,0-.61.04-.9.12-.29.08-.55.21-.78.38-.23.17-.41.4-.54.68-.13.28-.2.63-.2,1.05v4.45h-2.38v-8.74h1.81l.35,1.47h.11c.17-.3.38-.57.64-.82.26-.24.55-.44.89-.59.34-.15.7-.22,1.08-.22Z"/>
    </g>
  </g>
</svg>