<?xml version="1.0" encoding="UTF-8"?>
<svg id="Logos" xmlns="http://www.w3.org/2000/svg" viewBox="0 0 150 150">
  <defs>
    <style>
      .cls-1 {
        fill: #004b7f;
      }

      .cls-1, .cls-2 {
        stroke: #004b7f;
        stroke-width: 2px;
      }

      .cls-1, .cls-2, .cls-3 {
        stroke-miterlimit: 10;
      }

      .cls-2 {
        fill: #fff;
      }

      .cls-3 {
        fill: none;
        stroke: #50595e;
        stroke-width: 1.25px;
      }

      .cls-4 {
        fill: #50595e;
      }

      .cls-5 {
        fill: #20282f;
      }

      .cls-6 {
        fill: #c8102e;
      }
    </style>
  </defs>
  <g id="Non-Cert_COMPCERT_Medium_Text" data-name="Non-Cert / COMPCERT / Medium Text">
    <path class="cls-1" d="M75,11.75C38.17,11.75,8.32,41.61,8.32,78.43c0,18.37,7.43,35,19.45,47.06,1.71-1.56,3.5-3.03,5.36-4.42-11.05-10.84-17.91-25.94-17.91-42.64,0-33.01,26.76-59.78,59.78-59.78s59.78,26.76,59.78,59.78c0,16.71-6.86,31.8-17.91,42.64,1.86,1.39,3.65,2.86,5.36,4.42,12.02-12.06,19.45-28.69,19.45-47.06,0-36.83-29.85-66.68-66.68-66.68Z"/>
    <circle class="cls-2" cx="75" cy="78.58" r="59.67"/>
    <g>
      <path class="cls-6" d="M56.5,42.96c-1.79,0-3.2,1.2-3.2,2.72s1.41,2.7,3.2,2.7c1.79,0,3.2-1.18,3.2-2.7s-1.41-2.72-3.2-2.72M56.5,50.21c-2.82,0-5.03-1.98-5.03-4.53,0-2.55,2.21-4.55,5.03-4.55,2.82,0,5.03,2,5.03,4.55,0,2.55-2.21,4.53-5.03,4.53"/>
      <path class="cls-6" d="M74.48,50.21c-1.01,0-1.83-.84-1.83-1.87v-3.77c0-.9-.78-1.62-1.75-1.62-.95,0-1.73.72-1.73,1.62v5.64c-1.01,0-1.83-.82-1.83-1.83v-3.81c0-.9-.78-1.62-1.75-1.62s-1.74.72-1.74,1.62v3.79c0,1.01-.82,1.85-1.83,1.85v-5.64c0-1.9,1.6-3.45,3.56-3.45,1.06,0,2.02.44,2.66,1.14.65-.71,1.6-1.14,2.65-1.14,1.98,0,3.58,1.54,3.58,3.45v5.64Z"/>
      <path class="cls-6" d="M80.42,50.2c-.48,0-.93-.04-1.35-.13-.95-.27-1.51-1.26-1.26-2.21.04-.11.07-.23.11-.32l.02-.02c.51.57,1.35.86,2.48.86,1.68,0,2.99-1.18,2.99-2.67s-1.31-2.76-2.99-2.76c-1.58,0-3.16.88-3.16,2.8v5.92c0,.99-.84,1.79-1.83,1.79v-7.71c0-2.67,2.1-4.63,4.99-4.63,1.28,0,2.47.48,3.39,1.31.92.86,1.43,2.02,1.43,3.28,0,2.52-2.11,4.49-4.82,4.49"/>
      <path class="cls-6" d="M93.46,39.4h-3.91s0,10.82,0,10.82h-.08c-.97,0-1.75-.84-1.75-1.83v-8.99s-3.91,0-3.91,0c-.99,0-1.79-.82-1.79-1.81h13.26c0,.99-.8,1.81-1.81,1.81"/>
      <path class="cls-6" d="M105.06,39.47l-2.6,5.71h4.9s-2.62-5.73-2.62-5.73l.31.02ZM109.11,49.07l-.97-2.09h-6.49s-.96,2.15-.96,2.15c-.45.86-1.66,1.12-2.58,1.12l5.29-11.61c.3-.67.83-1.05,1.45-1.05.62,0,1.16.38,1.47,1.05l5.23,11.47c-.98.09-2.06-.2-2.44-1.04"/>
      <path class="cls-6" d="M49.42,41c-.99-1.05-2.44-1.73-4.04-1.73-2.84,0-5.14,2.06-5.14,4.59,0,2.53,2.31,4.61,5.14,4.61,1.35,0,2.63-.51,3.6-1.33.67-.55,1.66-.51,2.31.04-.5.76-1.16,1.43-1.98,1.94-1.16.74-2.52,1.12-3.92,1.12-3.83,0-6.93-2.86-6.93-6.38,0-3.52,3.1-6.38,6.93-6.38,2.72,0,5.2,1.49,6.3,3.77-.7.46-1.68.4-2.27-.25"/>
      <path class="cls-6" d="M95.85,37.59v10.85c0,.97.84,1.77,1.83,1.77v-10.85c0-.97-.84-1.77-1.83-1.77"/>
    </g>
    <g>
      <path class="cls-4" d="M51.15,119.82v-7.27h2.73c.56,0,1.03.1,1.41.31s.67.5.86.86.29.78.29,1.24-.1.88-.29,1.24c-.2.36-.49.65-.87.85s-.86.31-1.42.31h-1.81v-1.08h1.63c.33,0,.59-.06.8-.17.21-.11.36-.27.46-.47.1-.2.15-.43.15-.69s-.05-.48-.15-.68c-.1-.2-.26-.35-.46-.46-.21-.11-.48-.17-.81-.17h-1.21v6.17h-1.32Z"/>
      <path class="cls-4" d="M57.52,119.82v-5.45h1.25v.91h.06c.1-.31.27-.56.51-.73.24-.17.52-.26.83-.26.07,0,.15,0,.24,0s.16.02.22.03v1.18c-.05-.02-.14-.04-.26-.05s-.23-.02-.34-.02c-.23,0-.44.05-.63.15-.19.1-.33.24-.44.42s-.16.38-.16.61v3.21h-1.29Z"/>
      <path class="cls-4" d="M63.64,119.93c-.53,0-.99-.12-1.38-.35s-.69-.56-.91-.98c-.21-.42-.32-.91-.32-1.48s.11-1.06.32-1.48c.21-.42.52-.75.91-.99s.85-.35,1.38-.35.99.12,1.39.35.69.56.91.99c.21.42.32.92.32,1.48s-.11,1.06-.32,1.48c-.21.42-.52.75-.91.98s-.85.35-1.39.35ZM63.65,118.9c.29,0,.53-.08.72-.24.19-.16.34-.38.44-.64.1-.27.14-.57.14-.9s-.05-.64-.14-.91c-.1-.27-.24-.49-.44-.65-.19-.16-.44-.24-.72-.24s-.54.08-.74.24-.34.38-.44.65c-.1.27-.14.57-.14.91s.05.63.14.9c.1.27.24.48.44.64.2.16.44.24.74.24Z"/>
      <path class="cls-4" d="M73.83,114.55c-.03-.31-.17-.55-.42-.72-.25-.17-.56-.26-.95-.26-.27,0-.51.04-.71.12-.2.08-.35.2-.45.34-.1.14-.16.3-.16.49,0,.15.04.28.1.39s.17.21.29.28.25.14.4.19.29.1.44.13l.68.17c.27.06.54.15.79.26.25.11.48.25.69.41.2.17.36.37.48.6s.18.51.18.82c0,.43-.11.8-.33,1.12-.22.32-.53.58-.94.76-.41.18-.91.27-1.49.27s-1.06-.09-1.47-.26c-.42-.17-.74-.43-.97-.77-.23-.34-.36-.75-.38-1.23h1.3c.02.25.1.46.23.63.14.17.32.29.54.38.22.08.47.12.74.12s.54-.04.75-.13c.22-.09.39-.21.51-.36s.19-.34.19-.55c0-.19-.06-.35-.17-.47s-.26-.23-.46-.31-.42-.16-.68-.23l-.83-.21c-.6-.15-1.07-.39-1.42-.7-.35-.31-.52-.73-.52-1.25,0-.43.12-.8.35-1.13.23-.32.55-.57.95-.75.4-.18.86-.27,1.37-.27s.97.09,1.36.27c.39.18.7.43.92.74.22.32.34.68.34,1.09h-1.27Z"/>
      <path class="cls-4" d="M78.73,119.93c-.55,0-1.02-.12-1.42-.34-.4-.23-.7-.55-.91-.97-.21-.42-.32-.92-.32-1.49s.11-1.05.32-1.48.51-.76.9-.99c.39-.24.84-.36,1.36-.36.34,0,.65.05.95.16.3.11.56.27.8.5.23.23.41.51.54.86.13.35.2.76.2,1.24v.39h-4.47v-.87h3.24c0-.25-.06-.46-.16-.66-.1-.19-.25-.35-.44-.46-.19-.11-.4-.17-.65-.17-.26,0-.49.06-.69.19s-.35.29-.46.5c-.11.2-.17.43-.17.67v.76c0,.32.06.59.17.82.12.23.28.4.49.52.21.12.45.18.73.18.19,0,.36-.03.51-.08.15-.05.28-.13.39-.24.11-.1.2-.23.25-.39l1.2.13c-.08.32-.22.59-.43.83-.21.23-.48.42-.81.55s-.71.19-1.13.19Z"/>
      <path class="cls-4" d="M82.24,119.82v-5.45h1.25v.91h.06c.1-.31.27-.56.51-.73.24-.17.52-.26.83-.26.07,0,.15,0,.24,0s.16.02.22.03v1.18c-.05-.02-.14-.04-.26-.05s-.23-.02-.34-.02c-.23,0-.44.05-.63.15-.19.1-.33.24-.44.42s-.16.38-.16.61v3.21h-1.29Z"/>
      <path class="cls-4" d="M86.85,113.59c-.2,0-.38-.07-.53-.2s-.22-.3-.22-.49.07-.36.22-.5c.15-.14.32-.2.53-.2s.38.07.53.2c.15.14.22.3.22.5s-.07.36-.22.49c-.15.14-.32.2-.53.2ZM86.21,119.82v-5.45h1.29v5.45h-1.29Z"/>
      <path class="cls-4" d="M91.23,119.93c-.55,0-1.02-.12-1.42-.34-.4-.23-.7-.55-.91-.97-.21-.42-.32-.92-.32-1.49s.11-1.05.32-1.48.51-.76.9-.99c.39-.24.84-.36,1.36-.36.34,0,.65.05.95.16.3.11.56.27.8.5.23.23.41.51.54.86.13.35.2.76.2,1.24v.39h-4.47v-.87h3.24c0-.25-.06-.46-.16-.66-.1-.19-.25-.35-.44-.46-.19-.11-.4-.17-.65-.17-.26,0-.49.06-.69.19s-.35.29-.46.5c-.11.2-.17.43-.17.67v.76c0,.32.06.59.17.82.12.23.28.4.49.52.21.12.45.18.73.18.19,0,.36-.03.51-.08.15-.05.28-.13.39-.24.11-.1.2-.23.25-.39l1.2.13c-.08.32-.22.59-.43.83-.21.23-.48.42-.81.55s-.71.19-1.13.19Z"/>
      <path class="cls-4" d="M99.05,115.81l-1.17.13c-.03-.12-.09-.23-.17-.33-.08-.1-.19-.19-.33-.25-.14-.06-.31-.1-.5-.1-.27,0-.49.06-.67.17-.18.12-.27.27-.27.45,0,.16.06.29.18.39.12.1.32.18.59.25l.93.2c.52.11.9.29,1.15.53s.38.56.38.95c0,.34-.1.65-.3.91-.2.26-.47.47-.82.61s-.75.22-1.21.22c-.67,0-1.2-.14-1.61-.42-.41-.28-.65-.67-.73-1.17l1.25-.12c.06.25.18.43.36.56.18.12.42.19.72.19s.55-.06.74-.19c.19-.12.28-.28.28-.46,0-.16-.06-.29-.18-.39-.12-.1-.3-.18-.56-.23l-.93-.2c-.52-.11-.91-.29-1.16-.55-.25-.26-.38-.59-.37-.99,0-.34.09-.63.28-.88.19-.25.44-.44.78-.57.33-.14.72-.21,1.15-.21.64,0,1.14.14,1.51.41.37.27.6.64.68,1.11Z"/>
    </g>
    <g>
      <rect class="cls-3" x="43.75" y="90.57" width="62.49" height="13.5" rx="6.75" ry="6.75"/>
      <g>
        <path class="cls-4" d="M54.77,96.25h-1.2c-.03-.2-.1-.37-.19-.52-.09-.15-.21-.28-.34-.39-.14-.11-.29-.19-.47-.24-.17-.05-.36-.08-.56-.08-.36,0-.67.09-.95.27s-.49.44-.65.78c-.16.34-.23.76-.23,1.25s.08.92.23,1.26c.16.34.37.6.65.77.27.17.59.26.94.26.2,0,.38-.03.55-.08.17-.05.33-.13.46-.23.14-.1.25-.23.35-.38.09-.15.16-.32.2-.51h1.2c-.04.32-.14.61-.29.88s-.34.51-.58.72-.52.37-.84.49c-.32.12-.67.17-1.06.17-.58,0-1.09-.13-1.54-.4-.45-.27-.81-.65-1.07-1.15-.26-.5-.39-1.11-.39-1.81s.13-1.31.39-1.81.62-.89,1.07-1.15c.45-.27.96-.4,1.53-.4.36,0,.7.05,1.02.15.31.1.59.25.84.45s.45.44.61.72c.16.28.26.61.31.97Z"/>
        <path class="cls-4" d="M61.89,97.31c0,.71-.13,1.31-.39,1.81s-.62.89-1.07,1.15c-.45.27-.97.4-1.54.4s-1.09-.13-1.54-.4c-.45-.27-.81-.65-1.07-1.15s-.39-1.1-.39-1.81.13-1.31.39-1.81.62-.89,1.07-1.15c.45-.27.97-.4,1.54-.4s1.09.13,1.54.4c.45.27.81.65,1.07,1.15s.39,1.11.39,1.81ZM60.7,97.31c0-.5-.08-.92-.23-1.26-.15-.34-.37-.6-.64-.78s-.59-.26-.94-.26-.67.09-.94.26c-.27.18-.49.43-.64.78-.15.34-.23.76-.23,1.26s.08.92.23,1.26c.15.34.37.6.64.78.27.18.59.26.94.26s.67-.09.94-.26.49-.43.64-.78c.15-.34.23-.76.23-1.26Z"/>
        <path class="cls-4" d="M63.2,94.04h1.45l1.94,4.74h.08l1.94-4.74h1.45v6.54h-1.14v-4.5h-.06l-1.81,4.48h-.85l-1.81-4.49h-.06v4.51h-1.14v-6.54Z"/>
        <path class="cls-4" d="M71.53,100.58v-6.54h2.45c.5,0,.93.09,1.27.28.34.19.6.44.78.77s.26.7.26,1.11-.09.79-.27,1.12c-.18.33-.44.58-.78.77s-.77.28-1.28.28h-1.63v-.98h1.47c.29,0,.53-.05.72-.15.19-.1.33-.24.42-.42.09-.18.14-.38.14-.62s-.05-.44-.14-.61c-.09-.18-.23-.31-.42-.41-.19-.1-.43-.15-.73-.15h-1.09v5.55h-1.19Z"/>
        <path class="cls-4" d="M83.11,96.25h-1.2c-.03-.2-.1-.37-.19-.52-.09-.15-.21-.28-.34-.39-.14-.11-.29-.19-.47-.24-.17-.05-.36-.08-.56-.08-.36,0-.67.09-.95.27s-.49.44-.65.78c-.16.34-.23.76-.23,1.25s.08.92.23,1.26c.16.34.37.6.65.77.27.17.59.26.94.26.2,0,.38-.03.55-.08.17-.05.33-.13.46-.23.14-.1.25-.23.35-.38.09-.15.16-.32.2-.51h1.2c-.04.32-.14.61-.29.88s-.34.51-.58.72-.52.37-.84.49c-.32.12-.67.17-1.06.17-.58,0-1.09-.13-1.54-.4-.45-.27-.81-.65-1.07-1.15-.26-.5-.39-1.11-.39-1.81s.13-1.31.39-1.81.62-.89,1.07-1.15c.45-.27.96-.4,1.53-.4.36,0,.7.05,1.02.15.31.1.59.25.84.45s.45.44.61.72c.16.28.26.61.31.97Z"/>
        <path class="cls-4" d="M84.38,100.58v-6.54h4.26v.99h-3.07v1.78h2.85v.99h-2.85v1.79h3.1v.99h-4.28Z"/>
        <path class="cls-4" d="M90.03,100.58v-6.54h2.45c.5,0,.93.09,1.27.26.34.17.6.42.78.73s.26.68.26,1.1-.09.78-.27,1.09c-.18.31-.44.55-.78.71-.34.17-.77.25-1.27.25h-1.75v-.98h1.59c.29,0,.53-.04.72-.12s.33-.2.42-.36c.09-.16.14-.35.14-.59s-.05-.43-.14-.6c-.09-.17-.23-.29-.42-.38-.19-.09-.43-.13-.73-.13h-1.09v5.55h-1.19ZM93.41,97.62l1.62,2.97h-1.32l-1.59-2.97h1.29Z"/>
        <path class="cls-4" d="M95.77,95.03v-.99h5.22v.99h-2.02v5.55h-1.18v-5.55h-2.02Z"/>
      </g>
    </g>
    <g>
      <path class="cls-5" d="M58.06,59.54l-2.55,10h-2.41l-1.36-5.25c-.03-.1-.06-.26-.1-.46s-.09-.43-.14-.67c-.05-.24-.1-.47-.13-.69-.04-.22-.07-.39-.08-.51,0,.12-.04.29-.08.51-.04.22-.09.45-.13.69s-.09.46-.14.67c-.05.21-.08.37-.11.48l-1.34,5.24h-2.41l-2.55-10h2.09l1.27,5.46c.04.16.08.35.13.58.05.23.09.47.14.71.05.25.09.49.13.72s.07.43.09.6c.02-.18.05-.38.08-.61s.08-.46.13-.7c.05-.24.09-.46.13-.67s.08-.38.12-.5l1.46-5.6h2l1.46,5.6c.03.12.07.29.11.5s.09.44.14.68c.05.24.09.48.13.71.04.23.07.43.08.59.03-.23.07-.51.13-.83.06-.32.12-.65.19-.97s.13-.6.17-.81l1.27-5.46h2.09Z"/>
      <path class="cls-5" d="M60.2,58.9c.31,0,.57.07.8.22.22.14.34.41.34.8s-.11.65-.34.8c-.22.15-.49.22-.8.22s-.58-.07-.8-.22-.33-.42-.33-.8.11-.66.33-.8.49-.22.8-.22ZM61.24,61.89v7.64h-2.09v-7.64h2.09Z"/>
      <path class="cls-5" d="M67.45,61.75c.82,0,1.48.22,1.97.66.49.44.74,1.16.74,2.14v4.98h-2.09v-4.46c0-.55-.1-.96-.29-1.24-.2-.27-.51-.41-.94-.41-.63,0-1.07.22-1.3.65-.23.43-.35,1.06-.35,1.87v3.6h-2.09v-7.64h1.6l.28.98h.11c.17-.26.37-.47.62-.64.24-.16.51-.28.81-.36.3-.08.61-.12.92-.12Z"/>
      <path class="cls-5" d="M74.43,69.68c-.85,0-1.54-.33-2.08-1-.54-.67-.8-1.65-.8-2.95s.27-2.3.81-2.97c.54-.67,1.25-1.01,2.13-1.01.36,0,.69.05.97.15s.52.23.72.4c.2.17.37.36.51.57h.07c-.03-.15-.06-.37-.1-.65-.04-.29-.06-.58-.06-.88v-2.45h2.09v10.64h-1.6l-.41-.99h-.08c-.13.21-.3.39-.5.57-.2.17-.44.31-.71.41-.27.1-.59.15-.97.15ZM75.15,68.01c.58,0,.98-.17,1.22-.51.23-.34.35-.85.36-1.53v-.22c0-.75-.11-1.32-.34-1.71-.23-.39-.65-.59-1.27-.59-.46,0-.82.2-1.08.6-.26.4-.39.97-.39,1.71s.13,1.31.39,1.69c.26.38.63.57,1.11.57Z"/>
      <path class="cls-5" d="M87.42,65.7c0,.63-.09,1.2-.26,1.69-.17.5-.42.91-.74,1.25-.32.34-.71.6-1.17.77-.46.17-.98.26-1.55.26-.53,0-1.02-.09-1.48-.26-.45-.17-.84-.43-1.17-.77-.33-.34-.58-.76-.76-1.25-.18-.5-.27-1.06-.27-1.69,0-.85.15-1.56.45-2.15s.73-1.03,1.29-1.34c.56-.31,1.22-.46,1.99-.46.72,0,1.35.15,1.9.46s.98.75,1.3,1.34.48,1.3.48,2.15ZM82.14,65.7c0,.5.05.93.16,1.27s.28.6.51.77c.23.17.54.26.91.26s.67-.09.9-.26c.23-.17.4-.43.5-.77s.16-.76.16-1.27-.05-.92-.16-1.26-.28-.59-.51-.76c-.23-.17-.54-.25-.91-.25-.55,0-.95.19-1.2.57-.25.38-.37.95-.37,1.7Z"/>
      <path class="cls-5" d="M94.25,66.86c-.04-.16-.09-.39-.16-.71s-.15-.65-.23-1.01-.16-.69-.24-.99c-.08-.3-.13-.53-.15-.66h-.06c-.03.14-.08.36-.15.66-.07.3-.15.63-.23.99s-.16.7-.24,1.02c-.08.32-.13.56-.17.73l-.62,2.65h-2.24l-2.17-7.64h2.07l.88,3.39c.07.23.12.51.17.84.05.33.1.64.15.95.05.3.08.54.1.72h.06c0-.13.03-.3.06-.52s.06-.45.11-.68c.04-.23.08-.45.11-.64.03-.19.06-.32.08-.39l.94-3.67h2.3l.9,3.67c.04.13.08.34.13.63.05.29.1.58.14.88s.06.54.06.71h.06c.02-.16.05-.39.1-.69s.1-.62.16-.96.12-.62.19-.85l.91-3.39h2.04l-2.2,7.64h-2.27l-.59-2.67Z"/>
      <path class="cls-5" d="M105.56,67.27c0,.51-.12.95-.36,1.31-.24.36-.61.63-1.09.82s-1.09.28-1.81.28c-.53,0-.99-.04-1.37-.11s-.77-.18-1.15-.34v-1.72c.41.19.85.34,1.33.46.48.12.9.18,1.26.18.41,0,.7-.06.88-.18.17-.12.26-.28.26-.48,0-.13-.04-.25-.11-.35-.07-.1-.22-.22-.46-.35-.23-.13-.6-.3-1.09-.5-.48-.21-.87-.41-1.18-.61s-.54-.44-.69-.73c-.15-.29-.22-.64-.22-1.07,0-.71.28-1.24.83-1.6.55-.35,1.28-.53,2.2-.53.48,0,.93.05,1.36.14.43.09.87.25,1.33.46l-.63,1.5c-.37-.16-.73-.29-1.06-.4-.34-.11-.68-.16-1.02-.16-.31,0-.54.04-.69.13-.15.08-.23.21-.23.38,0,.12.04.23.12.33.08.1.23.2.46.31.23.11.57.26,1.01.45.44.18.82.36,1.13.55.32.19.56.43.74.71.17.29.26.66.26,1.11Z"/>
      <path class="cls-5" d="M31.85,84.54h-2.11v-4.31h-3.96v4.31h-2.11v-10h2.11v3.92h3.96v-3.92h2.11v10Z"/>
      <path class="cls-5" d="M32.8,76.89h2.28l1.44,4.3c.05.14.09.28.12.42.03.14.06.29.08.43.02.15.04.31.05.48h.04c.03-.24.07-.47.12-.69.05-.22.11-.43.17-.64l1.41-4.3h2.24l-3.23,8.62c-.2.52-.45.96-.76,1.32-.31.35-.67.62-1.08.8-.41.18-.86.27-1.34.27-.23,0-.44-.01-.61-.03-.17-.02-.32-.05-.46-.08v-1.65c.1.02.23.04.37.06s.3.03.46.03c.29,0,.54-.06.75-.18s.38-.29.53-.5c.14-.21.25-.44.34-.68l.13-.38-3.04-7.59Z"/>
      <path class="cls-5" d="M43.63,76.38c0,.29,0,.57-.03.85-.02.28-.04.5-.06.66h.08c.21-.32.48-.58.83-.81.35-.22.79-.33,1.34-.33.86,0,1.55.33,2.09,1,.53.67.8,1.65.8,2.95,0,.87-.12,1.6-.37,2.19-.25.59-.59,1.04-1.03,1.34-.44.3-.95.45-1.54.45s-1-.1-1.32-.3c-.32-.2-.59-.43-.79-.68h-.14l-.35.84h-1.6v-10.64h2.09v2.48ZM45.13,78.42c-.36,0-.65.07-.87.22s-.37.38-.47.68c-.1.3-.15.68-.16,1.14v.22c0,.74.11,1.3.33,1.7s.62.59,1.2.59c.43,0,.77-.2,1.02-.59s.38-.97.38-1.71-.13-1.31-.38-1.69c-.26-.38-.6-.57-1.04-.57Z"/>
      <path class="cls-5" d="M54.37,76.75c.1,0,.22,0,.36.01.14,0,.25.02.34.04l-.15,1.96c-.07-.02-.16-.04-.29-.05s-.24-.02-.33-.02c-.27,0-.53.04-.78.11s-.48.18-.68.33c-.2.15-.36.35-.48.59-.12.25-.17.55-.17.92v3.89h-2.09v-7.64h1.58l.31,1.29h.1c.15-.26.34-.5.56-.71.22-.21.48-.39.78-.52s.61-.2.95-.2Z"/>
      <path class="cls-5" d="M57.2,73.9c.31,0,.57.07.8.22.22.14.34.41.34.8s-.11.65-.34.8c-.22.15-.49.22-.8.22s-.58-.07-.8-.22-.33-.42-.33-.8.11-.66.33-.8.49-.22.8-.22ZM58.23,76.89v7.64h-2.09v-7.64h2.09Z"/>
      <path class="cls-5" d="M62.53,84.68c-.85,0-1.54-.33-2.08-1-.54-.67-.8-1.65-.8-2.95s.27-2.3.81-2.97c.54-.67,1.25-1.01,2.13-1.01.36,0,.69.05.97.15s.52.23.72.4c.2.17.37.36.51.57h.07c-.03-.15-.06-.37-.1-.65-.04-.29-.06-.58-.06-.88v-2.45h2.09v10.64h-1.6l-.41-.99h-.08c-.13.21-.3.39-.5.57-.2.17-.44.31-.71.41-.27.1-.59.15-.97.15ZM63.26,83.01c.58,0,.98-.17,1.22-.51.23-.34.35-.85.36-1.53v-.22c0-.75-.11-1.32-.34-1.71-.23-.39-.65-.59-1.27-.59-.46,0-.82.2-1.08.6-.26.4-.39.97-.39,1.71s.13,1.31.39,1.69c.26.38.63.57,1.11.57Z"/>
      <path class="cls-5" d="M78.06,81.77c0,.59-.15,1.1-.43,1.54s-.71.78-1.25,1.01-1.21.36-2,.36c-.34,0-.68-.02-1.01-.07s-.65-.11-.95-.2c-.3-.09-.59-.2-.86-.33v-1.97c.48.21.97.39,1.48.57.51.17,1.01.26,1.52.26.35,0,.62-.05.83-.14.21-.09.36-.22.46-.38.1-.16.15-.34.15-.55,0-.25-.09-.47-.26-.64-.17-.18-.4-.34-.69-.5s-.62-.32-.99-.5c-.23-.11-.49-.25-.76-.4s-.53-.34-.78-.57c-.25-.23-.45-.51-.61-.83-.16-.33-.24-.72-.24-1.18,0-.6.14-1.11.41-1.53.28-.42.67-.75,1.18-.97.51-.22,1.11-.34,1.8-.34.52,0,1.02.06,1.49.18.47.12.96.29,1.48.52l-.69,1.65c-.46-.19-.87-.33-1.23-.43-.36-.1-.74-.15-1.12-.15-.26,0-.49.04-.67.12-.19.08-.33.2-.43.35-.1.15-.15.33-.15.53,0,.23.07.43.21.59s.35.32.63.47c.28.15.63.33,1.05.53.51.24.95.5,1.31.76.36.26.64.57.83.92.2.36.29.79.29,1.32Z"/>
      <path class="cls-5" d="M82.55,76.75c.71,0,1.32.13,1.83.41.51.27.9.66,1.18,1.18s.42,1.14.42,1.89v1.01h-4.93c.02.59.19,1.05.52,1.39.33.34.79.5,1.38.5.49,0,.94-.05,1.34-.15s.82-.25,1.25-.46v1.61c-.37.19-.77.32-1.18.41-.42.09-.92.13-1.5.13-.77,0-1.44-.14-2.03-.43-.59-.28-1.05-.72-1.39-1.29-.34-.58-.5-1.31-.5-2.18s.15-1.64.46-2.23c.3-.59.73-1.04,1.27-1.34.54-.3,1.17-.45,1.89-.45ZM82.57,78.24c-.4,0-.73.13-1,.39-.27.26-.42.67-.47,1.22h2.93c0-.31-.05-.58-.16-.83-.11-.24-.27-.43-.48-.57-.21-.14-.49-.21-.81-.21Z"/>
      <path class="cls-5" d="M91.64,76.75c.1,0,.22,0,.36.01.14,0,.25.02.34.04l-.15,1.96c-.07-.02-.16-.04-.29-.05s-.24-.02-.33-.02c-.27,0-.53.04-.78.11s-.48.18-.68.33c-.2.15-.36.35-.48.59-.12.25-.17.55-.17.92v3.89h-2.09v-7.64h1.58l.31,1.29h.1c.15-.26.34-.5.56-.71.22-.21.48-.39.78-.52s.61-.2.95-.2Z"/>
      <path class="cls-5" d="M95.24,84.54l-2.91-7.64h2.18l1.47,4.35c.06.17.1.34.15.53.04.19.08.37.1.55.02.18.04.34.05.49h.06c0-.16.03-.33.06-.5.03-.18.06-.36.11-.54.04-.18.09-.36.15-.52l1.47-4.35h2.18l-2.91,7.64h-2.14Z"/>
      <path class="cls-5" d="M104.22,76.75c.71,0,1.32.13,1.83.41.51.27.9.66,1.18,1.18s.42,1.14.42,1.89v1.01h-4.93c.02.59.19,1.05.52,1.39.33.34.79.5,1.38.5.49,0,.94-.05,1.34-.15s.82-.25,1.25-.46v1.61c-.37.19-.77.32-1.18.41-.42.09-.92.13-1.5.13-.77,0-1.44-.14-2.03-.43-.59-.28-1.05-.72-1.39-1.29-.34-.58-.5-1.31-.5-2.18s.15-1.64.46-2.23c.3-.59.73-1.04,1.27-1.34.54-.3,1.17-.45,1.89-.45ZM104.24,78.24c-.4,0-.73.13-1,.39-.27.26-.42.67-.47,1.22h2.93c0-.31-.05-.58-.16-.83-.11-.24-.27-.43-.48-.57-.21-.14-.49-.21-.81-.21Z"/>
      <path class="cls-5" d="M113.31,76.75c.1,0,.22,0,.36.01.14,0,.25.02.34.04l-.15,1.96c-.07-.02-.16-.04-.29-.05s-.24-.02-.33-.02c-.27,0-.53.04-.78.11s-.48.18-.68.33c-.2.15-.36.35-.48.59-.12.25-.17.55-.17.92v3.89h-2.09v-7.64h1.58l.31,1.29h.1c.15-.26.34-.5.56-.71.22-.21.48-.39.78-.52s.61-.2.95-.2Z"/>
      <path class="cls-5" d="M122.33,84.54h-4.55v-1.2l1.22-.56v-6.47l-1.22-.56v-1.21h4.55v1.21l-1.22.56v6.47l1.22.56v1.2Z"/>
      <path class="cls-5" d="M127.47,84.54h-4.55v-1.2l1.22-.56v-6.47l-1.22-.56v-1.21h4.55v1.21l-1.22.56v6.47l1.22.56v1.2Z"/>
    </g>
  </g>
</svg>