<?xml version="1.0" encoding="UTF-8"?>
<svg id="Logos" xmlns="http://www.w3.org/2000/svg" viewBox="0 0 150 150">
  <defs>
    <style>
      .cls-1 {
        fill: none;
        stroke: #50595e;
        stroke-width: 1.25px;
      }

      .cls-1, .cls-2, .cls-3 {
        stroke-miterlimit: 10;
      }

      .cls-4 {
        fill: #50595e;
      }

      .cls-5, .cls-2 {
        fill: #20282f;
      }

      .cls-6 {
        fill: #c8102e;
      }

      .cls-2, .cls-3 {
        stroke: #20282f;
        stroke-width: 2px;
      }

      .cls-3 {
        fill: #fff;
      }
    </style>
  </defs>
  <g id="Certification_Xpert_Default_Large_Text" data-name="Certification / Xpert / Default / Large Text">
    <path class="cls-2" d="M75,11.75C38.17,11.75,8.32,41.61,8.32,78.43c0,18.37,7.43,35,19.45,47.06,1.71-1.56,3.5-3.03,5.36-4.42-11.05-10.84-17.91-25.94-17.91-42.64,0-33.01,26.76-59.78,59.78-59.78s59.78,26.76,59.78,59.78c0,16.71-6.86,31.8-17.91,42.64,1.86,1.39,3.65,2.86,5.36,4.42,12.02-12.06,19.45-28.69,19.45-47.06,0-36.83-29.85-66.68-66.68-66.68Z"/>
    <circle class="cls-3" cx="75" cy="78.58" r="59.67"/>
    <g>
      <path class="cls-4" d="M46.81,112.55l1.6,2.66h.06l1.61-2.66h1.5l-2.24,3.64,2.28,3.64h-1.53l-1.62-2.65h-.06l-1.62,2.65h-1.52l2.3-3.64-2.27-3.64h1.51Z"/>
      <path class="cls-4" d="M52.55,121.87v-7.5h1.26v.9h.07c.07-.13.16-.27.28-.42.12-.15.28-.28.49-.39.21-.11.47-.16.79-.16.42,0,.8.11,1.14.32.34.21.61.53.81.95.2.42.3.93.3,1.54s-.1,1.11-.29,1.53c-.2.42-.46.74-.8.96-.34.22-.72.33-1.15.33-.31,0-.57-.05-.78-.16-.21-.1-.37-.23-.5-.38-.12-.15-.22-.29-.29-.42h-.05v2.9h-1.29ZM53.81,117.1c0,.35.05.66.15.93s.25.47.44.62c.19.15.42.22.69.22s.52-.08.71-.23c.19-.15.34-.36.43-.63.1-.27.15-.57.15-.91s-.05-.64-.15-.9-.24-.47-.43-.62c-.19-.15-.43-.22-.72-.22s-.51.07-.7.22c-.19.14-.34.35-.43.61s-.15.57-.15.92Z"/>
      <path class="cls-4" d="M61.21,119.93c-.55,0-1.02-.11-1.42-.34s-.7-.55-.91-.97c-.21-.42-.32-.92-.32-1.49s.11-1.05.32-1.48c.21-.42.51-.76.9-.99.39-.24.84-.36,1.36-.36.34,0,.65.05.95.16.3.11.56.27.79.5.23.22.41.51.54.86.13.35.2.76.2,1.24v.39h-4.47v-.87h3.24c0-.25-.06-.47-.16-.66-.1-.19-.25-.34-.44-.46s-.4-.17-.65-.17c-.26,0-.49.06-.69.19-.2.13-.35.29-.46.5s-.17.43-.17.67v.76c0,.32.06.59.17.81.12.23.28.4.49.52.21.12.45.18.73.18.19,0,.36-.03.51-.08.15-.05.28-.13.39-.24.11-.1.2-.23.25-.39l1.2.14c-.08.32-.22.59-.43.83-.21.24-.48.42-.81.55s-.71.19-1.13.19Z"/>
      <path class="cls-4" d="M64.72,119.83v-5.46h1.25v.91h.06c.1-.32.27-.56.51-.73.24-.17.52-.26.83-.26.07,0,.15,0,.24,0s.16.01.22.03v1.18c-.05-.02-.14-.04-.26-.05-.12-.01-.23-.02-.34-.02-.23,0-.44.05-.63.15-.19.1-.33.24-.44.42-.11.18-.16.38-.16.61v3.21h-1.29Z"/>
      <path class="cls-4" d="M71.71,114.37v.99h-3.14v-.99h3.14ZM69.35,113.06h1.29v5.12c0,.17.03.3.08.4.05.09.12.15.21.19.09.03.18.05.29.05.08,0,.15,0,.22-.02s.12-.02.15-.03l.22,1c-.07.02-.17.05-.29.08s-.28.04-.46.05c-.32,0-.61-.04-.87-.15-.26-.11-.46-.28-.61-.5-.15-.23-.22-.51-.22-.85v-5.33Z"/>
      <path class="cls-4" d="M79.28,114.55c-.03-.31-.17-.55-.42-.72-.25-.17-.56-.26-.95-.26-.27,0-.51.04-.71.12-.2.08-.35.2-.45.34s-.16.3-.16.49c0,.15.04.28.11.39.07.11.17.21.29.28.12.08.25.14.4.19.15.05.29.1.44.13l.68.17c.27.06.54.15.79.26.25.11.48.25.69.41.2.17.36.37.48.6s.18.51.18.82c0,.43-.11.8-.33,1.12-.22.32-.53.57-.94.76s-.91.27-1.49.27-1.06-.09-1.47-.26c-.42-.17-.74-.43-.97-.77s-.36-.75-.38-1.23h1.3c.02.25.1.46.23.63.14.17.32.29.54.38.22.08.47.12.74.12s.54-.04.75-.13c.22-.09.39-.21.51-.36.12-.16.19-.34.19-.54,0-.19-.06-.35-.17-.47-.11-.12-.26-.23-.46-.31s-.42-.16-.68-.23l-.83-.21c-.6-.15-1.07-.39-1.42-.7-.35-.31-.52-.73-.52-1.25,0-.43.12-.8.35-1.13s.55-.57.95-.75c.4-.18.86-.27,1.37-.27s.97.09,1.36.27c.39.18.7.43.92.74.22.32.34.68.34,1.09h-1.27Z"/>
      <path class="cls-4" d="M84.17,119.93c-.55,0-1.02-.11-1.42-.34s-.7-.55-.91-.97c-.21-.42-.32-.92-.32-1.49s.11-1.05.32-1.48c.21-.42.51-.76.9-.99.39-.24.84-.36,1.36-.36.34,0,.65.05.95.16.3.11.56.27.79.5.23.22.41.51.54.86.13.35.2.76.2,1.24v.39h-4.47v-.87h3.24c0-.25-.06-.47-.16-.66-.1-.19-.25-.34-.44-.46s-.4-.17-.65-.17c-.26,0-.49.06-.69.19-.2.13-.35.29-.46.5s-.17.43-.17.67v.76c0,.32.06.59.17.81.12.23.28.4.49.52.21.12.45.18.73.18.19,0,.36-.03.51-.08.15-.05.28-.13.39-.24.11-.1.2-.23.25-.39l1.2.14c-.08.32-.22.59-.43.83-.21.24-.48.42-.81.55s-.71.19-1.13.19Z"/>
      <path class="cls-4" d="M87.69,119.83v-5.46h1.25v.91h.06c.1-.32.27-.56.51-.73.24-.17.52-.26.83-.26.07,0,.15,0,.24,0s.16.01.22.03v1.18c-.05-.02-.14-.04-.26-.05-.12-.01-.23-.02-.34-.02-.23,0-.44.05-.63.15-.19.1-.33.24-.44.42-.11.18-.16.38-.16.61v3.21h-1.29Z"/>
      <path class="cls-4" d="M92.3,113.6c-.2,0-.38-.07-.53-.21-.15-.14-.22-.3-.22-.49s.07-.36.22-.49c.15-.14.32-.21.53-.21s.38.07.53.21c.15.13.22.3.22.49s-.07.36-.22.49c-.15.14-.32.21-.53.21ZM91.65,119.83v-5.46h1.29v5.46h-1.29Z"/>
      <path class="cls-4" d="M96.67,119.93c-.55,0-1.02-.11-1.42-.34s-.7-.55-.91-.97c-.21-.42-.32-.92-.32-1.49s.11-1.05.32-1.48c.21-.42.51-.76.9-.99.39-.24.84-.36,1.36-.36.34,0,.65.05.95.16.3.11.57.27.8.5s.41.51.54.86c.13.35.2.76.2,1.24v.39h-4.47v-.87h3.24c0-.25-.06-.47-.16-.66-.1-.19-.25-.34-.43-.46-.19-.11-.4-.17-.65-.17-.26,0-.49.06-.69.19-.2.13-.35.29-.46.5s-.17.43-.17.67v.76c0,.32.06.59.17.81.12.23.28.4.49.52.21.12.45.18.73.18.19,0,.36-.03.51-.08.15-.05.28-.13.39-.24.11-.1.2-.23.25-.39l1.2.14c-.08.32-.22.59-.43.83-.21.24-.48.42-.81.55s-.71.19-1.13.19Z"/>
      <path class="cls-4" d="M104.5,115.81l-1.17.13c-.03-.12-.09-.23-.17-.33-.08-.1-.19-.19-.33-.25-.14-.06-.31-.1-.5-.1-.27,0-.49.06-.67.17-.18.12-.27.27-.27.45,0,.16.06.29.18.39.12.1.32.18.59.24l.93.2c.52.11.9.29,1.15.53.25.24.38.56.38.95,0,.34-.1.65-.3.91-.2.26-.47.47-.82.61-.35.15-.75.22-1.21.22-.67,0-1.21-.14-1.61-.42-.41-.28-.65-.67-.73-1.17l1.25-.12c.06.25.18.43.36.56s.42.19.72.19.55-.06.74-.19c.19-.13.28-.28.28-.46,0-.16-.06-.29-.18-.39-.12-.1-.3-.18-.56-.23l-.93-.2c-.52-.11-.91-.29-1.16-.55s-.38-.59-.37-.99c0-.34.09-.63.28-.88.19-.25.45-.44.78-.58.33-.14.72-.2,1.15-.2.64,0,1.14.13,1.51.41.37.27.6.64.68,1.1Z"/>
    </g>
    <g>
      <path class="cls-6" d="M56.5,42.96c-1.79,0-3.2,1.2-3.2,2.72,0,1.52,1.41,2.7,3.2,2.7,1.79,0,3.2-1.18,3.2-2.7s-1.41-2.72-3.2-2.72M56.5,50.21c-2.82,0-5.03-1.98-5.03-4.53,0-2.55,2.21-4.55,5.03-4.55,2.82,0,5.03,2,5.03,4.55s-2.21,4.53-5.03,4.53"/>
      <path class="cls-6" d="M74.48,50.21c-1.01,0-1.83-.84-1.83-1.87v-3.77c0-.9-.78-1.62-1.75-1.62-.95,0-1.73.72-1.73,1.62v5.64c-1.01,0-1.83-.82-1.83-1.83v-3.81c0-.9-.78-1.62-1.75-1.62s-1.74.72-1.74,1.62v3.79c0,1.01-.82,1.85-1.83,1.85v-5.64c0-1.9,1.6-3.45,3.56-3.45,1.06,0,2.02.44,2.66,1.14.65-.71,1.6-1.14,2.65-1.14,1.98,0,3.58,1.54,3.58,3.45v5.64Z"/>
      <path class="cls-6" d="M80.42,50.2c-.48,0-.93-.04-1.35-.13-.95-.27-1.51-1.26-1.26-2.21.04-.11.07-.23.11-.32l.02-.02c.51.57,1.35.86,2.48.86,1.68,0,2.99-1.18,2.99-2.67s-1.31-2.76-2.99-2.76c-1.58,0-3.16.88-3.16,2.8v5.92c0,.99-.84,1.79-1.83,1.79v-7.71c0-2.67,2.1-4.63,4.99-4.63,1.28,0,2.47.48,3.39,1.31.92.86,1.43,2.02,1.43,3.28,0,2.52-2.11,4.49-4.82,4.49"/>
      <path class="cls-6" d="M93.46,39.4h-3.91s0,10.82,0,10.82h-.08c-.97,0-1.75-.84-1.75-1.83v-8.99s-3.91,0-3.91,0c-.99,0-1.79-.82-1.79-1.81h13.26c0,.99-.8,1.81-1.81,1.81"/>
      <path class="cls-6" d="M105.06,39.47l-2.6,5.71h4.9s-2.62-5.73-2.62-5.73l.31.02ZM109.11,49.07l-.97-2.09h-6.49s-.96,2.15-.96,2.15c-.45.86-1.66,1.12-2.58,1.12l5.29-11.61c.3-.67.83-1.05,1.45-1.05.62,0,1.16.38,1.47,1.05l5.23,11.47c-.98.09-2.06-.2-2.44-1.04"/>
      <path class="cls-6" d="M49.42,41c-.99-1.05-2.44-1.73-4.04-1.73-2.84,0-5.14,2.06-5.14,4.59,0,2.53,2.31,4.61,5.14,4.61,1.35,0,2.63-.51,3.6-1.33.67-.55,1.66-.51,2.31.04-.5.76-1.16,1.43-1.98,1.94-1.16.74-2.52,1.12-3.92,1.12-3.83,0-6.93-2.86-6.93-6.38,0-3.52,3.1-6.38,6.93-6.38,2.72,0,5.2,1.49,6.3,3.77-.7.46-1.68.4-2.27-.25"/>
      <path class="cls-6" d="M95.85,37.59v10.85c0,.97.84,1.77,1.83,1.77v-10.85c0-.97-.84-1.77-1.83-1.77"/>
    </g>
    <g>
      <path class="cls-5" d="M30.74,67.53c-.57,0-1.08.11-1.53.34-.45.23-.82.55-1.13.97s-.54.93-.69,1.53-.23,1.27-.23,2.02c0,1.01.12,1.88.37,2.59.25.71.64,1.26,1.17,1.63.53.37,1.21.56,2.04.56.59,0,1.17-.07,1.75-.2.58-.13,1.21-.32,1.89-.56v2.54c-.63.25-1.25.44-1.86.56-.61.12-1.3.18-2.06.18-1.47,0-2.68-.3-3.63-.91-.95-.61-1.66-1.46-2.11-2.56-.45-1.1-.68-2.38-.68-3.85,0-1.08.15-2.07.44-2.97.29-.9.72-1.68,1.29-2.33.57-.65,1.27-1.16,2.1-1.52.83-.36,1.79-.54,2.87-.54.71,0,1.42.09,2.13.27.71.18,1.4.42,2.05.73l-.98,2.46c-.53-.25-1.07-.47-1.61-.66-.54-.19-1.07-.28-1.59-.28Z"/>
      <path class="cls-5" d="M39.72,79.49h-2.98v-15.2h2.98v15.2Z"/>
      <path class="cls-5" d="M52.32,74.01c0,.91-.12,1.71-.37,2.42-.25.71-.6,1.3-1.06,1.79s-1.02.85-1.67,1.1-1.39.37-2.22.37c-.76,0-1.46-.12-2.11-.37s-1.2-.61-1.67-1.1-.83-1.08-1.09-1.79c-.26-.71-.39-1.51-.39-2.42,0-1.21.21-2.24.64-3.07s1.04-1.47,1.84-1.91,1.75-.66,2.84-.66c1.03,0,1.93.22,2.72.66.79.44,1.41,1.08,1.86,1.91s.68,1.86.68,3.07ZM44.78,74.01c0,.72.08,1.32.23,1.81s.4.85.73,1.1c.33.25.77.37,1.3.37s.96-.12,1.29-.37c.33-.25.57-.61.72-1.1s.23-1.09.23-1.81-.08-1.32-.23-1.8c-.15-.48-.4-.84-.73-1.08-.33-.24-.77-.36-1.3-.36-.79,0-1.36.27-1.71.81s-.53,1.35-.53,2.43Z"/>
      <path class="cls-5" d="M64.36,68.57v10.92h-2.28l-.4-1.4h-.16c-.23.37-.52.68-.87.91-.35.23-.74.41-1.17.52-.43.11-.87.17-1.32.17-.77,0-1.45-.14-2.04-.42-.59-.28-1.04-.71-1.36-1.3-.32-.59-.48-1.35-.48-2.28v-7.12h2.98v6.38c0,.77.14,1.36.42,1.76.28.4.73.6,1.34.6s1.09-.14,1.43-.42c.34-.28.58-.69.72-1.22.14-.53.21-1.19.21-1.96v-5.14h2.98Z"/>
      <path class="cls-5" d="M70.5,79.69c-1.21,0-2.2-.48-2.97-1.43-.77-.95-1.15-2.36-1.15-4.21s.39-3.28,1.16-4.24c.77-.96,1.79-1.44,3.04-1.44.52,0,.98.07,1.38.21.4.14.74.33,1.03.57s.53.51.73.82h.1c-.04-.21-.09-.52-.14-.93-.05-.41-.08-.82-.08-1.25v-3.5h2.98v15.2h-2.28l-.58-1.42h-.12c-.19.29-.42.56-.71.81-.29.25-.62.44-1.01.59-.39.15-.85.22-1.38.22ZM71.54,77.31c.83,0,1.41-.24,1.74-.73s.51-1.22.52-2.19v-.32c0-1.07-.16-1.88-.49-2.44-.33-.56-.93-.84-1.81-.84-.65,0-1.17.28-1.54.85-.37.57-.56,1.38-.56,2.45s.19,1.87.56,2.41c.37.54.9.81,1.58.81Z"/>
      <path class="cls-5" d="M92.16,79.49h-3.84l-6.22-10.8h-.08c.03.45.05.91.07,1.36.02.45.04.91.06,1.36.02.45.04.91.05,1.36v6.72h-2.7v-14.28h3.82l6.2,10.7h.06c-.01-.44-.03-.88-.04-1.32-.01-.44-.03-.88-.05-1.31-.02-.43-.04-.87-.05-1.31v-6.76h2.72v14.28Z"/>
      <path class="cls-5" d="M99.58,68.37c1.01,0,1.88.19,2.61.58s1.29.95,1.69,1.68c.4.73.6,1.63.6,2.7v1.44h-7.04c.03.84.28,1.5.75,1.98s1.13.72,1.97.72c.71,0,1.35-.07,1.92-.21.57-.14,1.17-.36,1.78-.65v2.3c-.53.27-1.1.46-1.69.59-.59.13-1.31.19-2.15.19-1.09,0-2.06-.2-2.9-.61-.84-.41-1.5-1.02-1.98-1.85-.48-.83-.72-1.87-.72-3.12s.22-2.34.65-3.19c.43-.85,1.04-1.48,1.81-1.91.77-.43,1.67-.64,2.7-.64ZM99.6,70.49c-.57,0-1.05.19-1.43.56-.38.37-.6.95-.67,1.74h4.18c0-.44-.08-.83-.23-1.18s-.38-.62-.69-.82-.69-.3-1.16-.3Z"/>
      <path class="cls-5" d="M111.06,77.31c.33,0,.65-.03.96-.1.31-.07.61-.15.92-.24v2.22c-.32.13-.72.25-1.19.35-.47.1-.99.15-1.55.15-.65,0-1.24-.11-1.75-.32-.51-.21-.92-.58-1.22-1.11-.3-.53-.45-1.26-.45-2.19v-5.26h-1.42v-1.26l1.64-1,.86-2.3h1.9v2.32h3.06v2.24h-3.06v5.26c0,.41.12.72.36.93.24.21.55.31.94.31Z"/>
      <path class="cls-5" d="M127.12,79.49h-3.46l-3.32-5.4-3.32,5.4h-3.24l4.74-7.36-4.44-6.92h3.34l3.08,5.14,3.02-5.14h3.26l-4.48,7.08,4.82,7.2Z"/>
    </g>
    <g>
      <rect class="cls-1" x="35" y="90.57" width="80" height="13.5" rx="6.75" ry="6.75"/>
      <g>
        <path class="cls-4" d="M45.97,96.25h-1.2c-.03-.2-.1-.37-.19-.52-.09-.15-.21-.28-.34-.39-.14-.11-.29-.19-.47-.24-.17-.05-.36-.08-.56-.08-.36,0-.67.09-.95.27-.28.18-.49.44-.65.78-.15.34-.23.76-.23,1.25s.08.92.23,1.26c.16.34.37.6.65.77.27.17.59.26.94.26.2,0,.38-.03.55-.08.17-.05.33-.13.46-.23.14-.1.25-.23.35-.38.09-.15.16-.32.2-.51h1.2c-.04.32-.14.61-.29.88-.15.27-.34.51-.58.72-.24.21-.52.37-.84.49-.32.12-.67.17-1.06.17-.57,0-1.09-.13-1.54-.4-.45-.27-.81-.65-1.07-1.15-.26-.5-.39-1.11-.39-1.81s.13-1.31.39-1.81c.26-.5.62-.89,1.07-1.15.45-.27.96-.4,1.53-.4.37,0,.7.05,1.02.15.31.1.59.25.84.45s.45.44.61.72c.16.28.26.61.31.97Z"/>
        <path class="cls-4" d="M47.24,100.59v-6.55h4.26v.99h-3.07v1.78h2.85v.99h-2.85v1.79h3.1v.99h-4.28Z"/>
        <path class="cls-4" d="M52.89,100.59v-6.55h2.46c.5,0,.93.09,1.27.26.34.17.6.42.78.73s.26.68.26,1.1-.09.78-.27,1.09c-.18.31-.44.55-.79.71-.34.17-.77.25-1.27.25h-1.75v-.98h1.59c.29,0,.54-.04.72-.12s.33-.2.42-.36.14-.35.14-.59-.05-.43-.14-.6c-.09-.17-.23-.29-.42-.38s-.43-.13-.72-.13h-1.09v5.55h-1.19ZM56.27,97.62l1.62,2.97h-1.32l-1.59-2.97h1.29Z"/>
        <path class="cls-4" d="M58.64,95.04v-.99h5.22v.99h-2.02v5.55h-1.18v-5.55h-2.02Z"/>
        <path class="cls-4" d="M66.23,94.04v6.55h-1.19v-6.55h1.19Z"/>
        <path class="cls-4" d="M67.7,100.59v-6.55h4.19v.99h-3.01v1.78h2.72v.99h-2.72v2.78h-1.19Z"/>
        <path class="cls-4" d="M74.33,94.04v6.55h-1.19v-6.55h1.19Z"/>
        <path class="cls-4" d="M81.4,96.25h-1.2c-.03-.2-.1-.37-.19-.52-.09-.15-.21-.28-.34-.39-.14-.11-.29-.19-.47-.24-.17-.05-.36-.08-.56-.08-.36,0-.67.09-.95.27-.28.18-.49.44-.65.78-.15.34-.23.76-.23,1.25s.08.92.23,1.26c.16.34.37.6.65.77.27.17.59.26.94.26.2,0,.38-.03.55-.08.17-.05.33-.13.46-.23.14-.1.25-.23.35-.38.09-.15.16-.32.2-.51h1.2c-.04.32-.14.61-.29.88-.15.27-.34.51-.58.72-.24.21-.52.37-.84.49-.32.12-.67.17-1.06.17-.57,0-1.09-.13-1.54-.4-.45-.27-.81-.65-1.07-1.15-.26-.5-.39-1.11-.39-1.81s.13-1.31.39-1.81c.26-.5.62-.89,1.07-1.15.45-.27.96-.4,1.53-.4.37,0,.7.05,1.02.15.31.1.59.25.84.45s.45.44.61.72c.16.28.26.61.31.97Z"/>
        <path class="cls-4" d="M83.43,100.59h-1.27l2.3-6.55h1.46l2.31,6.55h-1.27l-1.75-5.2h-.05l-1.74,5.2ZM83.47,98.02h3.45v.95h-3.45v-.95Z"/>
        <path class="cls-4" d="M88.2,95.04v-.99h5.22v.99h-2.02v5.55h-1.18v-5.55h-2.02Z"/>
        <path class="cls-4" d="M95.8,94.04v6.55h-1.19v-6.55h1.19Z"/>
        <path class="cls-4" d="M103.11,97.31c0,.71-.13,1.31-.39,1.81-.26.5-.62.89-1.07,1.15-.45.27-.96.4-1.54.4s-1.09-.13-1.54-.4c-.45-.27-.81-.65-1.07-1.15s-.39-1.1-.39-1.81.13-1.31.39-1.81.62-.89,1.07-1.15c.45-.27.96-.4,1.54-.4s1.09.13,1.54.4c.45.27.81.65,1.07,1.15.26.5.39,1.11.39,1.81ZM101.92,97.31c0-.5-.08-.92-.23-1.26s-.37-.6-.64-.78c-.27-.18-.59-.26-.94-.26s-.67.09-.94.26c-.27.18-.49.43-.64.78s-.23.76-.23,1.26.08.92.23,1.26.37.6.64.78c.27.18.59.26.94.26s.67-.09.94-.26c.27-.18.49-.44.64-.78s.23-.76.23-1.26Z"/>
        <path class="cls-4" d="M109.8,94.04v6.55h-1.05l-3.08-4.46h-.05v4.46h-1.19v-6.55h1.06l3.08,4.46h.06v-4.46h1.18Z"/>
      </g>
    </g>
  </g>
</svg>